<svg xmlns="http://www.w3.org/2000/svg" xmlns:xlink="http://www.w3.org/1999/xlink" width="852.807" height="516.374" viewBox="0 0 852.807 516.374">
  <defs>
    <linearGradient id="linear-gradient" x1="0.5" x2="0.5" y2="1" gradientUnits="objectBoundingBox">
      <stop offset="0" stop-color="#108de6"/>
      <stop offset="1" stop-color="#aedafd"/>
    </linearGradient>
    <clipPath id="clip-path">
      <rect id="사각형_924" data-name="사각형 924" width="189.709" height="144.599" transform="translate(0 0)" fill="none"/>
    </clipPath>
    <clipPath id="clip-path-2">
      <rect id="사각형_923" data-name="사각형 923" width="393.756" height="122.463" fill="none"/>
    </clipPath>
    <clipPath id="clip-path-3">
      <path id="패스_2244" data-name="패스 2244" d="M151.286,0c-62.742.089-114,19.3-114,19.3L0,329.023l570.7-14.339c2.868-123.317-94.638-143.391-94.638-143.391C374.954,155.33,314.523,69.5,306.857,59.447L305.5,58.059C260.935,12.7,202.859.066,152.132,0Z" fill="url(#linear-gradient)"/>
    </clipPath>
    <linearGradient id="linear-gradient-3" x1="0.979" y1="0.528" x2="0.076" y2="0.772" gradientUnits="objectBoundingBox">
      <stop offset="0" stop-color="#47a8ee"/>
      <stop offset="1" stop-color="#84cbff"/>
    </linearGradient>
    <linearGradient id="linear-gradient-4" x1="0.891" y1="0.215" x2="0.037" y2="0.327" gradientUnits="objectBoundingBox">
      <stop offset="0" stop-color="#acd8ff"/>
      <stop offset="1" stop-color="#cfe0ff"/>
    </linearGradient>
  </defs>
  <g id="그룹_1367" data-name="그룹 1367" transform="translate(92.869 -332.464)">
    <g id="그룹_1179" data-name="그룹 1179" transform="translate(11.27 387.186) rotate(30)">
      <g id="그룹_1178" data-name="그룹 1178" transform="translate(0 0)" clip-path="url(#clip-path)">
        <path id="패스_2195" data-name="패스 2195" d="M52.838,143.885c32.617,3.314,68.06-4.936,94.953-23.891,24.594-17.332,58.27-52.134,32.89-83.792-12-14.964-33.6-23.62-51.119-29.943C90.871-7.7,31.586.614,12.112,42.165c-4.96,10.576-21.97,65.351-4.2,76.048" transform="translate(0 0)" fill="#c1e7ff"/>
      </g>
    </g>
    <rect id="사각형_978" data-name="사각형 978" width="440.587" height="214.739" transform="translate(433.049 358.999) rotate(66)" fill="none"/>
    <g id="그룹_1177" data-name="그룹 1177" transform="translate(366.182 717.375)">
      <g id="그룹_1176" data-name="그룹 1176" transform="translate(0 0)" clip-path="url(#clip-path-2)">
        <path id="패스_2194" data-name="패스 2194" d="M0,104.818C13.259,94.483,20.626,76.181,32.024,63.637,68.222,23.8,121.238,4.606,170.411.846c43.307-3.314,88.455,2.793,128.075,23.965,20.162,10.775,36.6,28.146,53.837,43.858,14.239,12.978,35.306,24.211,41.433,45.253-14.9,9.8-48.56,3.487-65.852,3.194-23.25-.393-46.49-1.386-69.743-1.431-41.1-.077-81.574,5.458-122.681,5.415-32.129-.035-66.882-4.3-98.74,1.362" transform="translate(0 0)" fill="#7ccafb"/>
      </g>
    </g>
    <g id="그룹_1309" data-name="그룹 1309" transform="translate(-92.869 497.226)">
      <g id="그룹_1308" data-name="그룹 1308" clip-path="url(#clip-path-3)">
        <rect id="사각형_981" data-name="사각형 981" width="560.234" height="660.922" transform="translate(-136.622 256.155) rotate(-61.926)" fill="url(#linear-gradient)"/>
      </g>
    </g>
    <path id="패스_2239" data-name="패스 2239" d="M36.238,37.381c8.725,0,15.794-7.439,15.794-16.63,0-9.174-7.07-16.614-15.794-16.614S20.444,11.577,20.444,20.752c0,9.191,7.07,16.63,15.794,16.63" transform="translate(528.16 508.175) rotate(30)" fill="#64a4ff"/>
    <path id="패스_2263" data-name="패스 2263" d="M36.238,37.381c8.725,0,15.794-7.439,15.794-16.63,0-9.174-7.07-16.614-15.794-16.614S20.444,11.577,20.444,20.752c0,9.191,7.07,16.63,15.794,16.63" transform="translate(238.997 328.796) rotate(30)" fill="#c2eaff"/>
    <path id="패스_2240" data-name="패스 2240" d="M23.677,161.22A73.852,73.852,0,0,1,61.371,171.5c3.776,2.217,16.019,2.426,18.976.257a53.246,53.246,0,0,1,31.765-10.54c2.539,0,11.536.884,13.32,1.575A50.894,50.894,0,0,0,143.7,166.2c29.66,0,53.7-25.29,53.7-56.509a57.307,57.307,0,0,0-21.884-45.455c-2.523-1.96-4.194-15.859-3.872-17.947a42.1,42.1,0,0,0,.482-6.411C172.123,17.851,155.156,0,134.22,0c-20.92,0-37.9,17.851-37.9,39.879a41.629,41.629,0,0,0,2.908,15.328c.948,2.394,4.692,13.352,2.169,19.731-1.912,4.836-14.557,2.6-17.015,1.687a56.682,56.682,0,0,0-19.634-3.5C31.6,73.123,4.717,101.4,4.717,136.284A65.829,65.829,0,0,0,10.2,162.538a73.017,73.017,0,0,1,13.481-1.318" transform="translate(337.217 330.105) rotate(30)" fill="url(#linear-gradient-3)"/>
    <path id="패스_2241" data-name="패스 2241" d="M44.145,60.011a24.366,24.366,0,0,0,4.483-.434A69.475,69.475,0,0,1,64.872,48.6,27.353,27.353,0,0,0,69.419,33.42c0-14.686-11.311-26.592-25.274-26.592C30.2,6.828,18.871,18.734,18.871,33.42S30.2,60.011,44.145,60.011" transform="translate(470.469 527.856) rotate(30)" fill="#71ceff"/>
    <path id="패스_2242" data-name="패스 2242" d="M392.178,14.272c-33.971-4.942-49.512,7.522-59.352,16.859-3.977,3.773-17.669,6.665-21.834,4.15a65.092,65.092,0,0,0-33.734-9.416,65.979,65.979,0,0,0-47.08,19.948c-5.187,5.25-17.653,5.706-21.756.817a38.8,38.8,0,0,0-60.064-.079c-2.955,3.505-13.141,4.339-16.725,1.163C120.9,38.142,113.224,29.6,91.846,32.358S74.309,50.18,46.122,58.757c-30.348-.387-24.627-21.181-26.074-24.781C15.38,22.28,4.407,14.059-8.4,14.059c-17.071,0-30.9,14.556-30.9,32.524S-14.711,79.923,12,83.141,74.227,68.3,98.441,91.979c41.124,42.532,153.8,24.161,178.529,14.415,32.244-8.072,41.241-4.229,94.373,9.53,24.446,3.208,28.3-39.685,64.409-51.5S426.149,19.214,392.178,14.272Z" transform="translate(203.969 418.754) rotate(30)" fill="url(#linear-gradient-4)"/>
  </g>
</svg>
