<svg xmlns="http://www.w3.org/2000/svg" xmlns:xlink="http://www.w3.org/1999/xlink" width="555.457" height="428.934" viewBox="0 0 555.457 428.934">
  <defs>
    <clipPath id="clip-path">
      <rect id="사각형_927" data-name="사각형 927" width="480.755" height="301.551" fill="none"/>
    </clipPath>
    <linearGradient id="linear-gradient" x1="1" y1="0.301" x2="0.4" y2="0.752" gradientUnits="objectBoundingBox">
      <stop offset="0" stop-color="#64c5ff"/>
      <stop offset="1" stop-color="#00a8ff"/>
    </linearGradient>
    <linearGradient id="linear-gradient-2" x1="0.862" y1="0.129" x2="0.429" y2="0.792" gradientUnits="objectBoundingBox">
      <stop offset="0" stop-color="#4db2ff"/>
      <stop offset="1" stop-color="#a2edff"/>
    </linearGradient>
  </defs>
  <g id="그룹_1188" data-name="그룹 1188" transform="translate(107.657 -4.517) rotate(13)">
    <g id="그룹_1185" data-name="그룹 1185">
      <g id="그룹_1184" data-name="그룹 1184" transform="matrix(0.998, 0.07, -0.07, 0.998, -17.976, 8.786)" clip-path="url(#clip-path)">
        <path id="패스_2198" data-name="패스 2198" d="M70.271,224.579c3.311-7.309,26.668-10.862,34.579-14.558,12.351-5.771,25.734-11.129,37.127-18.279,37.5-23.538,61.312-61.021,88.205-95.051,31.81-40.25,70.694-73.484,119.178-91.546,3.96-1.475,7.6-3.862,11.715-5.145,2,37.326-.8,77.919-2.984,115.518-45.462,11.6-92.34,23.025-137.529,38.584-23.229,8-35.394,28.291-56.266,37.642" transform="translate(87.046)" fill="url(#linear-gradient)"/>
      </g>
    </g>
    <g id="그룹_1187" data-name="그룹 1187" transform="translate(-4.023 135.197) rotate(-3)">
      <path id="패스_2199" data-name="패스 2199" d="M467.007,40.59c-40.351-17.731-84.281,10.7-115.688,33.99C310.8,104.636,272.9,141.29,225.2,159.909c-66.544,25.974-142.537,18.326-201.525,64.22C6.544,237.459,5.451,248.84,0,265.68c4.162.262,8.357.381,12.566.383h.2c26.3-.009,53.4-4.5,79.367-6.109,55.534-3.448,110.935-1.3,166.462-3.591,57.331-2.362,117.488-1.641,174.152-11.306a304.189,304.189,0,0,1,47.544-4.516q.463-13.583.463-27.131v-2.78c-.09-60.83-5.883-121.244-6.286-181.981Z" transform="translate(0 -78.649)" fill="url(#linear-gradient-2)"/>
    </g>
  </g>
</svg>
