<svg xmlns="http://www.w3.org/2000/svg" width="157" height="50" viewBox="0 0 157 50">
  <g id="그룹_737" data-name="그룹 737" transform="translate(-260 -366)">
    <rect id="사각형_472" data-name="사각형 472" width="157" height="50" rx="25" transform="translate(260 366)" fill="#00398e"/>
    <g id="그룹_747" data-name="그룹 747">
      <text id="버스_이용시" data-name="버스 이용시" transform="translate(322 398)" fill="#fff" font-size="16" font-family="NotoSansCJKkr-Bold, Noto Sans CJK KR" font-weight="700" letter-spacing="-0.025em"><tspan x="0" y="0">버스 이용시</tspan></text>
      <g id="그룹_745" data-name="그룹 745" transform="translate(274 377)">
        <circle id="타원_8" data-name="타원 8" cx="21" cy="21" r="21" transform="translate(-10 -7)" fill="#fff"/>
        <g id="그룹_762" data-name="그룹 762" transform="translate(11 4.569)">
          <g id="그룹_763" data-name="그룹 763" transform="translate(-12.999 -0.815)">
            <path id="패스_1314" data-name="패스 1314" d="M74.951,27.843a.6.6,0,0,1,.876,0,.657.657,0,0,1,0,.907l-3.749,3.88h6.805V22.355a1.242,1.242,0,0,0-1.218-1.261H63.5a1.241,1.241,0,0,0-1.218,1.261V32.63h8.045Z" transform="translate(-58.622 -19.811)" fill="#8dc6cf"/>
            <path id="패스_1315" data-name="패스 1315" d="M99.926,338.529a.5.5,0,0,0,.488.5h1.379a.5.5,0,0,0,.488-.5v-.665H99.926Z" transform="translate(-94.055 -317.316)" fill="#848388"/>
            <path id="패스_1316" data-name="패스 1316" d="M267.139,338.529a.5.5,0,0,0,.488.5h1.379a.5.5,0,0,0,.488-.5v-.665h-2.355Z" transform="translate(-251.444 -317.316)" fill="#848388"/>
            <path id="패스_1317" data-name="패스 1317" d="M63.5,237.043H77.665a1.242,1.242,0,0,0,1.218-1.261v-3.9h-16.6v3.9a1.241,1.241,0,0,0,1.218,1.261m12.414-4.64a1.838,1.838,0,1,1-1.775,1.837,1.808,1.808,0,0,1,1.775-1.837m-6.889,2.391h3.115a.642.642,0,0,1,0,1.283H69.025a.642.642,0,0,1,0-1.283M65.251,232.4a1.838,1.838,0,1,1-1.775,1.837,1.808,1.808,0,0,1,1.775-1.837" transform="translate(-58.622 -217.778)" fill="#00398e"/>
            <path id="패스_1318" data-name="패스 1318" d="M285.736,262.682a.554.554,0,1,0-.536-.554.546.546,0,0,0,.536.554" transform="translate(-268.444 -245.666)" fill="#ffe088"/>
            <path id="패스_1319" data-name="패스 1319" d="M104.257,262.682a.554.554,0,1,0-.535-.554.546.546,0,0,0,.535.554" transform="translate(-97.628 -245.666)" fill="#ffe088"/>
            <path id="패스_1320" data-name="패스 1320" d="M43.4,20.521v.69A1.76,1.76,0,0,0,45.126,23h1.379a1.76,1.76,0,0,0,1.727-1.788v-.665h4.99v.665A1.76,1.76,0,0,0,54.95,23h1.379a1.76,1.76,0,0,0,1.727-1.788v-.69A2.507,2.507,0,0,0,60.268,18V2.543A2.5,2.5,0,0,0,57.81,0H43.644a2.5,2.5,0,0,0-2.457,2.544V18A2.507,2.507,0,0,0,43.4,20.521m3.594.69a.5.5,0,0,1-.488.5H45.126a.5.5,0,0,1-.488-.5v-.665h2.355Zm9.824,0a.5.5,0,0,1-.488.5H54.95a.5.5,0,0,1-.488-.5v-.665h2.355ZM42.426,2.543a1.242,1.242,0,0,1,1.218-1.261H57.81a1.242,1.242,0,0,1,1.218,1.261V12.818H52.224l3.749-3.88a.657.657,0,0,0,0-.907.6.6,0,0,0-.876,0l-4.625,4.787H42.426Zm0,11.558h16.6V18a1.242,1.242,0,0,1-1.218,1.261H43.644A1.241,1.241,0,0,1,42.426,18Z" transform="translate(-38.767 0.001)" fill="#323232"/>
            <path id="패스_1321" data-name="패스 1321" d="M84.4,244.153a1.838,1.838,0,1,0-1.775-1.837,1.809,1.809,0,0,0,1.775,1.837m0-2.391a.554.554,0,1,1-.535.554.546.546,0,0,1,.535-.554" transform="translate(-77.773 -225.854)" fill="#323232"/>
            <path id="패스_1322" data-name="패스 1322" d="M265.881,244.153a1.838,1.838,0,1,0-1.775-1.837,1.809,1.809,0,0,0,1.775,1.837m0-2.391a.554.554,0,1,1-.536.554.546.546,0,0,1,.536-.554" transform="translate(-248.589 -225.854)" fill="#323232"/>
            <path id="패스_1323" data-name="패스 1323" d="M167.135,281.077h3.115a.642.642,0,0,0,0-1.283h-3.115a.642.642,0,0,0,0,1.283" transform="translate(-156.732 -262.778)" fill="#323232"/>
            <path id="패스_1324" data-name="패스 1324" d="M10.174,97.66H8.288L8,100.4" transform="translate(-7.53 -91.721)" fill="none" stroke="#323232" stroke-linecap="round" stroke-miterlimit="10" stroke-width="1"/>
            <path id="패스_1325" data-name="패스 1325" d="M363.5,97.66h1.886l.288,2.737" transform="translate(-342.144 -91.721)" fill="none" stroke="#323232" stroke-linecap="round" stroke-miterlimit="10" stroke-width="1"/>
          </g>
        </g>
      </g>
    </g>
  </g>
</svg>
