<svg id="logo" xmlns="http://www.w3.org/2000/svg" xmlns:xlink="http://www.w3.org/1999/xlink" width="192" height="41" viewBox="0 0 192 41">
  <defs>
    <clipPath id="clip-path">
      <rect id="사각형_34" data-name="사각형 34" width="192" height="41" fill="none"/>
    </clipPath>
  </defs>
  <g id="그룹_70" data-name="그룹 70">
    <g id="그룹_69" data-name="그룹 69" clip-path="url(#clip-path)">
      <path id="패스_52" data-name="패스 52" d="M62.87,17.4c-.123.072-.3.171-.529.3-.4.229-.7.4-.919.493a5.307,5.307,0,0,1-1.125.345,2.153,2.153,0,0,1-1.263-.149,1.535,1.535,0,0,1-.759-.795l-.229-.623a6.675,6.675,0,0,0-.3-.814c-.138-.257-.276-.38-.413-.365a2.067,2.067,0,0,0-.989.728,1.917,1.917,0,0,0-.436,1.2,2.959,2.959,0,0,0,.688,1.8,2.052,2.052,0,0,0,1.863.9,6.685,6.685,0,0,0,2.411-.859,10.713,10.713,0,0,0,1.539-1.114c.214-.215.406-.42.575-.62a4.612,4.612,0,0,0,.436-.668,3.33,3.33,0,0,0-.552.237m.642-3.26a14.07,14.07,0,0,0-.045-2.53,11.517,11.517,0,0,0-.506-2.6A3.856,3.856,0,0,0,61.814,7.15c-.385-.3-.72-.2-1.011.3a1.8,1.8,0,0,0-.23,1.351,15.938,15.938,0,0,1,.369,2.659q.021,1.095-.094,2.529l-.137.816c-.092.472-.153.837-.184,1.095a6.379,6.379,0,0,0-.022,1.2.192.192,0,0,0,.114.171.366.366,0,0,0,.323-.022l.344-.258a2.3,2.3,0,0,1,.368-.234,1.213,1.213,0,0,1,.505-.151,1.444,1.444,0,0,0,.6-.3,1.976,1.976,0,0,0,.461-.535,5.64,5.64,0,0,0,.3-1.631" fill="#868787"/>
      <path id="패스_53" data-name="패스 53" d="M58.162,10.341a2.737,2.737,0,0,1-.423,1.521A2.892,2.892,0,0,1,56.6,12.923a2.163,2.163,0,0,1-1.429.314,3.71,3.71,0,0,1-2.322-1.126,2.1,2.1,0,0,1-.493-1.77,2.96,2.96,0,0,1,1.006-1.708,3.483,3.483,0,0,1,2.077-.918c.163-.013.29-.165.379-.458a1.515,1.515,0,0,0,.089-.709,1.259,1.259,0,0,0-1.34-1.082,4.533,4.533,0,0,0-2.433.626,6.287,6.287,0,0,0-2.255,1.978,4.053,4.053,0,0,0-.737,2.96,4.6,4.6,0,0,0,1.249,2.626,5.684,5.684,0,0,0,2.279,1.355,7.362,7.362,0,0,0,2.478.332,4.9,4.9,0,0,0,1.92-.353A5.438,5.438,0,0,0,59.435,12.9a3.793,3.793,0,0,0,.491-2.459A3.545,3.545,0,0,0,58.9,8.34a3.486,3.486,0,0,0-2.211-1.021.933.933,0,0,0-.491.042.188.188,0,0,0-.089.311,1.067,1.067,0,0,0,.291.356l.4.25a3.83,3.83,0,0,1,.381.229,1.149,1.149,0,0,1,.29.291,2.383,2.383,0,0,1,.691,1.543" fill="#868787"/>
      <path id="패스_54" data-name="패스 54" d="M72.5,8.566a25.219,25.219,0,0,0-2.618-.214q-1.15-.02-2.482,0c-1.132.029-1.5.042-1.1.042l-.758.044a5.107,5.107,0,0,0-1.333.172.765.765,0,0,0-.575.729.847.847,0,0,0,.666.837,6.494,6.494,0,0,0,1.47.236l.781.085a.332.332,0,0,1,.115.063.251.251,0,0,1,.138.214,3.942,3.942,0,0,1-.184,1.158,10.94,10.94,0,0,1-.366,1.1l-.094.278a5.461,5.461,0,0,0-.275,1.113,2.2,2.2,0,0,0,.023.882,1.22,1.22,0,0,0,.206.342.45.45,0,0,0,.346.15l.114-.043a.818.818,0,0,1,.23-.042,1.038,1.038,0,0,1,.3,0,.38.38,0,0,0,.183,0,.754.754,0,0,0,.207-.044c.107-.014.176-.021.206-.021.062-.015.1-.007.117.021a.467.467,0,0,0,.344,0,.583.583,0,0,0,.229-.15l.138-.086a1.255,1.255,0,0,0,.367-.622,4.178,4.178,0,0,0,.229-.817,2.109,2.109,0,0,1,.116-.405c.03-.115.069-.158.113-.128l.392.278q.6.449.919.664a5.493,5.493,0,0,0,1.011.538c.107.012.206.027.3.042.121,0,.273-.006.458-.022a1,1,0,0,0,.46-.085.53.53,0,0,0,.252-.5,1.723,1.723,0,0,0-.389-.985,2.387,2.387,0,0,0-.69-.643,6.6,6.6,0,0,0-.827-.557c-.215-.13-.529-.3-.942-.517l-.413-.236a.382.382,0,0,1-.025-.169,1.648,1.648,0,0,1,.025-.237l.022-.106a.356.356,0,0,1,.116-.3,1.392,1.392,0,0,1,.391-.065l.413-.02.46-.044c.7-.013,1.232-.043,1.584-.085a2.3,2.3,0,0,0,1.15-.3.741.741,0,0,0,.137-.664c-.046-.185-.084-.278-.114-.278a2.547,2.547,0,0,0-1.542-.6m-.458-1.522a.54.54,0,0,0-.138-.622,1.653,1.653,0,0,0-.987-.385A7.247,7.247,0,0,0,69.7,5.994l-.346.021q-.894,0-1.837-.087c-.644-.056-1.187-.122-1.631-.193a.884.884,0,0,0-.552.044.331.331,0,0,0-.183.47.852.852,0,0,0,.229.344,3.821,3.821,0,0,0,.39.3l.115.086a5.484,5.484,0,0,0,2.781.665,7.285,7.285,0,0,0,3.1-.3c.094,0,.184-.1.277-.3M76.3,17.359q-.162.085-.506.279a6.731,6.731,0,0,1-.9.471,5.069,5.069,0,0,1-1.057.344,2.132,2.132,0,0,1-1.263-.15,1.467,1.467,0,0,1-.736-.749l-.16-.451q-.207-.644-.321-.9c-.154-.3-.3-.437-.437-.407a1.816,1.816,0,0,0-.943.686,2,2,0,0,0-.437,1.222,2.619,2.619,0,0,0,.713,1.695,1.988,1.988,0,0,0,1.815.816,6.059,6.059,0,0,0,2.321-.794,6.5,6.5,0,0,0,1.47-1.095,5.609,5.609,0,0,0,.552-.579,2.573,2.573,0,0,0,.436-.643,4.663,4.663,0,0,0-.55.257m.712-3.8a11.116,11.116,0,0,0-.575-3.71l-.046-.108a4.532,4.532,0,0,0-.367-.857.68.68,0,0,0-.644-.344c-.229.029-.367.221-.412.578a6.172,6.172,0,0,0,0,1.1q.021.449.022.622c-.014.171-.046.264-.091.28q.988,0-.529-.022c-.414,0-.766.014-1.056.042a2.071,2.071,0,0,0-.9.236.516.516,0,0,0-.322.664,1.676,1.676,0,0,0,1.056.6,6.088,6.088,0,0,0,1.4.129.741.741,0,0,1,.231.021c.06.015.092.074.092.173q-.024.965-.138,2.059a5.092,5.092,0,0,1-.412,1.822,2.791,2.791,0,0,0,1.4-.063,1.257,1.257,0,0,0,.921-.644,7.274,7.274,0,0,0,.367-2.573" fill="#868787"/>
      <path id="패스_55" data-name="패스 55" d="M86.114,12.447a2.875,2.875,0,0,1,.231-.234v-.021a10.556,10.556,0,0,0,.941-1.586,6.291,6.291,0,0,0,.736-2.96,1.9,1.9,0,0,0-1.471-1.8,8.488,8.488,0,0,0-2.8-.237l-.875-.02a23.876,23.876,0,0,0-2.619.064q-1.286.172-1.263.771.022.88,1.976,1.2a12.888,12.888,0,0,0,3.583.063.428.428,0,0,1,.53.345,1.251,1.251,0,0,1-.093.727,10.317,10.317,0,0,0-.919,2.08,2.506,2.506,0,0,0,0,1.652l.067.128h-1.4a.166.166,0,0,1-.046-.128.726.726,0,0,0,.046-.152l.044-.148a3.4,3.4,0,0,0-.09-1.673,1.678,1.678,0,0,0-.85-1.115.74.74,0,0,0-.46.022.594.594,0,0,0-.369.171,2.1,2.1,0,0,0-.093.8v1.284l.025.817a.551.551,0,0,0-.025.128c-.015.073-.039.107-.069.107q-.988,0-1.468.022a6.623,6.623,0,0,0-.875.085.449.449,0,0,0-.436.215.513.513,0,0,0,.092.536q.6.856,4.617.942a19.388,19.388,0,0,0,5.7-.493l-.046.6.023.321a3.521,3.521,0,0,0-1.976.708,2.782,2.782,0,0,0-1.057,1.221,2.435,2.435,0,0,0,.254,2.681,2.822,2.822,0,0,0,2.94.751,3.6,3.6,0,0,0,1.034-.451,4.788,4.788,0,0,0,1.195-.988,2.437,2.437,0,0,0,.644-1.37,2.306,2.306,0,0,0-.529-1.674,1.654,1.654,0,0,0-.482-.406,2.107,2.107,0,0,0-.527-.278l.161-.086a1.148,1.148,0,0,0,.665-.622,8.392,8.392,0,0,0,.229-2.467,3.368,3.368,0,0,0,1.1-.148.891.891,0,0,0,.552-.389.448.448,0,0,1,.16-.255.836.836,0,0,1,.185-.108c.076-.043.129-.071.161-.086l.183-.171q.343-.451-.275-.729a3.479,3.479,0,0,0-1.425-.236L91.1,9.832l-.254.022L90.8,9.6a10.243,10.243,0,0,0-.23-1.63,3.632,3.632,0,0,0-.758-1.737c-.339-.341-.637-.314-.9.088a1.939,1.939,0,0,0-.275,1.477,18.068,18.068,0,0,1,.16,2.747q-.022,1.008-.16,2.271a11.893,11.893,0,0,0-1.218-.129q-.691-.064-1.518-.063a1.615,1.615,0,0,0,.207-.173M89.721,17.4a2.316,2.316,0,0,1-.321.537,2.123,2.123,0,0,1-1.333.665q-.782.085-.828-.495a1.108,1.108,0,0,1,.367-.964,4.006,4.006,0,0,1,.874-.6l.229-.105a.87.87,0,0,0,.3.17,2.725,2.725,0,0,0,.276.043.7.7,0,0,1,.254.066.34.34,0,0,1,.183.169.605.605,0,0,1,0,.516" fill="#868787"/>
      <path id="패스_56" data-name="패스 56" d="M108.893,11.269q-.069-.857-.252-1.994a5.845,5.845,0,0,0-.5-1.309q-.415-.644-.828-.578c-.215.015-.344.087-.391.214a1.117,1.117,0,0,0-.045.516l.022.321a.494.494,0,0,1-.046.258,1.329,1.329,0,0,1-.184.129l-.024.023h-1.494a3.536,3.536,0,0,0-1.1-.988,3.9,3.9,0,0,0-1.517-.472.518.518,0,0,0-.458.149.328.328,0,0,0-.116.429,1.1,1.1,0,0,0,.3.367,3.248,3.248,0,0,0,.436.233c.123.072.215.13.277.172a1.515,1.515,0,0,1,.275.234,2.163,2.163,0,0,1,.6,1.395,2.347,2.347,0,0,1-.435,1.33,2.821,2.821,0,0,1-1.08.9,2.149,2.149,0,0,1-1.332.236,3.857,3.857,0,0,1-2.136-.965,1.725,1.725,0,0,1-.5-1.5,2.529,2.529,0,0,1,.848-1.52,3.836,3.836,0,0,1,1.884-1.033q.275-.083.392-.514a1.646,1.646,0,0,0,.068-.706,1.3,1.3,0,0,0-1.311-1.116,4.209,4.209,0,0,0-2.389.6A5.762,5.762,0,0,0,95.616,8.01a4.1,4.1,0,0,0-.713,2.98,4.543,4.543,0,0,0,1.239,2.639,5.418,5.418,0,0,0,2.275,1.351,7.365,7.365,0,0,0,2.505.343,4.842,4.842,0,0,0,1.931-.365,6.966,6.966,0,0,0,.919-.538,6.6,6.6,0,0,0,.71-.578,5.194,5.194,0,0,0,1.1.044c.383-.014.818-.044,1.309-.086l-.022.042a3.589,3.589,0,0,0-.024.364c-.03.144-.055.273-.069.387a1.128,1.128,0,0,0,.207.922.723.723,0,0,0,.666.193,1.043,1.043,0,0,0,.828-.558,3.864,3.864,0,0,0,.366-1.309,11.839,11.839,0,0,0,.046-2.572m.208,6.047-.023-.258a1.73,1.73,0,0,0-.185-.556,1.639,1.639,0,0,0-.552-.558,2.1,2.1,0,0,0-1.056-.236l-5.079.086a1.711,1.711,0,0,0-.595.085c-.184.072-.261.157-.231.257.062.472.536.785,1.426.945a19.451,19.451,0,0,0,2.687.128h.62q.161,0,.068.235a4.63,4.63,0,0,1-.3.622c-.168.3-.291.538-.367.709a1.793,1.793,0,0,0-.162.664,1.167,1.167,0,0,0,.208.537,1.558,1.558,0,0,0,.435.471.06.06,0,0,0,.068,0c.016,0,.047-.02.092-.063a.289.289,0,0,0,.07-.043c.016-.014.038-.014.069,0h.046a.535.535,0,0,0,.208.063.571.571,0,0,0,.16.043.472.472,0,0,1,.161-.106.336.336,0,0,1,.137-.022c.046-.013.091-.028.137-.044a1.762,1.762,0,0,0,.254-.15,5.149,5.149,0,0,0,1.125-1.479,5.464,5.464,0,0,0,.575-1.33m-3.538-5.147a3.192,3.192,0,0,0,.207-.837,4.856,4.856,0,0,0,.022-.792l.9-.064q.139,0,.185.621a9.167,9.167,0,0,1,.045,1.072Z" fill="#868787"/>
      <path id="패스_57" data-name="패스 57" d="M117.629,12.213a22.663,22.663,0,0,0-2.065-.986.221.221,0,0,0,.046-.107.235.235,0,0,0,.046-.087l.458-.986c.184-.342.314-.607.391-.792a6.32,6.32,0,0,0,.253-.86,1.211,1.211,0,0,0-.207-1.029.753.753,0,0,0-.782-.3,2.209,2.209,0,0,0-1.265.684,8.479,8.479,0,0,0-1.193,1.308,9.958,9.958,0,0,0-1.609,2.9,11.07,11.07,0,0,0-.552,2.637,8.6,8.6,0,0,0-.046,1.715c.076.643.3.944.665.9l.069.022a.555.555,0,0,0,.14.063.531.531,0,0,0,.229.043.289.289,0,0,0,.115-.021.414.414,0,0,0,.113-.043.233.233,0,0,1,.139,0,.254.254,0,0,1,.092.043.414.414,0,0,0,.091.065.642.642,0,0,0,.14-.023l.206-.085a.14.14,0,0,1,.092-.022.214.214,0,0,0,.092.043l.115.043a.576.576,0,0,1,.206-.106h.114c.307-.016.529-.245.667-.688a8.842,8.842,0,0,0,.231-1.415c.015-.228.03-.408.046-.536.031-.185.061-.342.091-.473l.092-.321a11.854,11.854,0,0,0,2.23,1.2,4.33,4.33,0,0,0,1.929.538,3.262,3.262,0,0,0,.323-.109c.059-.027.144-.072.25-.128l-.413,2.38c-.076.63-.016,1.015.184,1.157a.666.666,0,0,0,.6-.021h.068a.769.769,0,0,1,.3-.085,2.74,2.74,0,0,1,.3-.044l.415-.064a2.436,2.436,0,0,0,.437-.172,1.338,1.338,0,0,0,.3-.514q.114-.3.3-1.008a17.386,17.386,0,0,0,.253-4.847q-.186-3.386-1.2-4.5a1.189,1.189,0,0,0-.827-.258c-.367.029-.55.318-.55.86l.045,1.521q.024,1.866,0,3.516v.238a22.351,22.351,0,0,0-2.161-1.244" fill="#868787"/>
      <path id="패스_58" data-name="패스 58" d="M23.95,39.74a9.848,9.848,0,0,1,2.187-1.768c-.267-.821-1.456-4.589.85-.492a16.023,16.023,0,0,1,3.121-1.247c-.21-1.12-1.058-6.048,1.151-.288a16.163,16.163,0,0,1,2.517-.368c.006-.055.258-3.387.635-3.395.406,0,.7,3.289.709,3.327a23.712,23.712,0,0,1,2.414.061c.007-.067.613-2.788.945-2.773.325.052.259,2.818.267,2.9.587.066.934.123,1.559.232.569-1.141.444-3.711.506-5.5-.813-7.016-2.916-3.08-3.156-3.2-.4-.2-.294-.729-.624-1.434-.8-2.508-3.774-2.165-3.774-2.165-2.78.383-3.107,3.87-3.107,3.87-5.451-.839-1.715,3.666-4.232,3.452-8.078-.075-3.752,5.51-5.55,6.166-2.129.78-1.472,2.427.075,2.949s2.863.848,5.662-.466c3.432-2,4.091-1.837,7.206-1.237a6,6,0,0,0,5.835-1.308A21.164,21.164,0,0,0,23.95,39.74" fill="#868787"/>
      <path id="패스_59" data-name="패스 59" d="M25.621,29.666v-.061a1.093,1.093,0,0,0-.1.065.632.632,0,0,1,.1,0" fill="#868787"/>
      <path id="패스_60" data-name="패스 60" d="M25.621,29.606v-.214a7.5,7.5,0,0,1,.045-.974c-2.414,1.922-4.087,2.064-5.806,1.1-5.037-3.279-9.681-.956-11.909.155l-.865.4c-2.576.983-6.851.172-6.891.167L0,31.253c.183.032,4.6.874,7.426-.209l.982-.449c2.06-1.031,6.347-3.173,10.926-.193a5.629,5.629,0,0,0,1.574.608,6.913,6.913,0,0,1,4.617-1.338,1.093,1.093,0,0,1,.1-.065" fill="#868787"/>
      <path id="패스_61" data-name="패스 61" d="M19.987,31.911C14.874,28.586,10.061,31,8,32.025l-.853.4c-2.582.984-6.856.177-6.9.172L.059,33.6c.187.038,4.6.87,7.429-.211l.97-.443c2.061-1.032,6.35-3.178,10.937-.2a3.293,3.293,0,0,0,.364.24A3.85,3.85,0,0,1,20.121,32c-.043-.034-.093-.053-.133-.086" fill="#868787"/>
      <path id="패스_62" data-name="패스 62" d="M19.637,34.021c-4.96-2.943-9.58-.645-11.583.361l-.85.395c-2.573.982-6.848.181-6.892.167l-.194,1.01c.186.042,4.6.869,7.428-.205l.963-.441c2.065-1.038,6.355-3.185,10.947-.2.072.058.148.1.23.154-.025-.313-.055-.666-.055-1.043,0-.062,0-.124.006-.193" fill="#868787"/>
      <path id="패스_63" data-name="패스 63" d="M8.118,36.729l-.85.4c-2.581.98-6.854.174-6.894.164l-.2,1.015c.188.035,4.6.869,7.431-.2,0-.01.963-.449.963-.449,1.883-.944,5.623-2.8,9.749-.851a2.846,2.846,0,0,1,.97-.667c-4.8-2.59-9.227-.378-11.175.591" fill="#868787"/>
      <path id="패스_64" data-name="패스 64" d="M17.682,38.256a2.034,2.034,0,0,1,.078-.46c-4.169-1.41-7.854.423-9.585,1.289l-.847.393c-2.576.983-6.852.174-6.9.17l-.2,1.008c.191.037,4.605.876,7.436-.206,0-.006.959-.445.959-.445,1.782-.894,5.23-2.613,9.1-1.142a2.458,2.458,0,0,1-.049-.472,1.088,1.088,0,0,1,.006-.134" fill="#868787"/>
      <path id="패스_65" data-name="패스 65" d="M19.538.006A20.017,20.017,0,0,0,2.706,29.76a8.45,8.45,0,0,0,4.823-.723,15.351,15.351,0,0,1,7.137-1.881s2.271-.26,5.776,1.881c0,0,2.223,1.2,5.281-.954a2.383,2.383,0,0,1,.755-1.316A3.084,3.084,0,0,1,29.225,26c.1-.161.19-.33.19-.33.55-1.029.99-2.551,3.356-2.94a4.65,4.65,0,0,1,4.95,1.954,3.847,3.847,0,0,1,.393,1.471,5.548,5.548,0,0,0,.778.1l.028,0A20.014,20.014,0,0,0,19.538.006m8.681,15.257a6.627,6.627,0,0,0-6.144,1.278l4.181.071-1.229,1.263c-1.814-.752-3.566.371-4.4.817a.837.837,0,0,1-.736-.1,9.264,9.264,0,0,0-3.215-1.132c-.29-.05.042-.42.042-.42l1.046-.707c-.322-1.718-4.635-2.069-6.341-1.022a5.577,5.577,0,0,1-5.447.39c1.724-.022,4.1-3.258,6.389-3.724a7.093,7.093,0,0,1,6.807,3.032c.738.855,1.035,1.858,2.443.1s6.278-2.3,8.018-1.458a9.457,9.457,0,0,0,3.744.788,5,5,0,0,1-5.155.825" fill="#868787"/>
      <path id="패스_66" data-name="패스 66" d="M45.084,26.965a12.111,12.111,0,0,0,5.054.895s65.3-.088,73.083.137c0,0,2.595,0,3.551-.9,0,0,.957-1.008-3.824-2.241,0,0-35.107-5.628-69.668-.359,0,0-9.289,1.456-8.2,2.466" fill="#868787"/>
      <path id="패스_67" data-name="패스 67" d="M159.3,20.186a3.485,3.485,0,0,0-.876-.522l-1.564.086a16.982,16.982,0,0,0-3.327.307c-.855.121-1.574.159-2.267.3q-5.17.57-8.915.61a49.953,49.953,0,0,1-8.62-.741,1.818,1.818,0,0,0-.987.088.835.835,0,0,0-.494.695q-.1.74,1.577,1.607a13.64,13.64,0,0,0,2.759,1.089q1.479.3,3.3.565c1.115.119,2.332.218,3.646.3l.048,2.393a9.143,9.143,0,0,0-2.463,1.088A5.716,5.716,0,0,0,139.3,30.1a3.833,3.833,0,0,0-.493,3,4.513,4.513,0,0,0,1.725,2.391,7.839,7.839,0,0,0,3.2,1.3,10.21,10.21,0,0,0,4.089-.129,9.4,9.4,0,0,0,4.287-2.349q2.46-2.434.345-5.348a5.166,5.166,0,0,0-1.873-1.567,6.924,6.924,0,0,0-2.168-.737c.065-.318.131-.682.2-1.088a6.661,6.661,0,0,0,.1-1.131c1.017-.055,1.938-.145,2.758-.26a16.982,16.982,0,0,0,2.464-.478l1.872-.522c1.017-.23,1.755-.419,2.216-.522a3.77,3.77,0,0,0,1.676-.606c.822-1.051-.395-1.872-.395-1.872M149.347,31.4a1.444,1.444,0,0,1-.3,1,3.647,3.647,0,0,1-3.154,1.217c-1.444-.055-2.234-.478-2.363-1.26a1.583,1.583,0,0,1,.49-1.609,5.1,5.1,0,0,1,1.577-.869l.838-.35a2.341,2.341,0,0,0,.64.39,4.564,4.564,0,0,0,.739.175,5.689,5.689,0,0,1,.641.22,2.1,2.1,0,0,1,.542.348,1.235,1.235,0,0,1,.345.736" fill="#868787"/>
      <path id="패스_68" data-name="패스 68" d="M157.761,5.9a2.6,2.6,0,0,0-2.4-1.777,20.771,20.771,0,0,0-4.3-.1l-2.5.1h-5.012q-5.609,0-8.385-.146-3.269-.144-4.139.912-.764.963.817,2.164a8.756,8.756,0,0,0,2.288,1.105,17.528,17.528,0,0,0,3,.673,8.6,8.6,0,0,1-.818,2.545,26.487,26.487,0,0,1-1.253,2.406c-.327.576-.583,1.025-.76,1.347a8.538,8.538,0,0,0-.6,1.391q-.219,0-.381,1.25-.161,1.4.817,1.729a2.039,2.039,0,0,0,.437-.094c.145-.033.363-.1.652-.193l.328-.1a1.262,1.262,0,0,1,.49-.193,9.126,9.126,0,0,1,.925.1,4.476,4.476,0,0,0,3.486-.913,6.137,6.137,0,0,0,1.906-3.315l.053-.242q.708-1.826,1.525-2.066,1.364-.432,4.084,2.354l.546.579c.688.706,1.289,1.278,1.795,1.729a27.24,27.24,0,0,0,3,2.067,1.945,1.945,0,0,0,.762.287,1.408,1.408,0,0,0,1.036,0l.052-.141a.331.331,0,0,1,.273-.146,3.547,3.547,0,0,1,.71-.1,1.732,1.732,0,0,0,1.087-.531,1.414,1.414,0,0,0,.6-1.347q-.275-1.966-3.158-4.419a26.129,26.129,0,0,0-5.717-3.653l2.5-.049a12.933,12.933,0,0,0,3.43-.478,5.835,5.835,0,0,0,2.181-.914l.317-.334.335-.533a2,2,0,0,0,0-.96" fill="#868787"/>
      <path id="패스_69" data-name="패스 69" d="M190.962,19.5a3.824,3.824,0,0,0-.638-.256,4.4,4.4,0,0,0-1.417-.044l-4.943.129c1.271-2.071,2.253-3.789,2.937-5.138a21.96,21.96,0,0,0,2.151-6.177,3.483,3.483,0,0,0-1.664-3.586,6.986,6.986,0,0,0-4.452-.947q-2.887.214-8.466.256-.539.047-4.941.044a7.1,7.1,0,0,0-2.841.476,2.057,2.057,0,0,0-1.416,1.773q-.2,1.163,1.273,1.943a11.527,11.527,0,0,0,3.621.992q1.371.171,4.305.215c1.663,0,3.281-.014,4.845-.044.752-.057.994.4.738,1.383a17.784,17.784,0,0,1-1.179,2.593l-.294.6-.438.821a13.243,13.243,0,0,0-.929,2.161,5.647,5.647,0,0,0-.248,2.6.216.216,0,0,1-.019.058q-1.1.021-3.844.058-4.257.088-6.46-.088a6.8,6.8,0,0,0-2.4.13q-1.224.387-.783,1.423.538,1.387,4.162,2.031a30.857,30.857,0,0,0,5.676.389q.2,0,.195,1.816-.049,1.072-.195,3.41l.021,3.575a2.325,2.325,0,0,0,.444,1.768,1.855,1.855,0,0,0,2,.39,2.1,2.1,0,0,1,.587-.086c.1,0,.276.014.538.044l.783.042a2.731,2.731,0,0,0,1.371-.39,3.852,3.852,0,0,0,1.416-1.3,22.5,22.5,0,0,0,.467-4.436c.034-.634.049-1.553.049-2.761V24.3a1.77,1.77,0,0,1,.1-.735.266.266,0,0,1,.294-.215,37.787,37.787,0,0,0,4.256-.214,17.347,17.347,0,0,0,4.356-.777l.489-.216c.262-.116.459-.2.587-.259a2.031,2.031,0,0,0,.637-.346c.988-1.054-.732-2.033-.732-2.033" fill="#868787"/>
      <path id="패스_70" data-name="패스 70" d="M54.949,33.855V32.361a.642.642,0,0,0-.185-.494.722.722,0,0,0-.506-.164.854.854,0,0,0-.606.247.655.655,0,0,0-.241.481v1.424h-.345V30.582h.345v1.225a1.217,1.217,0,0,1,1.031-.411.878.878,0,0,1,.629.277.818.818,0,0,1,.228.576v1.606Z" fill="#868787"/>
      <path id="패스_71" data-name="패스 71" d="M57.47,31.738v1.524l-.005.017a.716.716,0,0,0,.01.148.192.192,0,0,0,.066.108.325.325,0,0,0,.161.048,1.321,1.321,0,0,0,.175.009v.264h-.326a.388.388,0,0,1-.2-.056.472.472,0,0,1-.137-.121.355.355,0,0,1-.075-.156,1,1,0,0,1-.02-.22V31.738h-.373v-.259h.373v-.745h.355v.745h.42v.259Z" fill="#868787"/>
      <path id="패스_72" data-name="패스 72" d="M59.968,31.738v1.524l0,.017a.8.8,0,0,0,.009.148.191.191,0,0,0,.066.108.325.325,0,0,0,.161.048,1.31,1.31,0,0,0,.175.009v.264h-.327a.39.39,0,0,1-.2-.056.476.476,0,0,1-.137-.121.372.372,0,0,1-.076-.156,1.047,1.047,0,0,1-.019-.22V31.738h-.374v-.259h.374v-.745h.355v.745h.421v.259Z" fill="#868787"/>
      <path id="패스_73" data-name="패스 73" d="M63.96,31.733a1.3,1.3,0,0,1,.317.91,1.254,1.254,0,0,1-.317.9,1.072,1.072,0,0,1-.832.342,1.188,1.188,0,0,1-.521-.111.92.92,0,0,1-.379-.33v1.12h-.345V31.479h.345v.355A.87.87,0,0,1,62.6,31.5a1.2,1.2,0,0,1,.521-.113,1.1,1.1,0,0,1,.837.346m-.284,1.6a1,1,0,0,0,.228-.692,1.03,1.03,0,0,0-.228-.7.758.758,0,0,0-.6-.263.77.77,0,0,0-.616.263,1.044,1.044,0,0,0-.227.7,1.007,1.007,0,0,0,.227.692.775.775,0,0,0,.616.26.754.754,0,0,0,.6-.26" fill="#868787"/>
      <path id="패스_74" data-name="패스 74" d="M65.719,31.162h.525v.45h-.525Zm0,1.844h.525v.451h-.525Z" fill="#868787"/>
      <path id="패스_75" data-name="패스 75" d="M67.91,34.279h-.341l1.566-3.843h.35Z" fill="#868787"/>
      <path id="패스_76" data-name="패스 76" d="M70.89,34.279h-.34l1.566-3.843h.35Z" fill="#868787"/>
      <path id="패스_77" data-name="패스 77" d="M76.344,33.855h-.383l-.629-1.87-.63,1.87h-.373l-.814-2.376h.364l.63,1.934.628-1.934h.388l.629,1.934.633-1.934h.36Z" fill="#868787"/>
      <path id="패스_78" data-name="패스 78" d="M81.027,33.855h-.383l-.629-1.87-.63,1.87h-.374L78.2,31.479h.363l.63,1.934.629-1.934h.388l.629,1.934.634-1.934h.36Z" fill="#868787"/>
      <path id="패스_79" data-name="패스 79" d="M85.71,33.855h-.383l-.629-1.87-.629,1.87H83.7l-.813-2.376h.364l.629,1.934.629-1.934h.388l.63,1.934.633-1.934h.36Z" fill="#868787"/>
      <rect id="사각형_31" data-name="사각형 31" width="0.539" height="0.476" transform="translate(87.806 33.578)" fill="#868787"/>
      <path id="패스_80" data-name="패스 80" d="M89.958,30.582h.407v.377h-.407Zm.029.9h.349v2.376h-.349Z" fill="#868787"/>
      <path id="패스_81" data-name="패스 81" d="M94.324,33.144a1.071,1.071,0,0,1-.383.545,1.277,1.277,0,0,1-.8.251,1.229,1.229,0,0,1-.932-.367,1.4,1.4,0,0,1,0-1.818,1.233,1.233,0,0,1,.932-.364,1.289,1.289,0,0,1,.823.269.954.954,0,0,1,.365.554h-.388a.716.716,0,0,0-.232-.355.856.856,0,0,0-.568-.181.841.841,0,0,0-.648.273,1.143,1.143,0,0,0,0,1.428.834.834,0,0,0,.648.278.894.894,0,0,0,.521-.151.685.685,0,0,0,.274-.36Z" fill="#868787"/>
      <path id="패스_82" data-name="패스 82" d="M96.254,34.005a1.048,1.048,0,0,1-.02.229.439.439,0,0,1-.075.165.432.432,0,0,1-.151.112.506.506,0,0,1-.222.047h-.332V34.3a1.828,1.828,0,0,0,.189-.009.429.429,0,0,0,.189-.047.239.239,0,0,0,.066-.108.739.739,0,0,0,.009-.147v-2.51h.345Zm-.378-3.423h.407v.377h-.407Z" fill="#868787"/>
      <path id="패스_83" data-name="패스 83" d="M100.185,33.574a.884.884,0,0,1-.35.744,1.287,1.287,0,0,1-.8.242,1.377,1.377,0,0,1-.78-.195.93.93,0,0,1-.346-.437h.341a.443.443,0,0,0,.231.242,1.19,1.19,0,0,0,.558.113.843.843,0,0,0,.588-.195.644.644,0,0,0,.212-.51V33.24a1.02,1.02,0,0,1-.383.334,1.176,1.176,0,0,1-1.34-.2,1.128,1.128,0,0,1-.316-.826,1.156,1.156,0,0,1,.313-.839,1.106,1.106,0,0,1,.822-.321,1.216,1.216,0,0,1,.52.109.92.92,0,0,1,.383.32v-.337h.35ZM99.6,33.18a.96.96,0,0,0,0-1.273.817.817,0,0,0-.605-.235.8.8,0,0,0-.605.235,1,1,0,0,0,0,1.273.806.806,0,0,0,.605.229.827.827,0,0,0,.605-.229" fill="#868787"/>
      <rect id="사각형_32" data-name="사각형 32" width="0.539" height="0.476" transform="translate(101.765 33.578)" fill="#868787"/>
      <path id="패스_84" data-name="패스 84" d="M106.141,33.574a.884.884,0,0,1-.35.744,1.287,1.287,0,0,1-.8.242,1.377,1.377,0,0,1-.781-.195.936.936,0,0,1-.345-.437h.341a.446.446,0,0,0,.232.242,1.192,1.192,0,0,0,.559.113.839.839,0,0,0,.586-.195.642.642,0,0,0,.213-.51V33.24a1.027,1.027,0,0,1-.384.334,1.115,1.115,0,0,1-.52.125,1.1,1.1,0,0,1-.819-.325,1.124,1.124,0,0,1-.317-.826,1.158,1.158,0,0,1,.313-.839,1.106,1.106,0,0,1,.823-.321,1.212,1.212,0,0,1,.52.109.926.926,0,0,1,.384.32v-.337h.35Zm-.587-.394a.96.96,0,0,0,0-1.273.817.817,0,0,0-.606-.235.8.8,0,0,0-.605.235,1,1,0,0,0,0,1.273.8.8,0,0,0,.605.229.827.827,0,0,0,.606-.229" fill="#868787"/>
      <path id="패스_85" data-name="패스 85" d="M109.821,31.756a1.25,1.25,0,0,1,.341.909,1.263,1.263,0,0,1-.341.909,1.366,1.366,0,0,1-1.864,0,1.4,1.4,0,0,1,0-1.818,1.374,1.374,0,0,1,1.864,0m-.28,1.618a1.129,1.129,0,0,0,0-1.42.909.909,0,0,0-1.305,0,1.148,1.148,0,0,0,0,1.42.9.9,0,0,0,1.305,0" fill="#868787"/>
      <rect id="사각형_33" data-name="사각형 33" width="0.538" height="0.476" transform="translate(111.595 33.578)" fill="#868787"/>
      <path id="패스_86" data-name="패스 86" d="M115.265,33.855l-1.2-1.208v1.208h-.344V30.582h.344v1.849l1.089-.953h.431l-1.2,1.047,1.348,1.329Z" fill="#868787"/>
      <path id="패스_87" data-name="패스 87" d="M118.453,31.721a2.17,2.17,0,0,0-.274.017.918.918,0,0,0-.284.078.861.861,0,0,0-.345.3.922.922,0,0,0-.118.489v1.247h-.345V31.479h.345V31.9a.9.9,0,0,1,.2-.234,1.05,1.05,0,0,1,.275-.165,1.065,1.065,0,0,1,.293-.086,1.726,1.726,0,0,1,.25-.022Z" fill="#868787"/>
    </g>
  </g>
</svg>
