<svg id="구성_요소_34_4" data-name="구성 요소 34 – 4" xmlns="http://www.w3.org/2000/svg" width="40" height="40" viewBox="0 0 40 40">
  <g id="그룹_3338" data-name="그룹 3338" transform="translate(-0.5 -0.5)">
    <path id="패스_2240" data-name="패스 2240" d="M20.5,40A19.5,19.5,0,1,1,40,20.5,19.523,19.523,0,0,1,20.5,40" fill="#8f0000"/>
    <path id="패스_2241" data-name="패스 2241" d="M20.5,1.5a19,19,0,1,1-19,19,19.021,19.021,0,0,1,19-19m0-1a20,20,0,1,0,20,20,20,20,0,0,0-20-20" fill="#8f0000"/>
    <path id="패스_2242" data-name="패스 2242" d="M30.06,13.1a4.569,4.569,0,0,0-6.953,0L20.5,16.009,17.893,13.1a4.569,4.569,0,0,0-6.953,0,5.928,5.928,0,0,0,0,7.746L20.5,31.5l9.56-10.65a5.928,5.928,0,0,0,0-7.746" fill="#ff4141"/>
    <path id="패스_2243" data-name="패스 2243" d="M30.06,13.1a4.569,4.569,0,0,0-6.953,0L20.5,16.009,17.893,13.1a4.569,4.569,0,0,0-6.953,0,5.928,5.928,0,0,0,0,7.746L20.5,31.5l9.56-10.65A5.928,5.928,0,0,0,30.06,13.1Z" fill="#fff"/>
  </g>
</svg>
