<svg id="그룹_1300" data-name="그룹 1300" xmlns="http://www.w3.org/2000/svg" xmlns:xlink="http://www.w3.org/1999/xlink" width="41" height="41" viewBox="0 0 41 41">
  <defs>
    <clipPath id="clip-path">
      <rect id="사각형_972" data-name="사각형 972" width="41" height="41" fill="none"/>
    </clipPath>
  </defs>
  <g id="그룹_1300-2" data-name="그룹 1300" clip-path="url(#clip-path)">
    <path id="패스_2240" data-name="패스 2240" d="M20.5,40A19.5,19.5,0,1,1,40,20.5,19.523,19.523,0,0,1,20.5,40" fill="#ccc"/>
    <path id="패스_2241" data-name="패스 2241" d="M20.5,1.5a19,19,0,1,1-19,19,19.021,19.021,0,0,1,19-19m0-1a20,20,0,1,0,20,20,20,20,0,0,0-20-20" fill="#ccc"/>
    <path id="패스_2242" data-name="패스 2242" d="M30.06,13.1a4.569,4.569,0,0,0-6.953,0L20.5,16.009,17.893,13.1a4.569,4.569,0,0,0-6.953,0,5.928,5.928,0,0,0,0,7.746L20.5,31.5l9.56-10.65a5.928,5.928,0,0,0,0-7.746" fill="#fff"/>
    <path id="패스_2243" data-name="패스 2243" d="M30.06,13.1a4.569,4.569,0,0,0-6.953,0L20.5,16.009,17.893,13.1a4.569,4.569,0,0,0-6.953,0,5.928,5.928,0,0,0,0,7.746L20.5,31.5l9.56-10.65A5.928,5.928,0,0,0,30.06,13.1Z" fill="none" stroke="#ccc" stroke-miterlimit="10" stroke-width="1"/>
  </g>
</svg>
