<?xml version="1.0" standalone="no"?>
<!DOCTYPE svg PUBLIC "-//W3C//DTD SVG 20010904//EN"
 "http://www.w3.org/TR/2001/REC-SVG-20010904/DTD/svg10.dtd">
<svg version="1.0" xmlns="http://www.w3.org/2000/svg"
 width="8192.000000pt" height="8192.000000pt" viewBox="0 0 8192.000000 8192.000000"
 preserveAspectRatio="xMidYMid meet">

<g transform="translate(0.000000,8192.000000) scale(0.100000,-0.100000)"
fill="#000000" stroke="none">
<path d="M9105 81913 c-38 -2 -164 -10 -279 -18 -1641 -122 -3207 -659 -4568
-1566 -578 -385 -1031 -761 -1528 -1265 -327 -332 -546 -587 -825 -958 -1142
-1522 -1794 -3324 -1895 -5241 -14 -263 -14 -63547 0 -63810 152 -2873 1548
-5479 3851 -7188 1508 -1118 3294 -1757 5194 -1857 263 -14 36237 -14 36500 0
2386 126 4579 1097 6255 2770 751 749 1335 1559 1804 2500 584 1173 905 2382
986 3710 6 108 10 2966 10 8243 l0 8077 -3410 0 -3410 0 -3 -8018 c-3 -7310
-5 -8026 -19 -8117 -56 -348 -133 -588 -279 -876 -411 -809 -1231 -1371 -2129
-1459 -84 -8 -4895 -10 -18125 -8 l-18010 3 -124 23 c-363 66 -655 172 -939
340 -747 443 -1236 1205 -1322 2058 -8 79 -10 8932 -8 31774 l3 31665 23 125
c53 293 132 531 259 783 141 279 299 492 534 722 406 397 880 637 1454 737
l130 23 18060 0 c15078 0 18075 -2 18150 -13 308 -47 556 -123 830 -257 600
-294 1080 -817 1328 -1445 77 -196 125 -383 164 -634 16 -104 18 -599 20
-8123 l3 -8013 3410 0 3410 0 0 8083 c0 5269 -4 8139 -10 8247 -22 366 -57
678 -116 1030 -500 3017 -2440 5627 -5189 6980 -1174 578 -2416 900 -3740 970
-169 9 -36242 12 -36450 3z"/>
<path d="M39042 54580 c-755 -49 -1454 -335 -2022 -826 -150 -130 -11358
-11336 -11447 -11445 -437 -537 -689 -1121 -780 -1804 -24 -181 -24 -618 0
-800 85 -642 317 -1201 712 -1715 73 -95 1098 -1125 5804 -5831 3561 -3561
5747 -5740 5799 -5780 474 -365 921 -575 1457 -684 255 -51 415 -67 680 -67
241 -1 369 9 573 43 987 164 1858 760 2372 1624 687 1154 626 2626 -153 3719
-45 63 -120 161 -166 218 -51 62 -1145 1164 -2760 2780 l-2676 2678 21165 3
c16711 2 21185 6 21260 15 708 92 1270 325 1790 741 121 97 360 329 458 446
437 519 698 1116 788 1801 22 163 25 619 6 774 -73 590 -250 1075 -563 1542
-463 691 -1185 1200 -1986 1402 -145 36 -243 55 -438 84 -102 15 -1721 17
-21299 22 l-21189 5 2674 2670 c1500 1497 2713 2716 2762 2775 633 762 909
1731 768 2695 -147 1001 -721 1876 -1579 2409 -593 369 -1315 551 -2010 506z"/>
</g>
</svg>
