<svg id="그룹_1184" data-name="그룹 1184" xmlns="http://www.w3.org/2000/svg" xmlns:xlink="http://www.w3.org/1999/xlink" width="16.556" height="15" viewBox="0 0 16.556 15">
  <defs>
    <clipPath id="clip-path">
      <rect id="사각형_843" data-name="사각형 843" width="16.556" height="15" transform="translate(0 0)" fill="none"/>
    </clipPath>
  </defs>
  <g id="그룹_1183" data-name="그룹 1183" transform="translate(0 0)" clip-path="url(#clip-path)">
    <path id="패스_1921" data-name="패스 1921" d="M1.345,1.344H4.037V0H0V4.035H1.345Zm0,9.617H0V15H4.037V13.654H1.345Zm7.549,2.27a.709.709,0,0,0-.785.621,2.81,2.81,0,0,1-.418,1.018c-.028.043-.06.087-.092.13H9.223a3.754,3.754,0,0,0,.292-.983.708.708,0,0,0-.621-.786M7.672,9.649a3.7,3.7,0,0,1,.936-2.537A.708.708,0,0,0,7.524,6.2h0A5.137,5.137,0,0,0,6.256,9.649c0,.978.2,1.806.192,2.4a1.426,1.426,0,0,1-.21.847,2.212,2.212,0,0,1-1.068.726.708.708,0,1,0,.524,1.315,3.583,3.583,0,0,0,1.715-1.245,2.834,2.834,0,0,0,.455-1.643c-.007-.838-.2-1.621-.191-2.4m3.4-4.92a4.488,4.488,0,0,0-1.218.17.708.708,0,1,0,.382,1.363,3.085,3.085,0,0,1,.836-.117,5.15,5.15,0,0,1,3.154,1.46c.789.652,1.552,1.433,2.326,2.127V7.8c-.451-.426-.924-.868-1.423-1.283a6.49,6.49,0,0,0-4.057-1.786m5.48-.215V0H12.518V1.344h2.693v2.18a8.25,8.25,0,0,0-4.222-1.216A7.015,7.015,0,0,0,6.9,3.607,7.252,7.252,0,0,0,3.777,9.936a15.141,15.141,0,0,0,.164,2.121.708.708,0,1,0,1.4-.2,13.593,13.593,0,0,1-.15-1.922A5.811,5.811,0,0,1,7.718,4.764a5.589,5.589,0,0,1,3.27-1.04,7.073,7.073,0,0,1,4.6,1.825c.313.277.639.55.969.822V4.515h0M12.562,10.56a.708.708,0,0,0-1.116.871A25.2,25.2,0,0,0,13.806,14a14.638,14.638,0,0,0,1.186,1h1.563v-.654c-.078-.044-.158-.091-.239-.144a19.31,19.31,0,0,1-3.755-3.64m1.565-1.685a7.772,7.772,0,0,0-1.692-1.347,3.149,3.149,0,0,0-1.288-.3A2.229,2.229,0,0,0,9.3,8.188a3.394,3.394,0,0,0-.572,1.965,4.44,4.44,0,0,0,.152,1.139A10.172,10.172,0,0,0,11.2,15h2c-.063-.058-.127-.115-.189-.174a10.312,10.312,0,0,1-2.761-3.9,3,3,0,0,1-.1-.772,2,2,0,0,1,.309-1.144.8.8,0,0,1,.7-.367,1.751,1.751,0,0,1,.709.177,7.952,7.952,0,0,1,1.3,1.084c.631.6,1.385,1.345,2.15,2.058.428.4.864.744,1.251,1.053V11.185c-.1-.084-.193-.169-.286-.258-.744-.693-1.491-1.437-2.143-2.052" transform="translate(0 0.001)" fill="#fff"/>
  </g>
</svg>
