<?xml version="1.0" standalone="no"?>
<!DOCTYPE svg PUBLIC "-//W3C//DTD SVG 20010904//EN"
 "http://www.w3.org/TR/2001/REC-SVG-20010904/DTD/svg10.dtd">
<svg version="1.0" xmlns="http://www.w3.org/2000/svg"
 width="8192.000000pt" height="8192.000000pt" viewBox="0 0 8192.000000 8192.000000"
 preserveAspectRatio="xMidYMid meet">

<g transform="translate(0.000000,8192.000000) scale(0.100000,-0.100000)"
fill="#000000" stroke="none">
<path d="M9105 81913 c-38 -2 -164 -10 -279 -18 -1641 -122 -3207 -659 -4568
-1566 -578 -385 -1031 -761 -1528 -1265 -327 -332 -546 -587 -825 -958 -1142
-1522 -1794 -3324 -1895 -5241 -14 -263 -14 -63547 0 -63810 152 -2873 1548
-5479 3851 -7188 1508 -1118 3294 -1757 5194 -1857 263 -14 36237 -14 36500 0
2386 126 4579 1097 6255 2770 751 749 1335 1559 1804 2500 584 1173 905 2382
986 3710 6 108 10 2966 10 8243 l0 8077 -3410 0 -3410 0 -3 -8018 c-3 -7310
-5 -8026 -19 -8117 -56 -348 -133 -588 -279 -876 -411 -809 -1231 -1371 -2129
-1459 -84 -8 -4895 -10 -18125 -8 l-18010 3 -124 23 c-363 66 -655 172 -939
340 -747 443 -1236 1205 -1322 2058 -8 79 -10 8932 -8 31774 l3 31665 23 125
c53 293 132 531 259 783 141 279 299 492 534 722 406 397 880 637 1454 737
l130 23 18060 0 c15078 0 18075 -2 18150 -13 308 -47 556 -123 830 -257 600
-294 1080 -817 1328 -1445 77 -196 125 -383 164 -634 16 -104 18 -599 20
-8123 l3 -8013 3410 0 3410 0 0 8083 c0 5269 -4 8139 -10 8247 -22 366 -57
678 -116 1030 -500 3017 -2440 5627 -5189 6980 -1174 578 -2416 900 -3740 970
-169 9 -36242 12 -36450 3z"/>
<path d="M67295 54583 c-636 -30 -1228 -222 -1745 -566 -860 -572 -1400 -1471
-1511 -2512 -17 -164 -15 -543 5 -710 79 -661 321 -1242 730 -1760 53 -67 966
-987 2785 -2807 l2706 -2708 -21190 -3 c-20099 -2 -21196 -4 -21309 -20 -483
-71 -865 -196 -1241 -407 -887 -496 -1505 -1351 -1694 -2342 -85 -442 -78
-938 19 -1378 116 -529 368 -1039 721 -1460 300 -358 679 -654 1104 -865 412
-203 829 -314 1300 -345 110 -7 6729 -10 21225 -10 l21065 0 -2706 -2707
c-1732 -1734 -2733 -2742 -2781 -2803 -414 -523 -654 -1102 -734 -1765 -20
-167 -22 -546 -5 -710 86 -808 422 -1518 985 -2081 563 -562 1278 -901 2081
-985 165 -17 544 -14 710 5 663 80 1242 320 1765 734 131 104 11478 11451
11582 11582 406 513 648 1088 735 1745 21 164 24 609 5 765 -89 709 -338 1289
-790 1845 -70 86 -7528 7552 -9962 9973 -861 857 -1515 1499 -1570 1544 -570
454 -1224 704 -1960 748 -158 9 -191 10 -325 3z"/>
</g>
</svg>
