<svg xmlns="http://www.w3.org/2000/svg" xmlns:xlink="http://www.w3.org/1999/xlink" width="24" height="24" viewBox="0 0 24 24">
  <defs>
    <clipPath id="clip-path">
      <rect id="사각형_275" data-name="사각형 275" width="24" height="24" transform="translate(0.372 0.372)" fill="none"/>
    </clipPath>
  </defs>
  <g id="그룹_653" data-name="그룹 653" transform="translate(-0.372 -0.372)" clip-path="url(#clip-path)">
    <g id="그룹_2349" data-name="그룹 2349" transform="translate(1.409 1.436)">
      <g id="그룹_2350" data-name="그룹 2350">
        <path id="패스_2420" data-name="패스 2420" d="M22.4,11.45A10.95,10.95,0,1,1,11.45.5,10.951,10.951,0,0,1,22.4,11.45" transform="translate(-0.5 -0.5)" fill="#fff" stroke="#2d2d2d" stroke-width="1"/>
        <path id="패스_2422" data-name="패스 2422" d="M10.95,0a11.074,11.074,0,0,1,8.684,4.279A10.7,10.7,0,0,1,21.9,10.95,10.95,10.95,0,1,1,10.95,0Z" fill="none" stroke="#2d2d2d" stroke-width="2"/>
        <circle id="타원_40" data-name="타원 40" cx="3.783" cy="3.783" r="3.783" transform="translate(7.136 4.852)" fill="none" stroke="#2d2d2d" stroke-linejoin="round" stroke-width="2"/>
        <path id="패스_2421" data-name="패스 2421" d="M19.307,20.656a8.469,8.469,0,0,0-1.291-1.923,8.4,8.4,0,0,0-12.271-.3,8.508,8.508,0,0,0-1.57,2.221" transform="translate(-0.822 -1.849)" fill="none" stroke="#2d2d2d" stroke-linejoin="round" stroke-width="2"/>
      </g>
    </g>
  </g>
</svg>
