<svg xmlns="http://www.w3.org/2000/svg" width="20" height="20.002" viewBox="0 0 20 20.002">
  <path id="빼기_1" data-name="빼기 1" d="M52.273,31.072a10,10,0,0,1-10-9.812c.16-.138.324-.27.488-.394A7.72,7.72,0,0,1,47.3,19.192c.063,0,.126,0,.188,0a5.556,5.556,0,0,1,4.341,2.444,10.022,10.022,0,0,0,4.236,3.342,9.387,9.387,0,0,0,3.556.684,10,10,0,0,0,1.256-.08c.114-.014.229-.031.344-.05a10,10,0,0,1-8.952,5.536ZM59.6,22.334h0a6.185,6.185,0,0,1-5.1-2.7,8.852,8.852,0,0,0-6.891-3.77c-.1,0-.2,0-.3,0a10.139,10.139,0,0,0-4.049.878,10,10,0,0,1,19.016,4.334c0,.249-.009.5-.028.748a7.525,7.525,0,0,1-1.787.459A6.855,6.855,0,0,1,59.6,22.334Z" transform="translate(-42.274 -11.07)" fill="#005ab4"/>
</svg>
