<svg id="그룹_1291" data-name="그룹 1291" xmlns="http://www.w3.org/2000/svg" xmlns:xlink="http://www.w3.org/1999/xlink" width="40" height="40" viewBox="0 0 40 40">
  <defs>
    <clipPath id="clip-path">
      <rect id="사각형_971" data-name="사각형 971" width="40" height="40" fill="none"/>
    </clipPath>
  </defs>
  <g id="그룹_1290" data-name="그룹 1290" clip-path="url(#clip-path)">
    <path id="패스_2237" data-name="패스 2237" d="M20,0A20,20,0,1,0,40,20,20,20,0,0,0,20,0" fill="#ffe900"/>
    <path id="패스_2238" data-name="패스 2238" d="M13.976,14.086,13.3,16.2h1.347l-.654-2.114Z" transform="translate(3.324 3.522)" fill="#3b1d1d"/>
    <path id="패스_2239" data-name="패스 2239" d="M18,8.612c-5.522,0-10,3.535-10,7.9,0,2.805,1.855,5.263,4.64,6.669L11.7,26.7a.29.29,0,0,0,.071.3.281.281,0,0,0,.2.084.287.287,0,0,0,.174-.066L16.2,24.278a12.751,12.751,0,0,0,1.8.131c5.523,0,10-3.535,10-7.9s-4.479-7.9-10-7.9m-5.341,10.4a.6.6,0,0,1-.157.435.554.554,0,0,1-.421.162.589.589,0,0,1-.369-.117.548.548,0,0,1-.194-.326.622.622,0,0,1-.009-.154v-3.75H10.421a.728.728,0,0,1-.388-.1.425.425,0,0,1-.2-.292c-.006-.033-.013-.071-.016-.111a.439.439,0,0,1,.171-.37.677.677,0,0,1,.427-.134h3.328a.7.7,0,0,1,.385.1.429.429,0,0,1,.2.292.611.611,0,0,1,.007.109.455.455,0,0,1-.166.375.672.672,0,0,1-.426.131H12.66Zm4.756.445a.523.523,0,0,1-.382.152.491.491,0,0,1-.517-.327l-.3-.878H14.362l-.3.878a.48.48,0,0,1-.516.327.533.533,0,0,1-.34-.1.48.48,0,0,1-.176-.3.631.631,0,0,1-.01-.122.646.646,0,0,1,.031-.212,2.571,2.571,0,0,1,.078-.247l1.489-4.1a.52.52,0,0,1,.21-.281.663.663,0,0,1,.352-.084h.276a.714.714,0,0,1,.376.091.6.6,0,0,1,.239.347l1.39,4.029a2.462,2.462,0,0,1,.094.321,1.262,1.262,0,0,1,.02.139.507.507,0,0,1-.163.371m3.846-.073a.68.68,0,0,1-.429.133h-2.4A.757.757,0,0,1,18,19.4a.529.529,0,0,1-.218-.355,1.428,1.428,0,0,1-.025-.236V14.752a.6.6,0,0,1,.158-.434.555.555,0,0,1,.422-.164.566.566,0,0,1,.369.12.551.551,0,0,1,.192.325.567.567,0,0,1,.01.153V18.5h1.924a.7.7,0,0,1,.389.1.438.438,0,0,1,.195.294.706.706,0,0,1,.018.109.443.443,0,0,1-.17.372m4.325.091a.671.671,0,0,1-.419.134.591.591,0,0,1-.288-.061.785.785,0,0,1-.226-.251l-1.326-2.136-.633.659.006,1.193a.613.613,0,0,1-.157.435.56.56,0,0,1-.423.162.584.584,0,0,1-.369-.117.542.542,0,0,1-.194-.326.687.687,0,0,1-.01-.154l0-4.256a.614.614,0,0,1,.157-.434.554.554,0,0,1,.421-.164.566.566,0,0,1,.369.12.533.533,0,0,1,.192.325.624.624,0,0,1,.012.153l0,1.744,1.809-2.079a1.346,1.346,0,0,1,.219-.2.438.438,0,0,1,.24-.064.59.59,0,0,1,.345.106.431.431,0,0,1,.191.281l.009.044a.209.209,0,0,0,0,.05.471.471,0,0,1-.052.219,1.148,1.148,0,0,1-.137.193l-1.183,1.291,1.4,2.216.042.068a1.191,1.191,0,0,1,.165.335l.009.035a.174.174,0,0,0,0,.037.526.526,0,0,1-.172.443" transform="translate(2 2.153)" fill="#3b1d1d"/>
  </g>
</svg>
