<svg xmlns="http://www.w3.org/2000/svg" xmlns:xlink="http://www.w3.org/1999/xlink" width="76.521" height="88.089" viewBox="0 0 76.521 88.089">
  <defs>
    <clipPath id="clip-path">
      <rect id="사각형_64" data-name="사각형 64" width="76.521" height="88.089" fill="none"/>
    </clipPath>
    <clipPath id="clip-path-2">
      <rect id="사각형_63" data-name="사각형 63" width="76.521" height="88.089" transform="translate(0 0)" fill="none"/>
    </clipPath>
    <clipPath id="clip-path-3">
      <rect id="사각형_59" data-name="사각형 59" width="26.593" height="19.71" transform="translate(21.64 39.058)" fill="none"/>
    </clipPath>
  </defs>
  <g id="그룹_86" data-name="그룹 86" clip-path="url(#clip-path)">
    <g id="그룹_85" data-name="그룹 85">
      <g id="그룹_84" data-name="그룹 84" clip-path="url(#clip-path-2)">
        <g id="그룹_83" data-name="그룹 83" opacity="0.2">
          <g id="그룹_82" data-name="그룹 82">
            <g id="그룹_81" data-name="그룹 81" clip-path="url(#clip-path-3)">
              <path id="패스_171" data-name="패스 171" d="M21.64,40.721A1.665,1.665,0,0,1,23.3,39.059H46.571a1.665,1.665,0,0,1,1.662,1.662v12.6c0,1.662-3.374,3.64-5.036,3.507-4.4-.349-11.186.765-19.679,1.928a1.661,1.661,0,0,1-1.878-1.645Z" fill="#05f"/>
            </g>
          </g>
        </g>
        <path id="패스_172" data-name="패스 172" d="M48.233,37.4A14.959,14.959,0,1,1,33.275,52.354,14.959,14.959,0,0,1,48.233,37.4" fill="#fff"/>
        <path id="패스_173" data-name="패스 173" d="M33.275,59.285H21.641a5.824,5.824,0,0,1-5.818-5.817V27.424a.83.83,0,0,1,.831-.831h12.98a4.139,4.139,0,0,1,3.2,1.509l3.107,3.753h20.6a.83.83,0,0,1,.831.831v5.541a.831.831,0,0,1-1.662,0v-4.71H35.551a.829.829,0,0,1-.64-.3l-3.356-4.053a2.484,2.484,0,0,0-1.921-.907H17.486V53.468a4.159,4.159,0,0,0,4.155,4.155H33.275a.831.831,0,0,1,0,1.662" fill="#04c"/>
        <path id="패스_174" data-name="패스 174" d="M29.12,32.963h-7.2a.831.831,0,1,1,0-1.662h7.2a.831.831,0,0,1,0,1.662" fill="#04c"/>
        <path id="패스_175" data-name="패스 175" d="M38.261,88.089a.821.821,0,0,1-.415-.112L.415,66.37A.83.83,0,0,1,0,65.651V22.438a.831.831,0,0,1,.415-.719L37.846.112a.828.828,0,0,1,.831,0L76.105,21.719a.83.83,0,0,1,.416.719V65.651a.829.829,0,0,1-.416.719L38.677,87.977a.825.825,0,0,1-.416.112M1.662,65.171,38.261,86.3l36.6-21.128V22.919L38.261,1.791,1.662,22.919Z" fill="#04c"/>
        <path id="패스_176" data-name="패스 176" d="M34.471,52.554a.831.831,0,1,0,1.662-.033Zm2.775,5.469a.826.826,0,0,0-1.013.6l-1.928,7.213a.856.856,0,0,0,.581,1.031.828.828,0,0,0,1.014-.6l1.729-6.415,6.415,1.712a.835.835,0,0,0,.432-1.612ZM56.992,60.7a12.1,12.1,0,0,1-17.1.416l-1.147,1.213a13.777,13.777,0,0,0,19.463-.482ZM39.473,44.008a12.1,12.1,0,0,1,17.1-.414l1.147-1.2a13.769,13.769,0,0,0-19.463.47Zm17.1-.414a12.1,12.1,0,0,1,.416,17.1l1.213,1.147a13.768,13.768,0,0,0-.482-19.454ZM36.133,52.521a12.022,12.022,0,0,1,3.34-8.513L38.26,42.861a13.765,13.765,0,0,0-3.789,9.693Zm3.756,8.593A11.328,11.328,0,0,1,37.762,58.4l-1.446.848a14.129,14.129,0,0,0,2.426,3.074Z" fill="#04c"/>
        <rect id="사각형_60" data-name="사각형 60" width="1.662" height="3.324" transform="translate(47.252 39.023)" fill="#04c"/>
        <rect id="사각형_61" data-name="사각형 61" width="1.662" height="3.324" transform="translate(47.252 62.66)" fill="#04c"/>
        <rect id="사각형_62" data-name="사각형 62" width="3.324" height="1.662" transform="translate(58.055 51.488)" fill="#04c"/>
        <path id="패스_177" data-name="패스 177" d="M48.083,54.914a.839.839,0,0,1-.568-.224l-5.168-4.829a.831.831,0,1,1,1.136-1.214l4.491,4.2,6.093-8.118a.83.83,0,0,1,1.328,1l-6.648,8.857a.826.826,0,0,1-.591.33l-.073,0" fill="#ff6b00"/>
        <path id="패스_178" data-name="패스 178" d="M48.233,51.69a1.662,1.662,0,1,1-1.662,1.662,1.662,1.662,0,0,1,1.662-1.662" fill="#fff"/>
        <path id="패스_179" data-name="패스 179" d="M48.234,55.846a2.493,2.493,0,1,1,2.493-2.493,2.5,2.5,0,0,1-2.493,2.493m0-3.324a.831.831,0,1,0,.831.831.832.832,0,0,0-.831-.831" fill="#ff6b00"/>
      </g>
    </g>
  </g>
</svg>
