<svg xmlns="http://www.w3.org/2000/svg" xmlns:xlink="http://www.w3.org/1999/xlink" width="76.511" height="88.089" viewBox="0 0 76.511 88.089">
  <defs>
    <clipPath id="clip-path">
      <rect id="사각형_54" data-name="사각형 54" width="76.511" height="88.089" fill="none"/>
    </clipPath>
    <clipPath id="clip-path-2">
      <rect id="사각형_53" data-name="사각형 53" width="76.511" height="88.089" transform="translate(0 0)" fill="none"/>
    </clipPath>
    <clipPath id="clip-path-3">
      <rect id="사각형_51" data-name="사각형 51" width="26.593" height="19.945" transform="translate(21.635 37.396)" fill="none"/>
    </clipPath>
    <clipPath id="clip-path-4">
      <rect id="사각형_52" data-name="사각형 52" width="12.743" height="12.743" transform="translate(41.856 44.322)" fill="none"/>
    </clipPath>
  </defs>
  <g id="그룹_69" data-name="그룹 69" clip-path="url(#clip-path)">
    <g id="그룹_68" data-name="그룹 68">
      <g id="그룹_67" data-name="그룹 67" clip-path="url(#clip-path-2)">
        <g id="그룹_63" data-name="그룹 63" opacity="0.2">
          <g id="그룹_62" data-name="그룹 62">
            <g id="그룹_61" data-name="그룹 61" clip-path="url(#clip-path-3)">
              <path id="패스_155" data-name="패스 155" d="M23.3,37.4H46.566a1.663,1.663,0,0,1,1.662,1.663V55.68a1.662,1.662,0,0,1-1.662,1.661H23.3a1.662,1.662,0,0,1-1.662-1.661V39.059A1.663,1.663,0,0,1,23.3,37.4" fill="#05f"/>
            </g>
          </g>
        </g>
        <path id="패스_156" data-name="패스 156" d="M49.059,39.058A14.128,14.128,0,1,1,34.932,53.186,14.127,14.127,0,0,1,49.059,39.058" fill="#fff"/>
        <path id="패스_157" data-name="패스 157" d="M33.269,57.623H21.635a5.824,5.824,0,0,1-5.818-5.817V25.762a.83.83,0,0,1,.831-.831H31.293a4.145,4.145,0,0,1,3.2,1.509l3.1,3.753h18.94a.83.83,0,0,1,.831.831v5.541a.831.831,0,1,1-1.662,0v-4.71h-18.5a.832.832,0,0,1-.641-.3L33.215,27.5a2.483,2.483,0,0,0-1.922-.9H17.48V51.806a4.159,4.159,0,0,0,4.155,4.155H33.269a.831.831,0,0,1,0,1.662" fill="#04c"/>
        <path id="패스_158" data-name="패스 158" d="M29.114,31.3h-7.2a.831.831,0,1,1,0-1.662h7.2a.831.831,0,0,1,0,1.662" fill="#04c"/>
        <path id="패스_159" data-name="패스 159" d="M38.256,88.089a.822.822,0,0,1-.416-.112L.415,66.37A.828.828,0,0,1,0,65.651V22.438a.829.829,0,0,1,.415-.719L37.84.112a.828.828,0,0,1,.831,0L76.1,21.719a.829.829,0,0,1,.415.719V65.651a.828.828,0,0,1-.415.719L38.671,87.977a.821.821,0,0,1-.415.112M1.662,65.171,38.256,86.3,74.849,65.171V22.919L38.256,1.791,1.662,22.919Z" fill="#04c"/>
        <path id="패스_160" data-name="패스 160" d="M48.252,63.983c-.37,0-.741-.015-1.112-.047A13.32,13.32,0,1,1,53.974,38.6a.831.831,0,1,1-.7,1.506,11.638,11.638,0,1,0,6.314,13.478,11.565,11.565,0,0,0-.156-6.467.831.831,0,0,1,1.584-.5,13.224,13.224,0,0,1,.179,7.4,13.394,13.394,0,0,1-12.94,9.969" fill="#04c"/>
        <path id="패스_161" data-name="패스 161" d="M48.239,41.141a.831.831,0,0,1-.831-.831V36.152a.831.831,0,1,1,1.662,0V40.31a.831.831,0,0,1-.831.831" fill="#04c"/>
        <path id="패스_162" data-name="패스 162" d="M48.239,66.083a.831.831,0,0,1-.831-.831V61.1a.831.831,0,1,1,1.662,0v4.155a.831.831,0,0,1-.831.831" fill="#04c"/>
        <path id="패스_163" data-name="패스 163" d="M62.793,51.54H58.635a.831.831,0,0,1,0-1.662h4.158a.831.831,0,1,1,0,1.662" fill="#04c"/>
        <path id="패스_164" data-name="패스 164" d="M37.845,51.54H33.687a.831.831,0,1,1,0-1.662h4.158a.831.831,0,0,1,0,1.662" fill="#04c"/>
        <g id="그룹_66" data-name="그룹 66" opacity="0.8">
          <g id="그룹_65" data-name="그룹 65">
            <g id="그룹_64" data-name="그룹 64" clip-path="url(#clip-path-4)">
              <path id="패스_165" data-name="패스 165" d="M48.228,57.065A6.372,6.372,0,1,1,54.6,50.693a6.378,6.378,0,0,1-6.371,6.372m0-11.081a4.709,4.709,0,1,0,4.709,4.709,4.714,4.714,0,0,0-4.709-4.709" fill="#ff6b00"/>
            </g>
          </g>
        </g>
      </g>
    </g>
  </g>
</svg>
