<svg xmlns="http://www.w3.org/2000/svg" xmlns:xlink="http://www.w3.org/1999/xlink" width="76.511" height="88.089" viewBox="0 0 76.511 88.089">
  <defs>
    <clipPath id="clip-path">
      <rect id="사각형_73" data-name="사각형 73" width="76.511" height="88.089" fill="none"/>
    </clipPath>
    <clipPath id="clip-path-2">
      <rect id="사각형_72" data-name="사각형 72" width="76.511" height="88.089" transform="translate(0 0)" fill="none"/>
    </clipPath>
    <clipPath id="clip-path-3">
      <rect id="사각형_69" data-name="사각형 69" width="16.365" height="15.342" transform="translate(14.605 24.1)" fill="none"/>
    </clipPath>
    <clipPath id="clip-path-4">
      <rect id="사각형_70" data-name="사각형 70" width="26.593" height="16.861" transform="translate(10.001 40.995)" fill="none"/>
    </clipPath>
    <clipPath id="clip-path-5">
      <rect id="사각형_71" data-name="사각형 71" width="41.552" height="12.241" transform="translate(9.17 57.038)" fill="none"/>
    </clipPath>
  </defs>
  <g id="그룹_109" data-name="그룹 109" clip-path="url(#clip-path)">
    <g id="그룹_108" data-name="그룹 108">
      <g id="그룹_107" data-name="그룹 107" clip-path="url(#clip-path-2)">
        <path id="패스_187" data-name="패스 187" d="M38.256,88.089a.822.822,0,0,1-.416-.112L.415,66.37A.828.828,0,0,1,0,65.651V22.438a.829.829,0,0,1,.415-.719L37.84.112a.828.828,0,0,1,.831,0L76.1,21.719a.829.829,0,0,1,.415.719V65.651a.828.828,0,0,1-.415.719L38.671,87.977a.821.821,0,0,1-.415.112M1.662,65.171,38.256,86.3,74.849,65.171V22.919L38.256,1.791,1.662,22.919Z" fill="#04c"/>
        <g id="그룹_100" data-name="그룹 100" opacity="0.2">
          <g id="그룹_99" data-name="그룹 99">
            <g id="그룹_98" data-name="그룹 98" clip-path="url(#clip-path-3)">
              <path id="패스_188" data-name="패스 188" d="M16.047,30.838a6.739,6.739,0,0,1,13.478,0v1.017a1.939,1.939,0,0,1,1.444,1.833,1.984,1.984,0,0,1-2.046,1.918H28.87a6.741,6.741,0,0,1-12.166,0h-.055A1.984,1.984,0,0,1,14.6,33.688a1.938,1.938,0,0,1,1.443-1.833Z" fill="#05f" fill-rule="evenodd"/>
            </g>
          </g>
        </g>
        <path id="패스_189" data-name="패스 189" d="M22.787,40.274a7.612,7.612,0,0,1-6.61-3.881,2.789,2.789,0,0,1-2.4-2.7A2.713,2.713,0,0,1,15.217,31.3v-.464a7.57,7.57,0,1,1,15.139,0V31.3A2.713,2.713,0,0,1,31.8,33.689,2.793,2.793,0,0,1,29.394,36.4a7.614,7.614,0,0,1-6.607,3.874m0-15.343a5.915,5.915,0,0,0-5.908,5.908V32.48l-.6.174a1.1,1.1,0,0,0-.843,1.035,1.157,1.157,0,0,0,1.213,1.086h.525l.28.472a5.908,5.908,0,0,0,10.666,0l.227-.472h.523a1.175,1.175,0,0,0,1.269-1.086,1.1,1.1,0,0,0-.845-1.035l-.6-.174V30.839a5.914,5.914,0,0,0-5.907-5.908" fill="#04c"/>
        <g id="그룹_103" data-name="그룹 103" opacity="0.2">
          <g id="그룹_102" data-name="그룹 102">
            <g id="그룹_101" data-name="그룹 101" clip-path="url(#clip-path-4)">
              <path id="패스_190" data-name="패스 190" d="M10.587,47.585l-.075,1.064L10,57.856H36.593v-1.03l-.512-8.161-.018-.315a7.814,7.814,0,0,0-10.474-6.86l-.265.095a7.07,7.07,0,0,1-5.049-.078,7.079,7.079,0,0,0-9.688,6.078" fill="#05f"/>
            </g>
          </g>
        </g>
        <path id="패스_191" data-name="패스 191" d="M36.594,58.688H10a.829.829,0,0,1-.829-.876l.587-10.286a7.908,7.908,0,0,1,10.825-6.789,6.256,6.256,0,0,0,4.458.068l.264-.1A8.645,8.645,0,0,1,36.893,48.3l.532,9.558a.831.831,0,0,1-.831.831M10.88,57.026H35.763v-.2l-.528-8.43a6.985,6.985,0,0,0-9.362-6.126l-.264.1a7.887,7.887,0,0,1-5.641-.087,6.25,6.25,0,0,0-8.552,5.364l-.074,1.065Z" fill="#04c"/>
        <path id="패스_192" data-name="패스 192" d="M45.964,30.838a6.738,6.738,0,1,1,13.476,0v1.017a1.939,1.939,0,0,1,1.444,1.833,1.983,1.983,0,0,1-2.046,1.918h-.053a6.741,6.741,0,0,1-12.166,0h-.053a1.983,1.983,0,0,1-2.046-1.918,1.939,1.939,0,0,1,1.444-1.833Z" fill="#fff" fill-rule="evenodd"/>
        <path id="패스_193" data-name="패스 193" d="M52.7,40.274a7.615,7.615,0,0,1-6.61-3.881,2.789,2.789,0,0,1-2.4-2.7A2.714,2.714,0,0,1,45.133,31.3v-.464a7.569,7.569,0,1,1,15.138,0V31.3a2.713,2.713,0,0,1,1.445,2.386A2.792,2.792,0,0,1,59.309,36.4,7.614,7.614,0,0,1,52.7,40.274m0-15.343A5.914,5.914,0,0,0,46.8,30.839V32.48l-.6.174a1.1,1.1,0,0,0-.845,1.035,1.157,1.157,0,0,0,1.215,1.086h.523l.28.472a5.908,5.908,0,0,0,10.666,0l.226-.472h.524a1.175,1.175,0,0,0,1.269-1.086,1.1,1.1,0,0,0-.845-1.035l-.6-.174V30.839A5.914,5.914,0,0,0,52.7,24.931" fill="#04c"/>
        <path id="패스_194" data-name="패스 194" d="M39.918,58.688a.378.378,0,0,1-.047,0,.828.828,0,0,1-.783-.874l.587-10.286A7.908,7.908,0,0,1,50.5,40.737a6.253,6.253,0,0,0,4.457.068l.264-.1A8.645,8.645,0,0,1,66.809,48.3l.53,8.993a.83.83,0,1,1-1.658.1l-.53-8.994a6.985,6.985,0,0,0-9.362-6.126l-.264.1a7.882,7.882,0,0,1-5.641-.088,6.25,6.25,0,0,0-8.551,5.365l-.075,1.065L40.747,57.9a.832.832,0,0,1-.829.786" fill="#04c"/>
        <path id="패스_195" data-name="패스 195" d="M56.48,52.056a2.642,2.642,0,0,1-.221,1.08,2.813,2.813,0,0,1-1.486,1.5,2.642,2.642,0,0,1-1.085.216H49.961V52.987h3.727a1.3,1.3,0,0,0,.364-.067.951.951,0,0,0,.292-.2.862.862,0,0,0,.2-.3.966.966,0,0,0,0-.732.8.8,0,0,0-.2-.282.768.768,0,0,0-.292-.216,1.3,1.3,0,0,0-.364-.067H51.15V49.264h2.538a.886.886,0,0,0,.364-.067.951.951,0,0,0,.292-.2.862.862,0,0,0,.2-.3.966.966,0,0,0,0-.732.862.862,0,0,0-.2-.3.951.951,0,0,0-.292-.2.886.886,0,0,0-.364-.067H49.961V45.537h3.727a2.729,2.729,0,0,1,1.085.22,2.813,2.813,0,0,1,1.486,1.5,2.642,2.642,0,0,1,.221,1.08,2.791,2.791,0,0,1-.721,1.862,2.82,2.82,0,0,1,.533.864,2.747,2.747,0,0,1,.188,1" fill="#04c"/>
        <g id="그룹_106" data-name="그룹 106" opacity="0.8">
          <g id="그룹_105" data-name="그룹 105">
            <g id="그룹_104" data-name="그룹 104" clip-path="url(#clip-path-5)">
              <path id="패스_196" data-name="패스 196" d="M50.478,63.74a.817.817,0,0,0,0-1.163l-5.288-5.3a.849.849,0,0,0-1.177,0,.838.838,0,0,0,0,1.18l4.7,4.7-4.7,4.7a.838.838,0,0,0,0,1.18.849.849,0,0,0,1.177,0ZM10,62.328a.831.831,0,0,0,0,1.662Zm39.889,0H10V63.99H49.89Z" fill="#ff6b00"/>
            </g>
          </g>
        </g>
      </g>
    </g>
  </g>
</svg>
