<svg xmlns="http://www.w3.org/2000/svg" xmlns:xlink="http://www.w3.org/1999/xlink" width="78.116" height="78.116" viewBox="0 0 78.116 78.116">
  <defs>
    <clipPath id="clip-path">
      <rect id="사각형_120" data-name="사각형 120" width="78.116" height="78.116" fill="none"/>
    </clipPath>
    <clipPath id="clip-path-2">
      <rect id="사각형_119" data-name="사각형 119" width="78.116" height="78.116" transform="translate(0 0)" fill="none"/>
    </clipPath>
    <clipPath id="clip-path-3">
      <rect id="사각형_116" data-name="사각형 116" width="36.565" height="46.039" transform="translate(12.465 19.114)" fill="none"/>
    </clipPath>
    <clipPath id="clip-path-4">
      <rect id="사각형_117" data-name="사각형 117" width="29.917" height="34.903" transform="translate(34.072 27.424)" fill="none"/>
    </clipPath>
    <clipPath id="clip-path-5">
      <rect id="사각형_118" data-name="사각형 118" width="7.448" height="9.308" transform="translate(45.622 40.554)" fill="none"/>
    </clipPath>
  </defs>
  <g id="그룹_232" data-name="그룹 232" clip-path="url(#clip-path)">
    <g id="그룹_231" data-name="그룹 231">
      <g id="그룹_230" data-name="그룹 230" clip-path="url(#clip-path-2)">
        <path id="패스_271" data-name="패스 271" d="M19.114,32.228V25.1L25.1,18.782l1.024-.914a1.68,1.68,0,0,1,1.1-.416h25.13V52.671a6.658,6.658,0,0,1-6.648,6.648H19.114Z" fill="#fff"/>
        <g id="그룹_223" data-name="그룹 223" opacity="0.2">
          <g id="그룹_222" data-name="그룹 222">
            <g id="그룹_221" data-name="그룹 221" clip-path="url(#clip-path-3)">
              <path id="패스_272" data-name="패스 272" d="M12.465,35.369V27.524l6.582-6.947L20.22,19.53a1.68,1.68,0,0,1,1.1-.416H49.03V58.505a6.647,6.647,0,0,1-6.648,6.648H12.465Z" fill="#05f"/>
            </g>
          </g>
        </g>
        <path id="패스_273" data-name="패스 273" d="M19.114,32.228V25.1L25.1,18.782l1.024-.914a1.68,1.68,0,0,1,1.1-.416h25.13V52.671a6.658,6.658,0,0,1-6.648,6.648H19.114Z" fill="#fff"/>
        <path id="패스_274" data-name="패스 274" d="M77.285,78.116H.831A.831.831,0,0,1,0,77.285V.831A.83.83,0,0,1,.831,0H77.285a.83.83,0,0,1,.831.831V77.285a.83.83,0,0,1-.831.831M1.662,76.454H76.454V1.662H1.662Z" fill="#04c"/>
        <g id="그룹_226" data-name="그룹 226" opacity="0.2">
          <g id="그룹_225" data-name="그룹 225">
            <g id="그룹_224" data-name="그룹 224" clip-path="url(#clip-path-4)">
              <path id="패스_275" data-name="패스 275" d="M34.072,34.837,49.03,27.424l14.959,7.413V46.172a19.1,19.1,0,0,1-9.582,13.214L49.03,62.327l-6.2-3.207a16.289,16.289,0,0,1-8.754-12.948Z" fill="#05f"/>
            </g>
          </g>
        </g>
        <path id="패스_276" data-name="패스 276" d="M49.03,63.158a.839.839,0,0,1-.381-.092l-6.2-3.207a17.042,17.042,0,0,1-9.2-13.609l0-11.413a.831.831,0,0,1,.462-.745l14.958-7.413a.848.848,0,0,1,.739,0l14.958,7.413a.831.831,0,0,1,.462.745V46.173A19.9,19.9,0,0,1,54.808,60.115l-5.379,2.941a.828.828,0,0,1-.4.1M34.9,35.353v10.82a15.363,15.363,0,0,0,8.3,12.209l5.812,3,4.989-2.729A18.209,18.209,0,0,0,63.172,46.02l-.013-10.667-14.129-7Z" fill="#04c"/>
        <path id="패스_277" data-name="패스 277" d="M28.66,16.62h-.831v.831h.831ZM19.114,25.1l-.6-.565-.227.233V25.1Zm32.41-.066a.831.831,0,0,0,1.662,0Zm.831-7.58h.831a.828.828,0,0,0-.831-.831ZM28.66,25.546v.831a.827.827,0,0,0,.831-.831ZM23.1,24.715a.837.837,0,0,0-.831.831.827.827,0,0,0,.831.831Zm2.6-5.369a.818.818,0,0,0-.031-1.163.832.832,0,0,0-1.175.033ZM19.114,59.318h-.831a.837.837,0,0,0,.831.831Zm17.451.831a.837.837,0,0,0,.831-.831.827.827,0,0,0-.831-.831ZM18.283,32.227h1.662V25.1H18.283Zm34.9-14.776H51.524V25.03h1.662Zm-.831-.831H28.661v1.662H52.355ZM27.829,25.546h1.662V17.452H27.829Zm.831-.831H23.1v1.662H28.66Zm-8.943.947L25.7,19.346l-1.206-1.13L18.51,24.532Zm.228,6.565H18.283V59.318h1.662Zm-.831,27.922H36.566V58.487H19.114Z" fill="#04c"/>
        <path id="패스_278" data-name="패스 278" d="M49.031,35.734a9.141,9.141,0,1,1-9.141,9.141,9.141,9.141,0,0,1,9.141-9.141" fill="#fff"/>
        <path id="패스_279" data-name="패스 279" d="M49.03,54.848A9.972,9.972,0,1,1,59,44.875a9.984,9.984,0,0,1-9.972,9.973m0-18.283a8.311,8.311,0,1,0,8.31,8.31,8.32,8.32,0,0,0-8.31-8.31" fill="#04c"/>
        <path id="패스_280" data-name="패스 280" d="M29.917,42.383a17.415,17.415,0,0,0,9.972,0v5.668a13.194,13.194,0,0,1-9.972,0Z" fill="#fff"/>
        <path id="패스_281" data-name="패스 281" d="M34.886,49.863a16.069,16.069,0,0,1-5.235-1.026.829.829,0,0,1-.565-.787V42.382a.828.828,0,0,1,1.027-.806,16.664,16.664,0,0,0,9.57,0,.832.832,0,0,1,1.037.805V48.05a.834.834,0,0,1-.568.789,16.373,16.373,0,0,1-5.266,1.024m-4.138-2.415a11.9,11.9,0,0,0,8.31,0V43.437a17.18,17.18,0,0,1-8.31-.009Z" fill="#04c"/>
        <path id="패스_282" data-name="패스 282" d="M68.144,42.383a17.415,17.415,0,0,1-9.972,0v5.668a13.194,13.194,0,0,0,9.972,0Z" fill="#fff"/>
        <path id="패스_283" data-name="패스 283" d="M63.175,49.863a16.373,16.373,0,0,1-5.266-1.024.834.834,0,0,1-.568-.789V42.382a.831.831,0,0,1,1.037-.805,16.638,16.638,0,0,0,9.57,0,.829.829,0,0,1,1.027.807V48.05a.83.83,0,0,1-.565.787,16.1,16.1,0,0,1-5.235,1.026M59,47.446a11.907,11.907,0,0,0,8.31,0V43.427a17.168,17.168,0,0,1-8.31.01Z" fill="#04c"/>
        <g id="그룹_229" data-name="그룹 229" opacity="0.8">
          <g id="그룹_228" data-name="그룹 228">
            <g id="그룹_227" data-name="그룹 227" clip-path="url(#clip-path-5)">
              <path id="패스_284" data-name="패스 284" d="M47.485,42.416v3.723h1.863a2.065,2.065,0,0,0,.721-.133,1.76,1.76,0,0,0,.591-.415,1.916,1.916,0,0,0,.4-.582,1.87,1.87,0,0,0,.149-.731,1.731,1.731,0,0,0-.149-.715,1.8,1.8,0,0,0-.4-.6,1.952,1.952,0,0,0-.591-.4,1.751,1.751,0,0,0-.721-.15Zm0,7.446H45.622V40.555h3.726a3.86,3.86,0,0,1,.987.132,3.361,3.361,0,0,1,.883.383,3.12,3.12,0,0,1,.755.582,3.506,3.506,0,0,1,.583.747,3.749,3.749,0,0,1,.377.9,3.507,3.507,0,0,1,.136.981,3.607,3.607,0,0,1-.292,1.446,3.719,3.719,0,0,1-.8,1.18,3.4,3.4,0,0,1-1.187.8,3.516,3.516,0,0,1-1.443.3H47.485Z" fill="#ff6b00"/>
            </g>
          </g>
        </g>
      </g>
    </g>
  </g>
</svg>
