<svg xmlns="http://www.w3.org/2000/svg" xmlns:xlink="http://www.w3.org/1999/xlink" width="78.116" height="78.116" viewBox="0 0 78.116 78.116">
  <defs>
    <clipPath id="clip-path">
      <rect id="사각형_102" data-name="사각형 102" width="78.116" height="78.116" fill="none"/>
    </clipPath>
    <clipPath id="clip-path-2">
      <rect id="사각형_101" data-name="사각형 101" width="78.116" height="78.116" transform="translate(0 0)" fill="none"/>
    </clipPath>
    <clipPath id="clip-path-3">
      <rect id="사각형_97" data-name="사각형 97" width="13.296" height="29.917" transform="translate(25.761 25.762)" fill="none"/>
    </clipPath>
    <clipPath id="clip-path-4">
      <rect id="사각형_98" data-name="사각형 98" width="9.839" height="13.928" transform="translate(11.634 36.948)" fill="none"/>
    </clipPath>
    <clipPath id="clip-path-5">
      <rect id="사각형_99" data-name="사각형 99" width="9.841" height="13.928" transform="translate(56.641 36.948)" fill="none"/>
    </clipPath>
    <clipPath id="clip-path-6">
      <rect id="사각형_100" data-name="사각형 100" width="9.274" height="7.263" transform="translate(34.42 53.834)" fill="none"/>
    </clipPath>
  </defs>
  <g id="그룹_184" data-name="그룹 184" clip-path="url(#clip-path)">
    <g id="그룹_183" data-name="그룹 183">
      <g id="그룹_182" data-name="그룹 182" clip-path="url(#clip-path-2)">
        <path id="패스_241" data-name="패스 241" d="M77.285,78.116H.831A.831.831,0,0,1,0,77.285V.831A.83.83,0,0,1,.831,0H77.285a.83.83,0,0,1,.831.831V77.285a.83.83,0,0,1-.831.831M1.662,76.454H76.454V1.662H1.662Z" fill="#04c"/>
        <path id="패스_242" data-name="패스 242" d="M39.058,57.176A15.026,15.026,0,0,1,24.049,42.167V38.611a15.008,15.008,0,1,1,30.016,0v3.556A15.025,15.025,0,0,1,39.058,57.176m0-31.912A13.363,13.363,0,0,0,25.711,38.611v3.556a13.346,13.346,0,1,0,26.692,0V38.611A13.361,13.361,0,0,0,39.058,25.264" fill="#04c"/>
        <g id="그룹_172" data-name="그룹 172" opacity="0.1">
          <g id="그룹_171" data-name="그룹 171">
            <g id="그룹_170" data-name="그룹 170" clip-path="url(#clip-path-3)">
              <path id="패스_243" data-name="패스 243" d="M25.761,32.41a6.648,6.648,0,1,1,13.3,0V49.031a6.648,6.648,0,1,1-13.3,0Z" fill="#05f"/>
            </g>
          </g>
        </g>
        <path id="패스_244" data-name="패스 244" d="M39.057,50.693c4.59,0,8.31,2.977,8.31,6.648s-3.72,6.648-8.31,6.648-8.31-2.976-8.31-6.648,3.72-6.648,8.31-6.648" fill="#fff"/>
        <g id="그룹_175" data-name="그룹 175" opacity="0.8">
          <g id="그룹_174" data-name="그룹 174">
            <g id="그룹_173" data-name="그룹 173" clip-path="url(#clip-path-4)">
              <path id="패스_245" data-name="패스 245" d="M20.642,50.876H18.6a6.964,6.964,0,0,1,0-13.928h2.045a.831.831,0,1,1,0,1.662H18.6a5.3,5.3,0,0,0,0,10.6h2.045a.831.831,0,1,1,0,1.662" fill="#ff6b00"/>
            </g>
          </g>
        </g>
        <g id="그룹_178" data-name="그룹 178" opacity="0.8">
          <g id="그룹_177" data-name="그룹 177">
            <g id="그룹_176" data-name="그룹 176" clip-path="url(#clip-path-5)">
              <path id="패스_246" data-name="패스 246" d="M59.517,50.876H57.472a.831.831,0,1,1,0-1.662h2.045a5.3,5.3,0,1,0,0-10.6H57.472a.831.831,0,1,1,0-1.662h2.045a6.964,6.964,0,1,1,0,13.928" fill="#ff6b00"/>
            </g>
          </g>
        </g>
        <path id="패스_247" data-name="패스 247" d="M45.872,61.1H44.044a.831.831,0,0,1,0-1.662h1.828A10.78,10.78,0,0,0,56.641,48.666V37.53a17.583,17.583,0,1,0-35.167,0V48.666a.831.831,0,1,1-1.662,0V37.53a19.246,19.246,0,1,1,38.491,0V48.666A12.446,12.446,0,0,1,45.872,61.1" fill="#04c"/>
        <path id="패스_248" data-name="패스 248" d="M35.251,57.474a2.816,2.816,0,0,1,2.809-2.809h4.8v5.6h-4.8a2.8,2.8,0,0,1-2.809-2.792" fill="#fff"/>
        <g id="그룹_181" data-name="그룹 181" opacity="0.8">
          <g id="그룹_180" data-name="그룹 180">
            <g id="그룹_179" data-name="그룹 179" clip-path="url(#clip-path-6)">
              <path id="패스_249" data-name="패스 249" d="M42.863,54.665h.831a.844.844,0,0,0-.831-.831Zm0,6.432h.831v-.831h-.831Zm-4.8-5.6h4.8V53.834h-4.8Zm3.972,4.77h1.662v-5.6H42.032Zm.831-.831h-4.8V61.1h4.8Zm-4.8,0a1.969,1.969,0,0,1-1.978-1.961H34.42A3.636,3.636,0,0,0,38.06,61.1Zm0-5.6a3.639,3.639,0,0,0-3.64,3.64h1.662A1.972,1.972,0,0,1,38.06,55.5Z" fill="#ff6b00"/>
            </g>
          </g>
        </g>
        <path id="패스_250" data-name="패스 250" d="M38.956,47.893c-1.79,0-3.546-.781-5.7-2.344a.831.831,0,0,1,.974-1.347c3.763,2.725,5.662,2.717,9.682-.013a.831.831,0,1,1,.935,1.373c-2.284,1.554-4.1,2.331-5.887,2.331" fill="#04c"/>
        <path id="패스_251" data-name="패스 251" d="M20.775,5.818c2.754,0,4.986,1.86,4.986,4.155s-2.232,4.155-4.986,4.155-4.986-1.86-4.986-4.155,2.232-4.155,4.986-4.155" fill="#fff"/>
      </g>
    </g>
  </g>
</svg>
