<svg xmlns="http://www.w3.org/2000/svg" xmlns:xlink="http://www.w3.org/1999/xlink" width="78.116" height="78.116" viewBox="0 0 78.116 78.116">
  <defs>
    <clipPath id="clip-path">
      <rect id="사각형_88" data-name="사각형 88" width="78.116" height="78.116" fill="none"/>
    </clipPath>
    <clipPath id="clip-path-2">
      <rect id="사각형_87" data-name="사각형 87" width="78.116" height="78.116" transform="translate(0 0)" fill="none"/>
    </clipPath>
    <clipPath id="clip-path-3">
      <rect id="사각형_83" data-name="사각형 83" width="36.565" height="46.039" transform="translate(12.465 19.114)" fill="none"/>
    </clipPath>
    <clipPath id="clip-path-4">
      <rect id="사각형_84" data-name="사각형 84" width="10.803" height="1.662" transform="translate(27.424 31.579)" fill="none"/>
    </clipPath>
    <clipPath id="clip-path-5">
      <rect id="사각형_85" data-name="사각형 85" width="10.803" height="1.662" transform="translate(27.424 41.551)" fill="none"/>
    </clipPath>
    <clipPath id="clip-path-6">
      <rect id="사각형_86" data-name="사각형 86" width="14.958" height="1.662" transform="translate(27.424 36.565)" fill="none"/>
    </clipPath>
  </defs>
  <g id="그룹_148" data-name="그룹 148" clip-path="url(#clip-path)">
    <g id="그룹_147" data-name="그룹 147">
      <g id="그룹_146" data-name="그룹 146" clip-path="url(#clip-path-2)">
        <g id="그룹_136" data-name="그룹 136" opacity="0.2">
          <g id="그룹_135" data-name="그룹 135">
            <g id="그룹_134" data-name="그룹 134" clip-path="url(#clip-path-3)">
              <path id="패스_215" data-name="패스 215" d="M12.465,35.369V27.524l6.582-6.947L20.22,19.53a1.68,1.68,0,0,1,1.1-.416H49.03V58.505a6.647,6.647,0,0,1-6.648,6.648H12.465Z" fill="#05f"/>
            </g>
          </g>
        </g>
        <path id="패스_216" data-name="패스 216" d="M19.114,32.228V25.1L25.1,18.782l1.024-.914a1.68,1.68,0,0,1,1.1-.416h25.13V52.671a6.658,6.658,0,0,1-6.648,6.648H19.114Z" fill="#fff"/>
        <path id="패스_217" data-name="패스 217" d="M77.285,78.116H.831A.831.831,0,0,1,0,77.285V.831A.83.83,0,0,1,.831,0H77.285a.83.83,0,0,1,.831.831V77.285a.83.83,0,0,1-.831.831M1.662,76.454H76.454V1.662H1.662Z" fill="#04c"/>
        <path id="패스_218" data-name="패스 218" d="M28.661,16.621H27.83v.831h.831ZM19.114,25.1l-.6-.565-.228.232V25.1Zm33.241-7.646h.831a.827.827,0,0,0-.831-.831ZM28.661,25.546v.831a.826.826,0,0,0,.831-.831ZM23.1,24.715a.838.838,0,0,0-.831.831.826.826,0,0,0,.831.831Zm2.6-5.368a.819.819,0,0,0-.032-1.164.832.832,0,0,0-1.175.034ZM19.114,59.319h-.831a.837.837,0,0,0,.831.831Zm-.831-27.091h1.662V25.1H18.283Zm34.9-14.776H51.524v9.241h1.662Zm-.831-.831H28.661v1.662H52.355ZM27.83,25.546h1.662V17.452H27.83Zm.831-.831H23.1v1.662h5.558Zm-8.944.948L25.7,19.347l-1.207-1.13-5.983,6.316ZM51.524,52.671h1.662V26.693H51.524Zm-5.817,5.817H19.114V60.15H45.707ZM19.945,32.228H18.283V59.319h1.662ZM51.524,52.671a5.82,5.82,0,0,1-5.817,5.817V60.15a7.485,7.485,0,0,0,7.479-7.479Z" fill="#04c"/>
        <g id="그룹_139" data-name="그룹 139" opacity="0.6">
          <g id="그룹_138" data-name="그룹 138">
            <g id="그룹_137" data-name="그룹 137" clip-path="url(#clip-path-4)">
              <path id="패스_219" data-name="패스 219" d="M37.4,33.241H28.255a.831.831,0,0,1,0-1.662H37.4a.831.831,0,1,1,0,1.662" fill="#ff6b00"/>
            </g>
          </g>
        </g>
        <g id="그룹_142" data-name="그룹 142" opacity="0.6">
          <g id="그룹_141" data-name="그룹 141">
            <g id="그룹_140" data-name="그룹 140" clip-path="url(#clip-path-5)">
              <path id="패스_220" data-name="패스 220" d="M37.4,43.213H28.255a.831.831,0,0,1,0-1.662H37.4a.831.831,0,1,1,0,1.662" fill="#ff6b00"/>
            </g>
          </g>
        </g>
        <g id="그룹_145" data-name="그룹 145" opacity="0.6">
          <g id="그룹_144" data-name="그룹 144">
            <g id="그룹_143" data-name="그룹 143" clip-path="url(#clip-path-6)">
              <path id="패스_221" data-name="패스 221" d="M41.551,38.227h-13.3a.831.831,0,0,1,0-1.662h13.3a.831.831,0,0,1,0,1.662" fill="#ff6b00"/>
            </g>
          </g>
        </g>
        <path id="패스_222" data-name="패스 222" d="M60.223,25.563a4.351,4.351,0,0,1,6.256,6.05L53.543,44.992a17.291,17.291,0,0,1-8.4,4.787l-2.957.7.6-2.975a17.283,17.283,0,0,1,4.5-8.559Z" fill="#fff"/>
        <path id="패스_223" data-name="패스 223" d="M42.186,51.308a.83.83,0,0,1-.815-1l.6-2.975a18.123,18.123,0,0,1,4.715-8.97L59.625,24.985A5.153,5.153,0,0,1,63.267,23.4a5.316,5.316,0,0,1,3.687,1.464,5.177,5.177,0,0,1,.122,7.323L54.14,45.571a18.1,18.1,0,0,1-8.8,5.017l-2.959.7a.784.784,0,0,1-.191.022M63.351,25.066h-.057A3.5,3.5,0,0,0,60.82,26.14L47.885,39.521A16.435,16.435,0,0,0,43.6,47.666l-.345,1.7,1.694-.4a16.457,16.457,0,0,0,7.994-4.556L65.881,31.036a3.525,3.525,0,0,0-2.53-5.97" fill="#04c"/>
      </g>
    </g>
  </g>
</svg>
