<svg xmlns="http://www.w3.org/2000/svg" xmlns:xlink="http://www.w3.org/1999/xlink" width="78.116" height="78.116" viewBox="0 0 78.116 78.116">
  <defs>
    <clipPath id="clip-path">
      <rect id="사각형_115" data-name="사각형 115" width="78.116" height="78.116" fill="none"/>
    </clipPath>
    <clipPath id="clip-path-2">
      <rect id="사각형_114" data-name="사각형 114" width="78.116" height="78.116" transform="translate(0 0)" fill="none"/>
    </clipPath>
    <clipPath id="clip-path-3">
      <rect id="사각형_109" data-name="사각형 109" width="33.241" height="16.62" transform="translate(22.437 24.931)" fill="none"/>
    </clipPath>
    <clipPath id="clip-path-4">
      <rect id="사각형_110" data-name="사각형 110" width="1.662" height="8.409" transform="translate(39.738 48.101)" fill="none"/>
    </clipPath>
    <clipPath id="clip-path-5">
      <rect id="사각형_111" data-name="사각형 111" width="4.47" height="1.662" transform="translate(36.93 48.101)" fill="none"/>
    </clipPath>
    <clipPath id="clip-path-6">
      <rect id="사각형_112" data-name="사각형 112" width="7.28" height="1.662" transform="translate(36.93 54.848)" fill="none"/>
    </clipPath>
    <clipPath id="clip-path-7">
      <rect id="사각형_113" data-name="사각형 113" width="5.402" height="5.402" transform="translate(36.573 41.559)" fill="none"/>
    </clipPath>
  </defs>
  <g id="그룹_219" data-name="그룹 219" clip-path="url(#clip-path)">
    <g id="그룹_218" data-name="그룹 218">
      <g id="그룹_217" data-name="그룹 217" clip-path="url(#clip-path-2)">
        <path id="패스_261" data-name="패스 261" d="M77.285,78.116H.831A.831.831,0,0,1,0,77.285V.831A.83.83,0,0,1,.831,0H77.285a.83.83,0,0,1,.831.831V77.285a.83.83,0,0,1-.831.831M1.662,76.454H76.454V1.662H1.662Z" fill="#04c"/>
        <path id="패스_262" data-name="패스 262" d="M39.058,67.313a.831.831,0,0,1-.367-.086l-9.473-4.669A25.914,25.914,0,0,1,14.962,41.844l0-17.777a.83.83,0,0,1,.462-.743l23.268-11.6a.826.826,0,0,1,.741,0L62.7,23.324a.829.829,0,0,1,.461.743v17.7A29.743,29.743,0,0,1,47.621,62.929l-8.177,4.289a.838.838,0,0,1-.386.1M16.621,24.582V41.767a24.224,24.224,0,0,0,13.331,19.3l9.1,4.483,7.8-4.092A28.077,28.077,0,0,0,61.51,41.615l-.015-17.033L39.058,13.394Z" fill="#04c"/>
        <g id="그룹_204" data-name="그룹 204" opacity="0.1">
          <g id="그룹_203" data-name="그룹 203">
            <g id="그룹_202" data-name="그룹 202" clip-path="url(#clip-path-3)">
              <path id="패스_263" data-name="패스 263" d="M55.678,39.89a12.294,12.294,0,0,1-.1,1.579,5.669,5.669,0,0,0-10.9.083h-.149A5.419,5.419,0,0,0,39.057,37.4a5.418,5.418,0,0,0-5.468,4.155H33.44A5.4,5.4,0,0,0,27.972,37.4a5.4,5.4,0,0,0-5.435,4.072,12.294,12.294,0,0,1-.1-1.579c0-8.26,7.446-14.958,16.62-14.958s16.621,6.7,16.621,14.958" fill="#05f" fill-rule="evenodd"/>
            </g>
          </g>
        </g>
        <path id="패스_264" data-name="패스 264" d="M55.578,41.469l-.814.166a.844.844,0,0,0,.864.665.82.82,0,0,0,.781-.731Zm-10.9.083v.831a.823.823,0,0,0,.815-.681Zm-.149,0-.831.15a.852.852,0,0,0,.831.681Zm-10.937,0v.831A.823.823,0,0,0,34.4,41.7Zm-.149,0-.815.15a.823.823,0,0,0,.815.681Zm-10.9-.083-.831.1a.833.833,0,0,0,.781.731.816.816,0,0,0,.848-.665Zm33.872.1a13.914,13.914,0,0,0,.1-1.679H54.847c0,.5-.033,1-.083,1.5Zm-6.266-3.341a4.583,4.583,0,0,1,4.621,3.407l1.629-.332a6.211,6.211,0,0,0-6.25-4.737ZM45.49,41.7a4.583,4.583,0,0,1,4.653-3.474V36.566A6.226,6.226,0,0,0,43.861,41.4Zm-.964.681h.15V40.721h-.15Zm-5.469-4.155A4.566,4.566,0,0,1,43.695,41.7l1.645-.3a6.24,6.24,0,0,0-6.283-4.837ZM34.4,41.7a4.584,4.584,0,0,1,4.653-3.474V36.566A6.226,6.226,0,0,0,32.775,41.4Zm-.964.681h.15V40.721h-.15Zm-5.468-4.155A4.583,4.583,0,0,1,32.625,41.7l1.629-.3a6.226,6.226,0,0,0-6.282-4.837Zm-4.637,3.407a4.615,4.615,0,0,1,4.637-3.407V36.566a6.237,6.237,0,0,0-6.25,4.737ZM21.606,39.89a13.914,13.914,0,0,0,.1,1.679l1.645-.2a14.387,14.387,0,0,1-.083-1.479ZM39.057,24.1c-9.556,0-17.451,7-17.451,15.79h1.662c0-7.729,6.981-14.127,15.789-14.127ZM56.509,39.89c0-8.792-7.9-15.79-17.452-15.79v1.663c8.809,0,15.79,6.4,15.79,14.127Z" fill="#04c"/>
        <path id="패스_265" data-name="패스 265" d="M39.058,25.762a.831.831,0,0,1-.831-.831V22.438a.831.831,0,1,1,1.662,0v2.493a.831.831,0,0,1-.831.831" fill="#04c"/>
        <g id="그룹_207" data-name="그룹 207" opacity="0.8">
          <g id="그룹_206" data-name="그룹 206">
            <g id="그룹_205" data-name="그룹 205" clip-path="url(#clip-path-4)">
              <path id="패스_266" data-name="패스 266" d="M40.569,56.51a.831.831,0,0,1-.831-.831V48.932a.831.831,0,0,1,1.662,0v6.747a.831.831,0,0,1-.831.831" fill="#ff6b00"/>
            </g>
          </g>
        </g>
        <g id="그룹_210" data-name="그룹 210" opacity="0.8">
          <g id="그룹_209" data-name="그룹 209">
            <g id="그룹_208" data-name="그룹 208" clip-path="url(#clip-path-5)">
              <path id="패스_267" data-name="패스 267" d="M40.569,49.763H37.761a.831.831,0,1,1,0-1.662h2.808a.831.831,0,1,1,0,1.662" fill="#ff6b00"/>
            </g>
          </g>
        </g>
        <g id="그룹_213" data-name="그룹 213" opacity="0.8">
          <g id="그룹_212" data-name="그룹 212">
            <g id="그룹_211" data-name="그룹 211" clip-path="url(#clip-path-6)">
              <path id="패스_268" data-name="패스 268" d="M43.379,56.51H37.761a.831.831,0,1,1,0-1.662h5.618a.831.831,0,0,1,0,1.662" fill="#ff6b00"/>
            </g>
          </g>
        </g>
        <path id="패스_269" data-name="패스 269" d="M39.273,42.391a1.87,1.87,0,1,1-1.87,1.87,1.87,1.87,0,0,1,1.87-1.87" fill="#fff"/>
        <g id="그룹_216" data-name="그룹 216" opacity="0.8">
          <g id="그룹_215" data-name="그룹 215">
            <g id="그룹_214" data-name="그룹 214" clip-path="url(#clip-path-7)">
              <path id="패스_270" data-name="패스 270" d="M39.274,46.961a2.7,2.7,0,1,1,2.7-2.7,2.7,2.7,0,0,1-2.7,2.7m0-3.74a1.039,1.039,0,1,0,1.039,1.039,1.04,1.04,0,0,0-1.039-1.039" fill="#ff6b00"/>
            </g>
          </g>
        </g>
      </g>
    </g>
  </g>
</svg>
