<svg xmlns="http://www.w3.org/2000/svg" xmlns:xlink="http://www.w3.org/1999/xlink" width="76.511" height="88.089" viewBox="0 0 76.511 88.089">
  <defs>
    <clipPath id="clip-path">
      <rect id="사각형_92" data-name="사각형 92" width="76.511" height="88.089" fill="none"/>
    </clipPath>
    <clipPath id="clip-path-2">
      <rect id="사각형_91" data-name="사각형 91" width="76.511" height="88.089" transform="translate(0 0)" fill="none"/>
    </clipPath>
    <clipPath id="clip-path-3">
      <rect id="사각형_89" data-name="사각형 89" width="26.593" height="19.945" transform="translate(19.973 37.396)" fill="none"/>
    </clipPath>
    <clipPath id="clip-path-4">
      <rect id="사각형_90" data-name="사각형 90" width="9.174" height="7.097" transform="translate(43.222 48.582)" fill="none"/>
    </clipPath>
  </defs>
  <g id="그룹_158" data-name="그룹 158" clip-path="url(#clip-path)">
    <g id="그룹_157" data-name="그룹 157">
      <g id="그룹_156" data-name="그룹 156" clip-path="url(#clip-path-2)">
        <path id="패스_224" data-name="패스 224" d="M14.987,25.762V51.806a4.993,4.993,0,0,0,4.986,4.986h34.9V31.024H35.545l-3.351-4.055a3.323,3.323,0,0,0-2.563-1.207Z" fill="#fff"/>
        <path id="패스_225" data-name="패스 225" d="M54.876,57.623h-34.9a5.824,5.824,0,0,1-5.817-5.817V25.762a.831.831,0,0,1,.831-.831H29.631a4.144,4.144,0,0,1,3.2,1.509l3.1,3.753h18.94a.83.83,0,0,1,.831.831V56.792a.83.83,0,0,1-.831.831M15.818,26.593V51.806a4.159,4.159,0,0,0,4.155,4.155H54.045V31.855h-18.5a.827.827,0,0,1-.64-.3L31.554,27.5a2.484,2.484,0,0,0-1.923-.906Z" fill="#04c"/>
        <path id="패스_226" data-name="패스 226" d="M27.452,31.3h-7.2a.831.831,0,0,1,0-1.662h7.2a.831.831,0,1,1,0,1.662" fill="#04c"/>
        <g id="그룹_152" data-name="그룹 152" opacity="0.2">
          <g id="그룹_151" data-name="그룹 151">
            <g id="그룹_150" data-name="그룹 150" clip-path="url(#clip-path-3)">
              <path id="패스_227" data-name="패스 227" d="M21.635,37.4H44.9a1.663,1.663,0,0,1,1.662,1.663V55.68A1.662,1.662,0,0,1,44.9,57.341H21.635a1.662,1.662,0,0,1-1.662-1.661V39.059A1.663,1.663,0,0,1,21.635,37.4" fill="#05f"/>
            </g>
          </g>
        </g>
        <path id="패스_228" data-name="패스 228" d="M38.256,88.089a.822.822,0,0,1-.416-.112L.415,66.37A.828.828,0,0,1,0,65.651V22.438a.829.829,0,0,1,.415-.719L37.84.112a.828.828,0,0,1,.831,0L76.1,21.719a.829.829,0,0,1,.415.719V65.651a.828.828,0,0,1-.415.719L38.671,87.977a.821.821,0,0,1-.415.112M1.662,65.171,38.256,86.3,74.849,65.171V22.919L38.256,1.791,1.662,22.919Z" fill="#04c"/>
        <path id="패스_229" data-name="패스 229" d="M45.348,36.03l5.418.123-.048,2.063a14.292,14.292,0,0,1,4.9,1.823l2.143-2.034,3.756,3.9-1.85,1.757a14.171,14.171,0,0,1,2.608,5.762l2.282.05L64.43,54.9l-2.117-.05A14.123,14.123,0,0,1,60.306,59.9l2.015,2.095-3.929,3.739-1.83-1.911a14.485,14.485,0,0,1-6.484,2.543l-.053,2.293-5.417-.133.057-2.493a14.435,14.435,0,0,1-5.575-2.825L37.548,64.67l-3.756-3.9L35.63,59.02a14.1,14.1,0,0,1-1.594-4.82l-2.107-.05.123-5.419,2.273.05a14.163,14.163,0,0,1,2.64-5.345l-1.756-1.827,3.93-3.731L41.078,39.9A14.312,14.312,0,0,1,45.3,38.3Z" fill="#fff" fill-rule="evenodd"/>
        <path id="패스_230" data-name="패스 230" d="M50.766,36.153l.829.02a.831.831,0,0,0-.811-.851Zm-5.419-.123.02-.831a.832.832,0,0,0-.849.813Zm5.37,2.186-.831-.018a.834.834,0,0,0,.688.837Zm4.9,1.823-.427.713a.827.827,0,0,0,1-.11Zm2.142-2.034.6-.577a.833.833,0,0,0-1.172-.027Zm3.756,3.906.572.6a.832.832,0,0,0,.027-1.178Zm-1.849,1.756-.574-.6a.83.83,0,0,0-.088,1.1ZM62.27,49.43l-.814.166a.853.853,0,0,0,.8.665Zm2.282.05.831.016a.819.819,0,0,0-.812-.847ZM64.429,54.9l-.02.831a.847.847,0,0,0,.851-.815Zm-2.117-.05.02-.831a.811.811,0,0,0-.836.681ZM60.306,59.9l-.7-.449a.836.836,0,0,0,.1,1.03Zm2.014,2.094.574.6a.8.8,0,0,0,.257-.582.859.859,0,0,0-.231-.6Zm-3.929,3.739-.6.566a.828.828,0,0,0,1.172.033Zm-1.83-1.911.6-.582a.837.837,0,0,0-1.082-.1Zm-6.483,2.543-.107-.831a.833.833,0,0,0-.724.814Zm-.054,2.294-.018.831a.846.846,0,0,0,.849-.815Zm-5.416-.133-.831-.017a.859.859,0,0,0,.231.6.837.837,0,0,0,.581.25Zm.056-2.493.831.016a.813.813,0,0,0-.625-.814ZM39.09,63.208l.528-.648a.821.821,0,0,0-1.1.05Zm-1.543,1.463-.6.582a.828.828,0,0,0,1.172.016Zm-3.756-3.906-.572-.6a.833.833,0,0,0-.257.581.863.863,0,0,0,.231.6Zm1.838-1.745.572.6a.825.825,0,0,0,.158-1ZM34.035,54.2l.825-.117a.841.841,0,0,0-.805-.714Zm-2.107-.05-.831-.017a.861.861,0,0,0,.231.6.843.843,0,0,0,.582.249Zm.123-5.418.02-.831a.838.838,0,0,0-.851.814Zm2.274.05-.019.831a.82.82,0,0,0,.825-.632Zm2.639-5.346.651.516a.832.832,0,0,0-.051-1.092ZM35.209,41.61l-.572-.6a.832.832,0,0,0-.028,1.179Zm3.929-3.732.6-.576a.832.832,0,0,0-1.171-.027Zm1.94,2.018-.6.577a.834.834,0,0,0,1.013.145ZM45.3,38.3l.168.815a.828.828,0,0,0,.663-.795Zm5.488-2.975L45.367,35.2l-.038,1.662,5.417.123Zm.764,2.914.047-2.063-1.66-.038L49.886,38.2Zm4.493,1.092A15.088,15.088,0,0,0,50.86,37.4l-.286,1.637a13.48,13.48,0,0,1,4.613,1.717ZM57.184,37.4l-2.142,2.037,1.144,1.2,2.144-2.035Zm4.927,3.935-3.755-3.908-1.2,1.152,3.754,3.907Zm-1.877,2.933,1.85-1.755-1.145-1.205-1.85,1.755Zm2.851,4.995a14.95,14.95,0,0,0-2.761-6.1l-1.323,1A13.253,13.253,0,0,1,61.456,49.6Zm-.833,1,2.282.05.037-1.662-2.282-.05Zm1.469-.8-.123,5.4,1.662.049.123-5.418Zm.727,4.6-2.116-.05-.038,1.662,2.115.05Zm-3.442,6.282A14.9,14.9,0,0,0,63.13,55L61.5,54.7a13.3,13.3,0,0,1-1.888,4.754Zm1.914,1.064-2.014-2.094-1.2,1.163,2.015,2.1Zm-3.955,4.92,3.929-3.74-1.146-1.2L57.819,65.12Zm-3-1.928,1.83,1.9,1.2-1.147-1.83-1.912ZM50.182,67.18A15.034,15.034,0,0,0,57.043,64.5l-.964-1.363a13.346,13.346,0,0,1-6.108,2.393Zm.673,1.5.054-2.293-1.662-.034-.054,2.294Zm-6.266.682,5.417.133.038-1.662L44.628,67.7Zm-.754-3.341-.058,2.493,1.662.033.056-2.493ZM38.561,63.84a14.958,14.958,0,0,0,5.9,2.991l.41-1.6a13.456,13.456,0,0,1-5.252-2.676Zm-.442,1.429,1.544-1.462-1.145-1.2-1.544,1.462Zm-4.926-3.922,3.754,3.906,1.2-1.164-3.755-3.906Zm1.863-2.925-1.837,1.745,1.146,1.2L36.2,59.618Zm-1.843-4.106a14.934,14.934,0,0,0,1.687,5.1l1.459-.8a13.119,13.119,0,0,1-1.5-4.538Zm.842-.947-2.109-.05-.036,1.662,2.107.05Zm-1.3.8.123-5.419-1.662-.033L31.1,54.133Zm-.726-4.6,2.273.05.039-1.663L32.071,47.9Zm4.279-6.643a15,15,0,0,0-2.793,5.662l1.612.4a13.312,13.312,0,0,1,2.484-5.029Zm-1.7-.735,1.757,1.826,1.2-1.151-1.757-1.827Zm3.956-4.91-3.928,3.731,1.144,1.2L39.71,38.48Zm3.111,2.046L39.736,37.3l-1.2,1.152,1.94,2.019Zm3.452-1.836a15.12,15.12,0,0,0-4.464,1.69l.827,1.443a13.472,13.472,0,0,1,3.973-1.506Zm-.61-1.473-.053,2.267,1.662.038.051-2.268Z" fill="#04c"/>
        <g id="그룹_155" data-name="그룹 155" opacity="0.8">
          <g id="그룹_154" data-name="그룹 154">
            <g id="그룹_153" data-name="그룹 153" clip-path="url(#clip-path-4)">
              <path id="패스_231" data-name="패스 231" d="M46.787,50.078l-1.729,5.6H43.222l2.606-7.1h1.163Zm1.431,5.6-1.734-5.6-.224-1.5h1.178l2.621,7.1ZM48.15,54.35H44.513V53.037H48.15ZM52.4,55.679h-1.7v-7.1h1.7Z" fill="#ff6b00"/>
            </g>
          </g>
        </g>
      </g>
    </g>
  </g>
</svg>
