<svg xmlns="http://www.w3.org/2000/svg" xmlns:xlink="http://www.w3.org/1999/xlink" width="78.116" height="78.116" viewBox="0 0 78.116 78.116">
  <defs>
    <clipPath id="clip-path">
      <rect id="사각형_131" data-name="사각형 131" width="78.116" height="78.116" fill="none"/>
    </clipPath>
    <clipPath id="clip-path-2">
      <rect id="사각형_130" data-name="사각형 130" width="78.116" height="78.116" transform="translate(0 0)" fill="none"/>
    </clipPath>
    <clipPath id="clip-path-3">
      <rect id="사각형_121" data-name="사각형 121" width="36.565" height="46.039" transform="translate(12.465 19.114)" fill="none"/>
    </clipPath>
    <clipPath id="clip-path-4">
      <rect id="사각형_123" data-name="사각형 123" width="16.434" height="7.198" transform="translate(23.455 30.747)" fill="none"/>
    </clipPath>
    <clipPath id="clip-path-6">
      <rect id="사각형_125" data-name="사각형 125" width="1.662" height="7.562" transform="translate(25.762 49.779)" fill="none"/>
    </clipPath>
    <clipPath id="clip-path-8">
      <rect id="사각형_127" data-name="사각형 127" width="1.662" height="14.127" transform="translate(29.917 43.213)" fill="none"/>
    </clipPath>
    <clipPath id="clip-path-10">
      <rect id="사각형_129" data-name="사각형 129" width="1.662" height="10.188" transform="translate(34.072 47.153)" fill="none"/>
    </clipPath>
  </defs>
  <g id="그룹_263" data-name="그룹 263" clip-path="url(#clip-path)">
    <g id="그룹_262" data-name="그룹 262">
      <g id="그룹_261" data-name="그룹 261" clip-path="url(#clip-path-2)">
        <g id="그룹_236" data-name="그룹 236" opacity="0.2">
          <g id="그룹_235" data-name="그룹 235">
            <g id="그룹_234" data-name="그룹 234" clip-path="url(#clip-path-3)">
              <path id="패스_285" data-name="패스 285" d="M12.465,35.369V27.524l6.582-6.947L20.22,19.53a1.68,1.68,0,0,1,1.1-.416H49.03V58.505a6.647,6.647,0,0,1-6.648,6.648H12.465Z" fill="#05f"/>
            </g>
          </g>
        </g>
        <path id="패스_286" data-name="패스 286" d="M19.114,32.228V25.1L25.1,18.782l1.024-.914a1.68,1.68,0,0,1,1.1-.416h25.13V52.671a6.658,6.658,0,0,1-6.648,6.648H19.114Z" fill="#fff"/>
        <path id="패스_287" data-name="패스 287" d="M77.285,78.116H.831A.831.831,0,0,1,0,77.285V.831A.83.83,0,0,1,.831,0H77.285a.83.83,0,0,1,.831.831V77.285a.83.83,0,0,1-.831.831M1.662,76.454H76.454V1.662H1.662Z" fill="#04c"/>
        <path id="패스_288" data-name="패스 288" d="M28.66,16.62h-.831v.831h.831ZM19.114,25.1l-.6-.565-.227.233V25.1Zm32.41,4.92a.831.831,0,0,0,1.662,0Zm.831-12.566h.831a.828.828,0,0,0-.831-.831ZM28.66,25.546v.831a.827.827,0,0,0,.831-.831ZM23.1,24.715a.837.837,0,0,0-.831.831.827.827,0,0,0,.831.831Zm2.6-5.369a.818.818,0,0,0-.031-1.163.832.832,0,0,0-1.175.033ZM19.114,59.318h-.831a.837.837,0,0,0,.831.831Zm30.748.831a.838.838,0,0,0,.831-.831.828.828,0,0,0-.831-.831ZM18.283,32.227h1.662V25.1H18.283Zm34.9-14.776H51.524V30.016h1.662Zm-.831-.831H28.661v1.662H52.355ZM27.829,25.546h1.662V17.452H27.829Zm.831-.831H23.1v1.662H28.66Zm-8.943.947L25.7,19.346l-1.206-1.13L18.51,24.532Zm.228,6.565H18.283V59.318h1.662Zm-.831,27.922H49.862V58.487H19.114Z" fill="#04c"/>
        <g id="그룹_242" data-name="그룹 242" opacity="0.9">
          <g id="그룹_241" data-name="그룹 241">
            <g id="그룹_240" data-name="그룹 240" clip-path="url(#clip-path-4)">
              <g id="그룹_239" data-name="그룹 239" opacity="0.8">
                <g id="그룹_238" data-name="그룹 238">
                  <g id="그룹_237" data-name="그룹 237" clip-path="url(#clip-path-4)">
                    <path id="패스_289" data-name="패스 289" d="M24.286,37.945a.831.831,0,0,1-.428-1.544l6.463-3.872a.819.819,0,0,1,.635-.093.834.834,0,0,1,.511.39l1.073,1.863,6.076-3.814a.831.831,0,0,1,.883,1.409l-6.806,4.272a.862.862,0,0,1-.642.1.835.835,0,0,1-.519-.391L30.45,34.389l-5.738,3.438a.817.817,0,0,1-.426.118" fill="#ff6b00"/>
                  </g>
                </g>
              </g>
            </g>
          </g>
        </g>
        <path id="패스_290" data-name="패스 290" d="M52.7,55.186a10.929,10.929,0,0,1-2.814-.372,10.744,10.744,0,1,1,2.814.372M48.11,36.46h0A9.142,9.142,0,1,0,60.6,39.807,9.153,9.153,0,0,0,48.11,36.46" fill="#04c"/>
        <path id="패스_291" data-name="패스 291" d="M60.659,59.019a.833.833,0,0,1-.721-.416l-2.493-4.32a.831.831,0,0,1,1.44-.831l2.493,4.32a.832.832,0,0,1-.719,1.247" fill="#04c"/>
        <path id="패스_292" data-name="패스 292" d="M58.383,58.937a2.134,2.134,0,1,1,3.7-2.127L64.222,60.5a2.139,2.139,0,1,1-3.7,2.144Z" fill="#fff"/>
        <path id="패스_293" data-name="패스 293" d="M62.38,64.532a2.981,2.981,0,0,1-2.578-1.47l-2.139-3.711A2.966,2.966,0,1,1,62.806,56.4l2.135,3.685a2.956,2.956,0,0,1-2.561,4.45m-2.159-7.969a1.3,1.3,0,0,0-1.12,1.954l0,0,2.137,3.708a1.322,1.322,0,0,0,1.788.474,1.308,1.308,0,0,0,.472-1.791l-2.135-3.684a1.318,1.318,0,0,0-1.144-.664" fill="#04c"/>
        <g id="그룹_248" data-name="그룹 248" opacity="0.9">
          <g id="그룹_247" data-name="그룹 247">
            <g id="그룹_246" data-name="그룹 246" clip-path="url(#clip-path-6)">
              <g id="그룹_245" data-name="그룹 245" opacity="0.8">
                <g id="그룹_244" data-name="그룹 244">
                  <g id="그룹_243" data-name="그룹 243" clip-path="url(#clip-path-6)">
                    <path id="패스_294" data-name="패스 294" d="M26.593,57.341a.831.831,0,0,1-.831-.831v-5.9a.831.831,0,1,1,1.662,0v5.9a.831.831,0,0,1-.831.831" fill="#ff6b00"/>
                  </g>
                </g>
              </g>
            </g>
          </g>
        </g>
        <g id="그룹_254" data-name="그룹 254" opacity="0.9">
          <g id="그룹_253" data-name="그룹 253">
            <g id="그룹_252" data-name="그룹 252" clip-path="url(#clip-path-8)">
              <g id="그룹_251" data-name="그룹 251" opacity="0.8">
                <g id="그룹_250" data-name="그룹 250">
                  <g id="그룹_249" data-name="그룹 249" clip-path="url(#clip-path-8)">
                    <path id="패스_295" data-name="패스 295" d="M30.748,57.341a.831.831,0,0,1-.831-.831V44.045a.831.831,0,0,1,1.662,0V56.51a.831.831,0,0,1-.831.831" fill="#ff6b00"/>
                  </g>
                </g>
              </g>
            </g>
          </g>
        </g>
        <g id="그룹_260" data-name="그룹 260" opacity="0.9">
          <g id="그룹_259" data-name="그룹 259">
            <g id="그룹_258" data-name="그룹 258" clip-path="url(#clip-path-10)">
              <g id="그룹_257" data-name="그룹 257" opacity="0.8">
                <g id="그룹_256" data-name="그룹 256">
                  <g id="그룹_255" data-name="그룹 255" clip-path="url(#clip-path-10)">
                    <path id="패스_296" data-name="패스 296" d="M34.9,57.341a.831.831,0,0,1-.831-.831V47.984a.831.831,0,1,1,1.662,0V56.51a.831.831,0,0,1-.831.831" fill="#ff6b00"/>
                  </g>
                </g>
              </g>
            </g>
          </g>
        </g>
      </g>
    </g>
  </g>
</svg>
