<svg xmlns="http://www.w3.org/2000/svg" xmlns:xlink="http://www.w3.org/1999/xlink" width="81.441" height="81.441" viewBox="0 0 81.441 81.441">
  <defs>
    <clipPath id="clip-path">
      <rect id="사각형_137" data-name="사각형 137" width="81.441" height="81.441" fill="none"/>
    </clipPath>
    <clipPath id="clip-path-2">
      <rect id="사각형_136" data-name="사각형 136" width="81.441" height="81.441" transform="translate(0 0)" fill="none"/>
    </clipPath>
    <clipPath id="clip-path-3">
      <rect id="사각형_132" data-name="사각형 132" width="74.294" height="70.062" transform="translate(0.831 11.025)" fill="none"/>
    </clipPath>
    <clipPath id="clip-path-4">
      <rect id="사각형_133" data-name="사각형 133" width="14.958" height="24.931" transform="translate(25.762 15.79)" fill="none"/>
    </clipPath>
    <clipPath id="clip-path-5">
      <rect id="사각형_134" data-name="사각형 134" width="2.16" height="8.026" transform="translate(39.859 54.208)" fill="none"/>
    </clipPath>
    <clipPath id="clip-path-6">
      <rect id="사각형_135" data-name="사각형 135" width="2.709" height="2.709" transform="translate(39.585 63.87)" fill="none"/>
    </clipPath>
  </defs>
  <g id="그룹_279" data-name="그룹 279" clip-path="url(#clip-path)">
    <g id="그룹_278" data-name="그룹 278">
      <g id="그룹_277" data-name="그룹 277" clip-path="url(#clip-path-2)">
        <g id="그룹_267" data-name="그룹 267" opacity="0.15">
          <g id="그룹_266" data-name="그룹 266">
            <g id="그룹_265" data-name="그룹 265" clip-path="url(#clip-path-3)">
              <path id="패스_297" data-name="패스 297" d="M75.125,61.4a39.9,39.9,0,0,1-60.5-50.372A39.893,39.893,0,1,0,75.125,61.4" fill="#05f" fill-rule="evenodd"/>
            </g>
          </g>
        </g>
        <g id="그룹_270" data-name="그룹 270" opacity="0.35">
          <g id="그룹_269" data-name="그룹 269">
            <g id="그룹_268" data-name="그룹 268" clip-path="url(#clip-path-4)">
              <path id="패스_298" data-name="패스 298" d="M33.241,15.79c4.131,0,7.479,5.581,7.479,12.465s-3.348,12.466-7.479,12.466-7.479-5.581-7.479-12.466S29.11,15.79,33.241,15.79" fill="#fb8"/>
            </g>
          </g>
        </g>
        <path id="패스_299" data-name="패스 299" d="M37.842,47.369a3.324,3.324,0,0,1,5.757,0L55.114,67.314A3.324,3.324,0,0,1,52.235,72.3H29.206a3.324,3.324,0,0,1-2.879-4.986Z" fill="#fff"/>
        <path id="패스_300" data-name="패스 300" d="M40.72,81.44A40.72,40.72,0,1,1,81.44,40.72,40.766,40.766,0,0,1,40.72,81.44m0-79.778A39.058,39.058,0,1,0,79.778,40.72,39.1,39.1,0,0,0,40.72,1.662" fill="#04c"/>
        <path id="패스_301" data-name="패스 301" d="M14.959,72.3a.376.376,0,0,1-.047,0,.829.829,0,0,1-.783-.875l.831-14.959a14.63,14.63,0,0,1,19-12.929l2.3.723a14.772,14.772,0,0,0,8.924.01l2.431-.761A14.542,14.542,0,0,1,66.48,56.493l.831,13.261a.83.83,0,0,1-.777.881.842.842,0,0,1-.882-.777L64.821,56.6a12.881,12.881,0,0,0-16.709-11.5l-2.43.761a16.449,16.449,0,0,1-9.923-.011l-2.3-.723A12.969,12.969,0,0,0,16.618,56.568l-.83,14.946a.832.832,0,0,1-.829.785" fill="#04c"/>
        <path id="패스_302" data-name="패스 302" d="M49.868,69.806H32.009a2.494,2.494,0,0,1-2.142-3.769l8.4-14.108a.831.831,0,1,1,1.428.851L31.3,66.888a.831.831,0,0,0,.713,1.256H49.868a.832.832,0,0,0,.716-1.256L42.18,52.78a.832.832,0,0,1,1.429-.851l8.4,14.108a2.494,2.494,0,0,1-2.144,3.769" fill="#04c"/>
        <g id="그룹_273" data-name="그룹 273" opacity="0.8">
          <g id="그룹_272" data-name="그룹 272">
            <g id="그룹_271" data-name="그룹 271" clip-path="url(#clip-path-5)">
              <path id="패스_303" data-name="패스 303" d="M40.939,62.234a1.081,1.081,0,0,1-1.08-1.08V55.288a1.08,1.08,0,0,1,2.16,0v5.866a1.081,1.081,0,0,1-1.08,1.08" fill="#ff6b00"/>
            </g>
          </g>
        </g>
        <g id="그룹_276" data-name="그룹 276" opacity="0.8">
          <g id="그룹_275" data-name="그룹 275">
            <g id="그룹_274" data-name="그룹 274" clip-path="url(#clip-path-6)">
              <path id="패스_304" data-name="패스 304" d="M42.294,65.224a1.354,1.354,0,1,1-1.355-1.355,1.355,1.355,0,0,1,1.355,1.355" fill="#ff6b00"/>
            </g>
          </g>
        </g>
        <path id="패스_305" data-name="패스 305" d="M40.72,41.552a11.852,11.852,0,0,1-10.415-6.269,4.034,4.034,0,0,1-3.712-3.911,3.912,3.912,0,0,1,2.347-3.556V26.74a11.78,11.78,0,1,1,23.56,0v1.076a3.911,3.911,0,0,1,2.347,3.556,4.035,4.035,0,0,1-3.72,3.926A11.854,11.854,0,0,1,40.72,41.552m0-24.931A10.13,10.13,0,0,0,30.6,26.74v2.277l-.6.173a2.311,2.311,0,0,0-1.746,2.182,2.4,2.4,0,0,0,2.493,2.285h.524l.312.471a10.124,10.124,0,0,0,18.272,0l.241-.5.558.033h0a2.409,2.409,0,0,0,2.529-2.285,2.311,2.311,0,0,0-1.746-2.182l-.6-.173V26.74A10.13,10.13,0,0,0,40.72,16.621" fill="#04c"/>
      </g>
    </g>
  </g>
</svg>
