<svg xmlns="http://www.w3.org/2000/svg" xmlns:xlink="http://www.w3.org/1999/xlink" width="78.116" height="78.116" viewBox="0 0 78.116 78.116">
  <defs>
    <clipPath id="clip-path">
      <rect id="사각형_108" data-name="사각형 108" width="78.116" height="78.116" fill="none"/>
    </clipPath>
    <clipPath id="clip-path-2">
      <rect id="사각형_107" data-name="사각형 107" width="78.116" height="78.116" transform="translate(0 0)" fill="none"/>
    </clipPath>
    <clipPath id="clip-path-3">
      <rect id="사각형_103" data-name="사각형 103" width="22.404" height="22.404" transform="translate(37.395 35.734)" fill="none"/>
    </clipPath>
    <clipPath id="clip-path-4">
      <rect id="사각형_104" data-name="사각형 104" width="2.881" height="2.881" transform="translate(26.249 32.034)" fill="none"/>
    </clipPath>
    <clipPath id="clip-path-5">
      <rect id="사각형_105" data-name="사각형 105" width="2.881" height="2.881" transform="translate(32.647 32.034)" fill="none"/>
    </clipPath>
    <clipPath id="clip-path-6">
      <rect id="사각형_106" data-name="사각형 106" width="2.881" height="2.881" transform="translate(39.063 32.034)" fill="none"/>
    </clipPath>
  </defs>
  <g id="그룹_200" data-name="그룹 200" clip-path="url(#clip-path)">
    <g id="그룹_199" data-name="그룹 199">
      <g id="그룹_198" data-name="그룹 198" clip-path="url(#clip-path-2)">
        <path id="패스_252" data-name="패스 252" d="M77.285,78.116H.831A.831.831,0,0,1,0,77.285V.831A.83.83,0,0,1,.831,0H77.285a.83.83,0,0,1,.831.831V77.285a.83.83,0,0,1-.831.831M1.662,76.454H76.454V1.662H1.662Z" fill="#04c"/>
        <path id="패스_253" data-name="패스 253" d="M38.26,35.236h22.4V57.657L54.5,50.992h-9.59a6.646,6.646,0,0,1-6.648-6.648Z" fill="#fff" fill-rule="evenodd"/>
        <path id="패스_254" data-name="패스 254" d="M60.664,35.235V34.4a.833.833,0,0,1,.831.831Zm-22.4,0h-.831a.833.833,0,0,1,.831-.831Zm22.4,22.421h.831a.827.827,0,0,1-.532.765.8.8,0,0,1-.914-.216ZM54.5,50.992v-.831a.838.838,0,0,1,.615.266Zm6.166-14.926H38.26V34.4h22.4Zm-.831-.831h1.662V49.778H59.833Zm0,14.543h1.662v1.213H59.833Zm0,1.214h1.662v6.665H59.833Zm-4.72-.565,6.166,6.664-1.23,1.114L53.9,51.557Zm-10.2-.266H54.5v1.662h-9.59Zm-5.817-5.817a5.824,5.824,0,0,0,5.817,5.817v1.662a7.48,7.48,0,0,1-7.479-7.479Zm0,0H37.429V35.236h1.662Z" fill="#04c"/>
        <g id="그룹_188" data-name="그룹 188" opacity="0.1">
          <g id="그룹_187" data-name="그룹 187">
            <g id="그룹_186" data-name="그룹 186" clip-path="url(#clip-path-3)">
              <path id="패스_255" data-name="패스 255" d="M37.4,35.734H59.8v22.4l-6.166-6.664h-9.59A6.646,6.646,0,0,1,37.4,44.825Z" fill="#05f" fill-rule="evenodd"/>
            </g>
          </g>
        </g>
        <path id="패스_256" data-name="패스 256" d="M24.1,22.438a6.646,6.646,0,0,0-6.648,6.648V54.449l8.809-9.523H42.814a6.647,6.647,0,0,0,6.648-6.649V22.438Z" fill="#fff" fill-rule="evenodd"/>
        <path id="패스_257" data-name="패스 257" d="M17.451,54.449H16.62a.81.81,0,0,0,.532.764.82.82,0,0,0,.914-.2Zm8.809-9.524v-.831a.841.841,0,0,0-.615.266Zm23.2-22.487h.831a.823.823,0,0,0-.831-.831Zm-31.18,6.648A5.823,5.823,0,0,1,24.1,23.269V21.607a7.468,7.468,0,0,0-7.479,7.479Zm0,0H16.62V43.2h1.662Zm0,14.111H16.62v1.729h1.662Zm0,1.728H16.62v9.524h1.662Zm7.363-.565-8.809,9.524,1.23,1.13,8.792-9.524Zm17.169-.266H26.26v1.662H42.814Zm5.817-5.817a5.813,5.813,0,0,1-5.817,5.817v1.662a7.479,7.479,0,0,0,7.479-7.479Zm0,0h1.662V22.438H48.631ZM24.1,23.269H49.462V21.607H24.1Z" fill="#04c"/>
        <g id="그룹_191" data-name="그룹 191" opacity="0.8">
          <g id="그룹_190" data-name="그룹 190">
            <g id="그룹_189" data-name="그룹 189" clip-path="url(#clip-path-4)">
              <path id="패스_258" data-name="패스 258" d="M27.689,32.034a1.441,1.441,0,1,1-1.441,1.441,1.441,1.441,0,0,1,1.441-1.441" fill="#ff6b00"/>
            </g>
          </g>
        </g>
        <g id="그룹_194" data-name="그룹 194" opacity="0.8">
          <g id="그룹_193" data-name="그룹 193">
            <g id="그룹_192" data-name="그룹 192" clip-path="url(#clip-path-5)">
              <path id="패스_259" data-name="패스 259" d="M34.088,32.034a1.441,1.441,0,1,1-1.441,1.441,1.44,1.44,0,0,1,1.441-1.441" fill="#ff6b00"/>
            </g>
          </g>
        </g>
        <g id="그룹_197" data-name="그룹 197" opacity="0.8">
          <g id="그룹_196" data-name="그룹 196">
            <g id="그룹_195" data-name="그룹 195" clip-path="url(#clip-path-6)">
              <path id="패스_260" data-name="패스 260" d="M40.5,32.034a1.441,1.441,0,1,1-1.441,1.441A1.44,1.44,0,0,1,40.5,32.034" fill="#ff6b00"/>
            </g>
          </g>
        </g>
      </g>
    </g>
  </g>
</svg>
