<svg xmlns="http://www.w3.org/2000/svg" xmlns:xlink="http://www.w3.org/1999/xlink" width="78.116" height="78.116" viewBox="0 0 78.116 78.116">
  <defs>
    <clipPath id="clip-path">
      <rect id="사각형_96" data-name="사각형 96" width="78.116" height="78.116" fill="none"/>
    </clipPath>
    <clipPath id="clip-path-2">
      <rect id="사각형_95" data-name="사각형 95" width="78.116" height="78.116" transform="translate(0 0)" fill="none"/>
    </clipPath>
    <clipPath id="clip-path-3">
      <rect id="사각형_93" data-name="사각형 93" width="49.861" height="59.518" transform="translate(14.127 10.804)" fill="none"/>
    </clipPath>
    <clipPath id="clip-path-4">
      <rect id="사각형_94" data-name="사각형 94" width="26.689" height="9.64" transform="translate(25.71 49.563)" fill="none"/>
    </clipPath>
  </defs>
  <g id="그룹_168" data-name="그룹 168" clip-path="url(#clip-path)">
    <g id="그룹_167" data-name="그룹 167">
      <g id="그룹_166" data-name="그룹 166" clip-path="url(#clip-path-2)">
        <path id="패스_232" data-name="패스 232" d="M77.285,78.116H.831A.831.831,0,0,1,0,77.285V.831A.83.83,0,0,1,.831,0H77.285a.83.83,0,0,1,.831.831V77.285a.83.83,0,0,1-.831.831M1.662,76.454H76.454V1.662H1.662Z" fill="#04c"/>
        <g id="그룹_162" data-name="그룹 162" opacity="0.2">
          <g id="그룹_161" data-name="그룹 161">
            <g id="그룹_160" data-name="그룹 160" clip-path="url(#clip-path-3)">
              <path id="패스_233" data-name="패스 233" d="M14.127,23.369,39.058,10.8,63.989,23.369V42.532A33.077,33.077,0,0,1,47.976,65.186l-8.918,5.136L28.781,64.754A28.24,28.24,0,0,1,14.127,42.532Z" fill="#05f"/>
            </g>
          </g>
        </g>
        <path id="패스_234" data-name="패스 234" d="M39.058,71.154a.827.827,0,0,1-.4-.1L28.385,65.484A29.03,29.03,0,0,1,13.3,42.608l0-19.238a.831.831,0,0,1,.457-.742L38.684,10.062a.822.822,0,0,1,.748,0L64.363,22.628a.829.829,0,0,1,.457.742V42.532A33.849,33.849,0,0,1,48.391,65.906l-8.919,5.137a.837.837,0,0,1-.414.111m-24.1-47.273V42.532a27.348,27.348,0,0,0,14.22,21.491l9.868,5.349,8.517-4.907A32.18,32.18,0,0,0,63.172,42.381l-.013-18.5-24.1-12.147Z" fill="#04c"/>
        <path id="패스_235" data-name="패스 235" d="M20.776,46.538l-3.324,6.648,1.662,2.493L24.1,61.5l9.972,5.818,4.987,2.493,3.324-1.662,11.634-7.48,5.817-5.817L59,51.524l-3.324-5.817-4.986-3.324H45.707l-7.479.831-6.649-1.662-6.648,1.662Z" fill="#fff"/>
        <g id="그룹_165" data-name="그룹 165" opacity="0.8">
          <g id="그룹_164" data-name="그룹 164">
            <g id="그룹_163" data-name="그룹 163" clip-path="url(#clip-path-4)">
              <path id="패스_236" data-name="패스 236" d="M33.65,58.056A4.848,4.848,0,0,1,32.2,58.9a4.76,4.76,0,0,1-1.669.3,4.683,4.683,0,0,1-1.278-.166,5.52,5.52,0,0,1-1.15-.482,5.016,5.016,0,0,1-.974-.765,4.928,4.928,0,0,1-.76-.98,4.782,4.782,0,0,1-.486-1.147,4.838,4.838,0,0,1-.168-1.28,4.932,4.932,0,0,1,.168-1.28,4.815,4.815,0,0,1,1.246-2.127,4.361,4.361,0,0,1,.974-.748,4.152,4.152,0,0,1,1.15-.482,4.693,4.693,0,0,1,1.278-.183,4.76,4.76,0,0,1,1.669.3,4.562,4.562,0,0,1,1.454.865l-.987,1.612a2.8,2.8,0,0,0-.967-.665,2.843,2.843,0,0,0-1.169-.25,2.993,2.993,0,0,0-1.155.233,3.265,3.265,0,0,0-.942.632,2.992,2.992,0,0,0-.87,2.094A2.778,2.778,0,0,0,27.8,55.53a2.909,2.909,0,0,0,.635.947,2.956,2.956,0,0,0,.942.632,2.992,2.992,0,0,0,1.155.232,3.128,3.128,0,0,0,1.169-.232,2.833,2.833,0,0,0,.967-.682Zm2.949-6.5v3.723h1.863a2.073,2.073,0,0,0,.72-.133,1.748,1.748,0,0,0,.591-.416,1.883,1.883,0,0,0,.4-.582,1.849,1.849,0,0,0,.149-.731,1.719,1.719,0,0,0-.149-.715,1.78,1.78,0,0,0-.4-.6,1.973,1.973,0,0,0-.591-.4,1.772,1.772,0,0,0-.72-.149ZM36.6,59H34.734V49.7h3.728a3.857,3.857,0,0,1,.985.133,3.339,3.339,0,0,1,.885.382,3.155,3.155,0,0,1,.753.582,3.536,3.536,0,0,1,.583.748,3.709,3.709,0,0,1,.377.9,3.423,3.423,0,0,1,.137.98,3.591,3.591,0,0,1-.293,1.446,3.694,3.694,0,0,1-.8,1.18,3.4,3.4,0,0,1-1.188.8,3.529,3.529,0,0,1-1.441.3H36.6Zm15.8-4.621a4.643,4.643,0,0,1-.175,1.28,4.576,4.576,0,0,1-.48,1.147,4.717,4.717,0,0,1-.753.98,5.015,5.015,0,0,1-.974.765,5.346,5.346,0,0,1-1.15.482,5.01,5.01,0,0,1-2.558,0,5.5,5.5,0,0,1-1.148-.482,4.956,4.956,0,0,1-.974-.765,4.891,4.891,0,0,1-.76-.98,4.7,4.7,0,0,1-.487-1.147,4.8,4.8,0,0,1-.169-1.28,4.89,4.89,0,0,1,.169-1.28,5.322,5.322,0,0,1,.487-1.147,4.786,4.786,0,0,1,.76-.963,4.919,4.919,0,0,1,.974-.765,5.4,5.4,0,0,1,1.148-.482,5.01,5.01,0,0,1,2.558,0,5.247,5.247,0,0,1,1.15.482,4.978,4.978,0,0,1,.974.765,4.616,4.616,0,0,1,.753.963,5.153,5.153,0,0,1,.48,1.147,4.733,4.733,0,0,1,.175,1.28m-1.85,0a2.9,2.9,0,0,0-.234-1.147,2.952,2.952,0,0,0-.635-.947,3.152,3.152,0,0,0-.943-.632,2.962,2.962,0,0,0-2.3,0,3.256,3.256,0,0,0-.943.632,2.971,2.971,0,0,0-.636.947,2.911,2.911,0,0,0-.233,1.147,2.793,2.793,0,0,0,.233,1.147,2.966,2.966,0,0,0,3.882,1.579,2.864,2.864,0,0,0,.943-.632,2.941,2.941,0,0,0,.635-.947,2.778,2.778,0,0,0,.234-1.147" fill="#ff6b00"/>
            </g>
          </g>
        </g>
        <path id="패스_237" data-name="패스 237" d="M30.846,28.986a8.212,8.212,0,0,1,16.424,0v1.247a2.347,2.347,0,0,1,1.76,2.227A2.42,2.42,0,0,1,46.537,34.8h-.064a8.22,8.22,0,0,1-14.829,0h-.065a2.421,2.421,0,0,1-2.493-2.343,2.347,2.347,0,0,1,1.76-2.227Z" fill="#fff" fill-rule="evenodd"/>
        <path id="패스_238" data-name="패스 238" d="M39.058,40.305a9.1,9.1,0,0,1-7.94-4.707,3.231,3.231,0,0,1-2.863-3.137,3.152,3.152,0,0,1,1.76-2.792v-.682a9.043,9.043,0,0,1,18.086,0v.682a3.152,3.152,0,0,1,1.76,2.792,3.232,3.232,0,0,1-2.867,3.145,9.1,9.1,0,0,1-7.936,4.7m0-18.7a7.389,7.389,0,0,0-7.381,7.38v1.878l-.61.169a1.52,1.52,0,0,0-1.15,1.427,1.594,1.594,0,0,0,1.662,1.512H32.1l.291.473a7.391,7.391,0,0,0,13.33,0l.226-.473h.523A1.614,1.614,0,0,0,48.2,32.461a1.52,1.52,0,0,0-1.15-1.427l-.61-.169V28.987a7.389,7.389,0,0,0-7.381-7.38" fill="#04c"/>
        <path id="패스_239" data-name="패스 239" d="M59.833,53.966a.83.83,0,0,1-.82-.7l-.029-.182a12.168,12.168,0,0,0-15.674-9.79,13.943,13.943,0,0,1-8.515-.086,12.125,12.125,0,0,0-10.372,1.289,11.976,11.976,0,0,0-5.5,8.738.84.84,0,0,1-.922.729.831.831,0,0,1-.728-.923,13.636,13.636,0,0,1,6.26-9.947,13.79,13.79,0,0,1,11.79-1.464,12.251,12.251,0,0,0,7.492.078A13.831,13.831,0,0,1,60.627,52.828l.028.179a.831.831,0,0,1-.693.949.81.81,0,0,1-.129.01" fill="#04c"/>
        <path id="패스_240" data-name="패스 240" d="M39.058,71.154a.827.827,0,0,1-.4-.1L28.385,65.484A29.03,29.03,0,0,1,13.3,42.608l0-19.238a.831.831,0,0,1,.457-.742L38.684,10.062a.822.822,0,0,1,.748,0L64.363,22.628a.829.829,0,0,1,.457.742V42.532A33.849,33.849,0,0,1,48.391,65.906l-8.919,5.137a.837.837,0,0,1-.414.111m-24.1-47.273V42.532a27.348,27.348,0,0,0,14.22,21.491l9.868,5.349,8.517-4.907A32.18,32.18,0,0,0,63.172,42.381l-.013-18.5-24.1-12.147Z" fill="#04c"/>
      </g>
    </g>
  </g>
</svg>
