<svg xmlns="http://www.w3.org/2000/svg" xmlns:xlink="http://www.w3.org/1999/xlink" width="76.511" height="88.089" viewBox="0 0 76.511 88.089">
  <defs>
    <clipPath id="clip-path">
      <rect id="사각형_68" data-name="사각형 68" width="76.511" height="88.089" fill="none"/>
    </clipPath>
    <clipPath id="clip-path-2">
      <rect id="사각형_67" data-name="사각형 67" width="76.511" height="88.089" transform="translate(0 0)" fill="none"/>
    </clipPath>
    <clipPath id="clip-path-3">
      <rect id="사각형_65" data-name="사각형 65" width="26.593" height="19.71" transform="translate(21.635 37.396)" fill="none"/>
    </clipPath>
    <clipPath id="clip-path-4">
      <rect id="사각형_66" data-name="사각형 66" width="19.321" height="18.282" transform="translate(38.256 35.734)" fill="none"/>
    </clipPath>
  </defs>
  <g id="그룹_96" data-name="그룹 96" clip-path="url(#clip-path)">
    <g id="그룹_95" data-name="그룹 95">
      <g id="그룹_94" data-name="그룹 94" clip-path="url(#clip-path-2)">
        <g id="그룹_90" data-name="그룹 90" opacity="0.2">
          <g id="그룹_89" data-name="그룹 89">
            <g id="그룹_88" data-name="그룹 88" clip-path="url(#clip-path-3)">
              <path id="패스_180" data-name="패스 180" d="M21.635,39.058A1.663,1.663,0,0,1,23.3,37.4H46.566a1.663,1.663,0,0,1,1.662,1.662v12.6c0,1.663-3.381,3.641-5.036,3.507-4.406-.349-11.191.766-19.672,1.928a1.668,1.668,0,0,1-1.885-1.645Z" fill="#05f"/>
            </g>
          </g>
        </g>
        <path id="패스_181" data-name="패스 181" d="M31.607,57.623H21.635a5.824,5.824,0,0,1-5.817-5.817V25.762a.83.83,0,0,1,.831-.831H31.293a4.145,4.145,0,0,1,3.2,1.509l3.1,3.753h18.94a.83.83,0,0,1,.831.831v5.541a.831.831,0,1,1-1.662,0v-4.71h-18.5a.832.832,0,0,1-.641-.3L33.215,27.5a2.483,2.483,0,0,0-1.922-.9H17.48V51.806a4.159,4.159,0,0,0,4.155,4.155h9.972a.831.831,0,0,1,0,1.662" fill="#04c"/>
        <path id="패스_182" data-name="패스 182" d="M29.114,31.3h-7.2a.831.831,0,1,1,0-1.662h7.2a.831.831,0,0,1,0,1.662" fill="#04c"/>
        <path id="패스_183" data-name="패스 183" d="M38.256,88.089a.822.822,0,0,1-.416-.112L.415,66.37A.828.828,0,0,1,0,65.651V22.438a.829.829,0,0,1,.415-.719L37.84.112a.828.828,0,0,1,.831,0L76.1,21.719a.829.829,0,0,1,.415.719V65.651a.828.828,0,0,1-.415.719L38.671,87.977a.821.821,0,0,1-.415.112M1.662,65.171,38.256,86.3,74.849,65.171V22.919L38.256,1.791,1.662,22.919Z" fill="#04c"/>
        <path id="패스_184" data-name="패스 184" d="M63.315,64.82H33.27a.831.831,0,0,1-.827-.915l.462-4.537a.408.408,0,0,1,.007-.052,7.064,7.064,0,0,1,8.537-5.726l4.544,1.03a10.009,10.009,0,0,0,4.34.017l4.613-1.047A7.244,7.244,0,0,1,63.669,59.3l.466,2.915.011,1.777a.831.831,0,0,1-.831.831M34.19,63.158H62.484v-.815l-.452-2.759a5.584,5.584,0,0,0-6.719-4.374L50.7,56.257a11.576,11.576,0,0,1-5.072-.017l-4.546-1.03a5.4,5.4,0,0,0-6.526,4.354Z" fill="#04c"/>
        <g id="그룹_93" data-name="그룹 93" opacity="0.8">
          <g id="그룹_92" data-name="그룹 92">
            <g id="그룹_91" data-name="그룹 91" clip-path="url(#clip-path-4)">
              <path id="패스_185" data-name="패스 185" d="M40.646,43.837a7.271,7.271,0,0,1,14.543,0v1.13a2.1,2.1,0,0,1,1.557,1.986,2.146,2.146,0,0,1-2.207,2.078h-.05a7.276,7.276,0,0,1-13.145,0h-.05a2.146,2.146,0,0,1-2.207-2.078,2.1,2.1,0,0,1,1.559-1.986Z" fill="#fff" fill-rule="evenodd"/>
              <path id="패스_186" data-name="패스 186" d="M47.917,54.017a8.152,8.152,0,0,1-7.1-4.2,2.952,2.952,0,0,1-2.558-2.866,2.911,2.911,0,0,1,1.558-2.539v-.578a8.1,8.1,0,0,1,16.206,0v.578a2.914,2.914,0,0,1,1.557,2.539,2.956,2.956,0,0,1-2.562,2.873,8.147,8.147,0,0,1-7.1,4.191m0-16.621a6.447,6.447,0,0,0-6.44,6.44v1.757l-.6.173a1.276,1.276,0,0,0-.957,1.187A1.318,1.318,0,0,0,41.294,48.2h.525l.275.474a6.445,6.445,0,0,0,11.644,0l.225-.476h.526a1.334,1.334,0,0,0,1.426-1.246,1.278,1.278,0,0,0-.957-1.187l-.6-.173V43.836a6.447,6.447,0,0,0-6.44-6.44" fill="#ff6b00"/>
            </g>
          </g>
        </g>
      </g>
    </g>
  </g>
</svg>
