<svg xmlns="http://www.w3.org/2000/svg" xmlns:xlink="http://www.w3.org/1999/xlink" width="81.441" height="81.441" viewBox="0 0 81.441 81.441">
  <defs>
    <clipPath id="clip-path">
      <rect id="사각형_58" data-name="사각형 58" width="81.441" height="81.441" fill="none"/>
    </clipPath>
    <clipPath id="clip-path-2">
      <rect id="사각형_57" data-name="사각형 57" width="81.441" height="81.441" transform="translate(0 0)" fill="none"/>
    </clipPath>
    <clipPath id="clip-path-3">
      <rect id="사각형_55" data-name="사각형 55" width="19.945" height="29.917" transform="translate(22.438 19.114)" fill="none"/>
    </clipPath>
    <clipPath id="clip-path-4">
      <rect id="사각형_56" data-name="사각형 56" width="74.294" height="70.06" transform="translate(0.831 11.026)" fill="none"/>
    </clipPath>
  </defs>
  <g id="그룹_79" data-name="그룹 79" clip-path="url(#clip-path)">
    <g id="그룹_78" data-name="그룹 78">
      <g id="그룹_77" data-name="그룹 77" clip-path="url(#clip-path-2)">
        <g id="그룹_73" data-name="그룹 73" opacity="0.35">
          <g id="그룹_72" data-name="그룹 72">
            <g id="그룹_71" data-name="그룹 71" clip-path="url(#clip-path-3)">
              <path id="패스_166" data-name="패스 166" d="M32.41,19.114c5.508,0,9.972,6.7,9.972,14.958S37.918,49.031,32.41,49.031s-9.972-6.7-9.972-14.959S26.9,19.114,32.41,19.114" fill="#fb8"/>
            </g>
          </g>
        </g>
        <path id="패스_167" data-name="패스 167" d="M41.551,51.466a15.283,15.283,0,0,1-13.516-8.238,5.056,5.056,0,0,1-4.767-4.913,4.9,4.9,0,0,1,3.08-4.512V32.156a15.2,15.2,0,0,1,30.406,0V33.8a4.9,4.9,0,0,1,3.08,4.512,5.053,5.053,0,0,1-4.772,4.922,15.28,15.28,0,0,1-13.511,8.229m0-32.851A13.556,13.556,0,0,0,28.01,32.156v2.859l-.6.173a3.3,3.3,0,0,0-2.48,3.127,3.416,3.416,0,0,0,3.532,3.277h.525l.326.473a13.546,13.546,0,0,0,24.476,0l.226-.475h.528a3.441,3.441,0,0,0,3.629-3.275,3.3,3.3,0,0,0-2.48-3.127l-.6-.173V32.156A13.556,13.556,0,0,0,41.551,18.615" fill="#04c"/>
        <g id="그룹_76" data-name="그룹 76" opacity="0.15">
          <g id="그룹_75" data-name="그룹 75">
            <g id="그룹_74" data-name="그룹 74" clip-path="url(#clip-path-4)">
              <path id="패스_168" data-name="패스 168" d="M75.125,61.4a39.9,39.9,0,0,1-60.5-50.37,39.892,39.892,0,1,0,60.5,50.37" fill="#05f" fill-rule="evenodd"/>
            </g>
          </g>
        </g>
        <path id="패스_169" data-name="패스 169" d="M14.128,70.637a.793.793,0,0,1-.108-.007A.831.831,0,0,1,13.3,69.7l.832-6.4a12.037,12.037,0,0,1,14.551-9.782l8.723,1.987a15.866,15.866,0,0,0,6.989.005l8.85-2a12.374,12.374,0,0,1,14.881,9.742l.835,5.223a.831.831,0,1,1-1.641.263l-.831-5.2a10.709,10.709,0,0,0-12.877-8.407l-8.85,2a17.528,17.528,0,0,1-7.725-.007l-8.724-1.987a10.377,10.377,0,0,0-12.538,8.406l-.827,6.368a.831.831,0,0,1-.823.724" fill="#04c"/>
        <path id="패스_170" data-name="패스 170" d="M40.72,81.44A40.72,40.72,0,1,1,81.44,40.72,40.766,40.766,0,0,1,40.72,81.44m0-79.778A39.058,39.058,0,1,0,79.778,40.72,39.1,39.1,0,0,0,40.72,1.662" fill="#04c"/>
      </g>
    </g>
  </g>
</svg>
