<svg xmlns="http://www.w3.org/2000/svg" xmlns:xlink="http://www.w3.org/1999/xlink" width="76.511" height="88.089" viewBox="0 0 76.511 88.089">
  <defs>
    <clipPath id="clip-path">
      <rect id="사각형_78" data-name="사각형 78" width="76.511" height="88.089" fill="none"/>
    </clipPath>
    <clipPath id="clip-path-2">
      <rect id="사각형_77" data-name="사각형 77" width="76.511" height="88.089" transform="translate(0 0)" fill="none"/>
    </clipPath>
    <clipPath id="clip-path-3">
      <rect id="사각형_74" data-name="사각형 74" width="19.945" height="18.698" transform="translate(17.979 20.776)" fill="none"/>
    </clipPath>
    <clipPath id="clip-path-4">
      <rect id="사각형_75" data-name="사각형 75" width="36.565" height="23.173" transform="translate(10.001 40.683)" fill="none"/>
    </clipPath>
    <clipPath id="clip-path-5">
      <rect id="사각형_76" data-name="사각형 76" width="14.958" height="9.972" transform="translate(46.566 44.045)" fill="none"/>
    </clipPath>
  </defs>
  <g id="그룹_122" data-name="그룹 122" clip-path="url(#clip-path)">
    <g id="그룹_121" data-name="그룹 121">
      <g id="그룹_120" data-name="그룹 120" clip-path="url(#clip-path-2)">
        <path id="패스_197" data-name="패스 197" d="M38.256,88.089a.822.822,0,0,1-.416-.112L.415,66.37A.828.828,0,0,1,0,65.651V22.438a.829.829,0,0,1,.415-.719L37.84.112a.828.828,0,0,1,.831,0L76.1,21.719a.829.829,0,0,1,.415.719V65.651a.828.828,0,0,1-.415.719L38.671,87.977a.821.821,0,0,1-.415.112M1.662,65.171,38.256,86.3,74.849,65.171V22.919L38.256,1.791,1.662,22.919Z" fill="#04c"/>
        <g id="그룹_113" data-name="그룹 113" opacity="0.2">
          <g id="그룹_112" data-name="그룹 112">
            <g id="그룹_111" data-name="그룹 111" clip-path="url(#clip-path-3)">
              <path id="패스_198" data-name="패스 198" d="M19.737,28.988a8.213,8.213,0,0,1,16.426,0v1.24a2.363,2.363,0,0,1,1.76,2.234A2.42,2.42,0,0,1,35.43,34.8h-.066a8.216,8.216,0,0,1-14.828,0h-.064a2.419,2.419,0,0,1-2.493-2.338,2.361,2.361,0,0,1,1.758-2.234Z" fill="#05f" fill-rule="evenodd"/>
            </g>
          </g>
        </g>
        <path id="패스_199" data-name="패스 199" d="M27.951,40.305a9.1,9.1,0,0,1-7.941-4.712,3.224,3.224,0,0,1-2.863-3.131,3.128,3.128,0,0,1,1.759-2.8v-.677a9.044,9.044,0,1,1,18.088,0v.677a3.125,3.125,0,0,1,1.759,2.8A3.229,3.229,0,0,1,35.885,35.6a9.1,9.1,0,0,1-7.934,4.7m0-18.7a7.391,7.391,0,0,0-7.384,7.382v1.865l-.6.173a1.523,1.523,0,0,0-1.159,1.435,1.594,1.594,0,0,0,1.663,1.508H21l.29.471a7.385,7.385,0,0,0,13.328,0l.247-.513.567.044a1.6,1.6,0,0,0,1.663-1.51,1.525,1.525,0,0,0-1.159-1.435l-.6-.173V28.989a7.39,7.39,0,0,0-7.382-7.382" fill="#04c"/>
        <g id="그룹_116" data-name="그룹 116" opacity="0.2">
          <g id="그룹_115" data-name="그룹 115">
            <g id="그룹_114" data-name="그룹 114" clip-path="url(#clip-path-4)">
              <path id="패스_200" data-name="패스 200" d="M10.809,49.729,10.7,51.208,10,63.856H46.565v-1.4l-.7-11.218-.026-.449a10.743,10.743,0,0,0-14.4-9.431l-.364.133a9.745,9.745,0,0,1-6.945-.108,9.73,9.73,0,0,0-13.319,8.342" fill="#05f"/>
            </g>
          </g>
        </g>
        <path id="패스_201" data-name="패스 201" d="M46.566,64.687H10a.831.831,0,0,1-.83-.876L9.98,49.67a10.558,10.558,0,0,1,14.457-9.053,8.909,8.909,0,0,0,6.352.1l.362-.133A11.575,11.575,0,0,1,46.666,50.743L47.4,62.408l0,1.448a.831.831,0,0,1-.831.831M10.879,63.025H45.735V62.46l-.728-11.616a9.913,9.913,0,0,0-13.287-8.7l-.362.133a10.554,10.554,0,0,1-7.538-.117,8.9,8.9,0,0,0-12.183,7.629l-.105,1.48Z" fill="#04c"/>
        <path id="패스_202" data-name="패스 202" d="M45.632,28.345a6.739,6.739,0,0,1,13.478,0v1.017a1.937,1.937,0,0,1,1.442,1.833,1.983,1.983,0,0,1-2.044,1.918h-.055a6.741,6.741,0,0,1-12.166,0h-.053a1.983,1.983,0,0,1-2.046-1.918,1.939,1.939,0,0,1,1.444-1.833Z" fill="#fff" fill-rule="evenodd"/>
        <path id="패스_203" data-name="패스 203" d="M52.37,37.781A7.617,7.617,0,0,1,45.759,33.9a2.79,2.79,0,0,1-2.4-2.7A2.713,2.713,0,0,1,44.8,28.81v-.464a7.569,7.569,0,1,1,15.139,0v.464A2.713,2.713,0,0,1,61.383,31.2a2.793,2.793,0,0,1-2.407,2.712,7.611,7.611,0,0,1-6.606,3.873m0-15.343a5.914,5.914,0,0,0-5.907,5.908v1.641l-.6.174a1.1,1.1,0,0,0-.845,1.035,1.158,1.158,0,0,0,1.215,1.086h.524l.28.472a5.908,5.908,0,0,0,10.666,0l.225-.472h.525A1.174,1.174,0,0,0,59.721,31.2a1.1,1.1,0,0,0-.843-1.035l-.6-.174V28.346a5.915,5.915,0,0,0-5.908-5.908" fill="#04c"/>
        <path id="패스_204" data-name="패스 204" d="M66.177,55.679a.831.831,0,0,1-.829-.782l-.511-8.676a7.127,7.127,0,0,0-9.567-6.375,8.692,8.692,0,0,1-5.791.05l-1.514-.526a5.373,5.373,0,0,0-6.816,3.289.831.831,0,1,1-1.568-.552A7.05,7.05,0,0,1,48.51,37.8l1.513.526a7,7,0,0,0,4.679-.041,8.789,8.789,0,0,1,11.785,7.689l.52,8.826a.83.83,0,0,1-.781.878.4.4,0,0,1-.049,0" fill="#04c"/>
        <path id="패스_205" data-name="패스 205" d="M45.735,54.017a.831.831,0,1,0,0-1.662ZM25.7,52.6a.817.817,0,0,0,0,1.163l5.289,5.3a.847.847,0,0,0,1.175,0,.834.834,0,0,0,0-1.18l-4.7-4.7,4.7-4.7a.834.834,0,0,0,0-1.18.847.847,0,0,0-1.175,0Zm20.035-.25H26.289v1.662H45.735Z" fill="#04c"/>
        <g id="그룹_119" data-name="그룹 119" opacity="0.8">
          <g id="그룹_118" data-name="그룹 118">
            <g id="그룹_117" data-name="그룹 117" clip-path="url(#clip-path-5)">
              <path id="패스_206" data-name="패스 206" d="M51.552,44.045a.831.831,0,0,0,0,1.662ZM47.4,52.355a.831.831,0,0,0,0,1.662Zm4.155-6.648h4.986V44.045H51.552Zm4.986,6.648H47.4v1.662h9.141Zm3.324-3.324a3.328,3.328,0,0,1-3.324,3.324v1.662a4.982,4.982,0,0,0,4.986-4.986Zm-3.324-3.324a3.328,3.328,0,0,1,3.324,3.324h1.662a4.982,4.982,0,0,0-4.986-4.986Z" fill="#ff6b00"/>
            </g>
          </g>
        </g>
      </g>
    </g>
  </g>
</svg>
