<svg xmlns="http://www.w3.org/2000/svg" xmlns:xlink="http://www.w3.org/1999/xlink" width="76.521" height="88.089" viewBox="0 0 76.521 88.089">
  <defs>
    <clipPath id="clip-path">
      <rect id="사각형_82" data-name="사각형 82" width="76.521" height="88.089" fill="none"/>
    </clipPath>
    <clipPath id="clip-path-2">
      <rect id="사각형_81" data-name="사각형 81" width="76.521" height="88.089" transform="translate(0 0)" fill="none"/>
    </clipPath>
    <clipPath id="clip-path-3">
      <rect id="사각형_79" data-name="사각형 79" width="11.634" height="24.931" transform="translate(26.626 37.396)" fill="none"/>
    </clipPath>
    <clipPath id="clip-path-4">
      <rect id="사각형_80" data-name="사각형 80" width="14.708" height="6.011" transform="translate(30.948 24.1)" fill="none"/>
    </clipPath>
  </defs>
  <g id="그룹_132" data-name="그룹 132" clip-path="url(#clip-path)">
    <g id="그룹_131" data-name="그룹 131">
      <g id="그룹_130" data-name="그룹 130" clip-path="url(#clip-path-2)">
        <g id="그룹_126" data-name="그룹 126" opacity="0.2">
          <g id="그룹_125" data-name="그룹 125">
            <g id="그룹_124" data-name="그룹 124" clip-path="url(#clip-path-3)">
              <path id="패스_207" data-name="패스 207" d="M28.288,37.4H36.6a1.663,1.663,0,0,1,1.662,1.663V60.665A1.662,1.662,0,0,1,36.6,62.327h-8.31a1.662,1.662,0,0,1-1.662-1.662V39.059A1.663,1.663,0,0,1,28.288,37.4" fill="#05f"/>
            </g>
          </g>
        </g>
        <path id="패스_208" data-name="패스 208" d="M38.261,88.089a.821.821,0,0,1-.415-.112L.415,66.37A.83.83,0,0,1,0,65.651V22.438a.831.831,0,0,1,.415-.719L37.846.112a.828.828,0,0,1,.831,0L76.105,21.719a.83.83,0,0,1,.416.719V65.651a.829.829,0,0,1-.416.719L38.677,87.977a.825.825,0,0,1-.416.112M1.662,65.171,38.261,86.3l36.6-21.128V22.919L38.261,1.791,1.662,22.919Z" fill="#04c"/>
        <g id="그룹_129" data-name="그룹 129" opacity="0.9">
          <g id="그룹_128" data-name="그룹 128">
            <g id="그룹_127" data-name="그룹 127" clip-path="url(#clip-path-4)">
              <path id="패스_209" data-name="패스 209" d="M44.825,30.108a.83.83,0,0,1-.8-.622l-.482-1.85a2.5,2.5,0,0,0-2.421-1.875H35.468a2.464,2.464,0,0,0-2.4,1.867l-.485,1.858a.83.83,0,0,1-1.607-.418l.482-1.851A4.12,4.12,0,0,1,35.468,24.1h5.651a4.165,4.165,0,0,1,4.029,3.118l.48,1.851a.827.827,0,0,1-.594,1.012.756.756,0,0,1-.209.028" fill="#ff6b00"/>
            </g>
          </g>
        </g>
        <path id="패스_210" data-name="패스 210" d="M46.089,63.541H30.516A4.131,4.131,0,0,1,26.362,59.7L24.434,34.52a.841.841,0,0,1,.219-.628.831.831,0,0,1,.61-.266H51.34a.829.829,0,0,1,.828.894L50.223,59.7a4.17,4.17,0,0,1-4.134,3.843M26.161,35.288l1.86,24.283a2.48,2.48,0,0,0,2.5,2.308H46.089a2.47,2.47,0,0,0,2.477-2.308l1.877-24.283Z" fill="#04c"/>
        <path id="패스_211" data-name="패스 211" d="M53.22,32.986a.831.831,0,0,1-.831-.831v-.831a.832.832,0,0,0-.831-.831H24.965a.832.832,0,0,0-.831.831v.831a.831.831,0,1,1-1.662,0v-.831a2.5,2.5,0,0,1,2.493-2.493H51.558a2.5,2.5,0,0,1,2.493,2.493v.831a.831.831,0,0,1-.831.831" fill="#04c"/>
        <path id="패스_212" data-name="패스 212" d="M38.011,52.931a.831.831,0,0,1-.831-.831V42.9a.831.831,0,1,1,1.662,0v9.2a.831.831,0,0,1-.831.831" fill="#04c"/>
        <path id="패스_213" data-name="패스 213" d="M32.029,55.1a.831.831,0,0,1-.831-.831V40.721a.831.831,0,1,1,1.662,0V54.267a.831.831,0,0,1-.831.831" fill="#04c"/>
        <path id="패스_214" data-name="패스 214" d="M43.994,55.1a.831.831,0,0,1-.831-.831V40.721a.831.831,0,0,1,1.662,0V54.267a.831.831,0,0,1-.831.831" fill="#04c"/>
      </g>
    </g>
  </g>
</svg>
