<svg xmlns="http://www.w3.org/2000/svg" xmlns:xlink="http://www.w3.org/1999/xlink" width="78.116" height="78.116" viewBox="0 0 78.116 78.116">
  <defs>
    <clipPath id="clip-path">
      <rect id="사각형_143" data-name="사각형 143" width="78.116" height="78.116" fill="none"/>
    </clipPath>
    <clipPath id="clip-path-2">
      <rect id="사각형_142" data-name="사각형 142" width="78.116" height="78.116" transform="translate(0 0)" fill="none"/>
    </clipPath>
    <clipPath id="clip-path-3">
      <rect id="사각형_138" data-name="사각형 138" width="36.565" height="46.039" transform="translate(12.465 19.114)" fill="none"/>
    </clipPath>
    <clipPath id="clip-path-4">
      <rect id="사각형_139" data-name="사각형 139" width="10.803" height="1.662" transform="translate(27.424 31.579)" fill="none"/>
    </clipPath>
    <clipPath id="clip-path-5">
      <rect id="사각형_140" data-name="사각형 140" width="10.803" height="1.662" transform="translate(27.424 41.551)" fill="none"/>
    </clipPath>
    <clipPath id="clip-path-6">
      <rect id="사각형_141" data-name="사각형 141" width="14.958" height="1.662" transform="translate(27.424 36.565)" fill="none"/>
    </clipPath>
  </defs>
  <g id="그룹_295" data-name="그룹 295" clip-path="url(#clip-path)">
    <g id="그룹_294" data-name="그룹 294">
      <g id="그룹_293" data-name="그룹 293" clip-path="url(#clip-path-2)">
        <g id="그룹_283" data-name="그룹 283" opacity="0.2">
          <g id="그룹_282" data-name="그룹 282">
            <g id="그룹_281" data-name="그룹 281" clip-path="url(#clip-path-3)">
              <path id="패스_306" data-name="패스 306" d="M12.465,35.369V27.524l6.582-6.947L20.22,19.53a1.68,1.68,0,0,1,1.1-.416H49.03V58.505a6.647,6.647,0,0,1-6.648,6.648H12.465Z" fill="#05f"/>
            </g>
          </g>
        </g>
        <path id="패스_307" data-name="패스 307" d="M19.114,32.228V25.1L25.1,18.782l1.024-.914a1.68,1.68,0,0,1,1.1-.416h25.13V52.671a6.658,6.658,0,0,1-6.648,6.648H19.114Z" fill="#fff"/>
        <path id="패스_308" data-name="패스 308" d="M77.285,78.116H.831A.831.831,0,0,1,0,77.285V.831A.83.83,0,0,1,.831,0H77.285a.83.83,0,0,1,.831.831V77.285a.83.83,0,0,1-.831.831M1.662,76.454H76.454V1.662H1.662Z" fill="#04c"/>
        <path id="패스_309" data-name="패스 309" d="M28.66,16.62h-.831v.831h.831ZM19.114,25.1l-.6-.565-.227.233V25.1Zm33.241-7.646h.831a.828.828,0,0,0-.831-.831ZM28.66,25.546v.831a.827.827,0,0,0,.831-.831ZM23.1,24.715a.837.837,0,0,0-.831.831.827.827,0,0,0,.831.831Zm2.6-5.369a.818.818,0,0,0-.031-1.163.832.832,0,0,0-1.175.033ZM19.114,59.318h-.831a.837.837,0,0,0,.831.831Zm16.62.831a.837.837,0,0,0,.831-.831.827.827,0,0,0-.831-.831Zm15.79-23.584a.831.831,0,0,0,1.662,0ZM18.283,32.227h1.662V25.1H18.283ZM52.355,16.62H28.661v1.662H52.355ZM27.829,25.546h1.662V17.452H27.829Zm.831-.831H23.1v1.662H28.66Zm-8.943.947L25.7,19.346l-1.206-1.13L18.51,24.532Zm.228,6.565H18.283V59.318h1.662Zm-.831,27.922H35.735V58.487H19.114Zm32.41-23.584h1.662V17.451H51.524Z" fill="#04c"/>
        <g id="그룹_286" data-name="그룹 286" opacity="0.6">
          <g id="그룹_285" data-name="그룹 285">
            <g id="그룹_284" data-name="그룹 284" clip-path="url(#clip-path-4)">
              <path id="패스_310" data-name="패스 310" d="M37.4,33.241H28.255a.831.831,0,0,1,0-1.662H37.4a.831.831,0,1,1,0,1.662" fill="#ff6b00"/>
            </g>
          </g>
        </g>
        <g id="그룹_289" data-name="그룹 289" opacity="0.6">
          <g id="그룹_288" data-name="그룹 288">
            <g id="그룹_287" data-name="그룹 287" clip-path="url(#clip-path-5)">
              <path id="패스_311" data-name="패스 311" d="M37.4,43.213H28.255a.831.831,0,0,1,0-1.662H37.4a.831.831,0,1,1,0,1.662" fill="#ff6b00"/>
            </g>
          </g>
        </g>
        <g id="그룹_292" data-name="그룹 292" opacity="0.6">
          <g id="그룹_291" data-name="그룹 291">
            <g id="그룹_290" data-name="그룹 290" clip-path="url(#clip-path-6)">
              <path id="패스_312" data-name="패스 312" d="M41.551,38.227h-13.3a.831.831,0,0,1,0-1.662h13.3a.831.831,0,0,1,0,1.662" fill="#ff6b00"/>
            </g>
          </g>
        </g>
        <path id="패스_313" data-name="패스 313" d="M40.67,51.441a.794.794,0,0,1-.127-.01.831.831,0,0,1-.695-.948A12.633,12.633,0,0,1,63.4,46.356a.831.831,0,0,1-1.459.8,10.966,10.966,0,0,0-17.368-2.485,10.8,10.8,0,0,0-3.082,6.071.83.83,0,0,1-.82.7" fill="#04c"/>
        <path id="패스_314" data-name="패스 314" d="M63.434,47.917H57.295a.831.831,0,0,1,0-1.662H62.6V40.936a.831.831,0,1,1,1.662,0v6.15a.831.831,0,0,1-.831.831" fill="#04c"/>
        <path id="패스_315" data-name="패스 315" d="M52.389,64.494a12.582,12.582,0,0,1-8.924-3.689,13.135,13.135,0,0,1-2.154-2.883.831.831,0,0,1,1.459-.8,11.45,11.45,0,0,0,1.877,2.509,10.957,10.957,0,0,0,18.573-6.1.831.831,0,0,1,1.643.254,12.6,12.6,0,0,1-12.474,10.7" fill="#04c"/>
        <path id="패스_316" data-name="패스 316" d="M41.275,64.172a.831.831,0,0,1-.831-.831v-6.15a.831.831,0,0,1,.831-.831h6.139a.831.831,0,0,1,0,1.662H42.106v5.319a.831.831,0,0,1-.831.831" fill="#04c"/>
      </g>
    </g>
  </g>
</svg>
