<svg xmlns="http://www.w3.org/2000/svg" xmlns:xlink="http://www.w3.org/1999/xlink" width="40" height="40" viewBox="0 0 40 40">
  <defs>
    <clipPath id="clip-path">
      <rect id="사각형_970" data-name="사각형 970" width="40" height="40" fill="none"/>
    </clipPath>
  </defs>
  <g id="그룹_1288" data-name="그룹 1288" clip-path="url(#clip-path)">
    <path id="패스_2235" data-name="패스 2235" d="M20,0A20,20,0,1,0,40,20,20,20,0,0,0,20,0" fill="#21c531"/>
    <path id="패스_2236" data-name="패스 2236" d="M18,11.17a10.066,10.066,0,0,0-2.486.311V9.633a3.763,3.763,0,1,0-7.526,0v11.55A10.013,10.013,0,1,0,18,11.17m0,18.52A8.507,8.507,0,0,1,9.5,21.183V9.633a2.258,2.258,0,1,1,4.515,0v11.55a3.993,3.993,0,1,0,1.5-3.123V16.279a5.5,5.5,0,1,1-3.01,4.9V9.633a.752.752,0,1,0-1.5,0v11.55a7,7,0,1,0,4.515-6.547v-1.59A8.508,8.508,0,1,1,18,29.69m-2.486-8.507A2.487,2.487,0,1,1,18,23.669a2.486,2.486,0,0,1-2.486-2.486" transform="translate(1.998 1.467)" fill="#fff"/>
  </g>
</svg>
