<svg xmlns="http://www.w3.org/2000/svg" xmlns:xlink="http://www.w3.org/1999/xlink" width="172" height="50" viewBox="0 0 172 50">
  <defs>
    <clipPath id="clip-path">
      <rect id="사각형_486" data-name="사각형 486" width="19" height="26" fill="none"/>
    </clipPath>
  </defs>
  <g id="그룹_738" data-name="그룹 738" transform="translate(-593.819 -366)">
    <rect id="사각형_472" data-name="사각형 472" width="172" height="50" rx="25" transform="translate(593.819 366)" fill="#0074c6"/>
    <g id="그룹_748" data-name="그룹 748">
      <text id="지하철_이용시" data-name="지하철 이용시" transform="translate(655.819 398)" fill="#fff" font-size="16" font-family="NotoSansCJKkr-Bold, Noto Sans CJK KR" font-weight="700" letter-spacing="-0.025em"><tspan x="0" y="0">지하철 이용시</tspan></text>
      <g id="그룹_742" data-name="그룹 742" transform="translate(605.819 379)">
        <circle id="타원_8" data-name="타원 8" cx="21" cy="21" r="21" transform="translate(-8 -9)" fill="#fff"/>
        <g id="그룹_766" data-name="그룹 766" transform="translate(3.542 -1)">
          <g id="그룹_764" data-name="그룹 764" clip-path="url(#clip-path)">
            <path id="패스_1326" data-name="패스 1326" d="M215.444,279.06a.458.458,0,1,0-.436-.457.448.448,0,0,0,.436.457" transform="translate(-200.687 -258.736)" fill="#ffe088"/>
            <path id="패스_1327" data-name="패스 1327" d="M30.885,78.949h6.4V68.688a1.139,1.139,0,0,0-1.11-1.163H22.2a1.139,1.139,0,0,0-1.11,1.163V78.949h9.791Z" transform="translate(-19.689 -62.813)" fill="#94caff"/>
            <path id="패스_1328" data-name="패스 1328" d="M22.2,257.285h13.97a1.139,1.139,0,0,0,1.11-1.163v-3.8H21.094v3.8a1.139,1.139,0,0,0,1.11,1.163m12.242-4.631a1.931,1.931,0,1,1-1.841,1.929,1.889,1.889,0,0,1,1.841-1.929m-6.793,2.386h3.072a.737.737,0,0,1,0,1.472H27.653a.737.737,0,0,1,0-1.472m-3.722-2.386a1.931,1.931,0,1,1-1.841,1.929,1.889,1.889,0,0,1,1.841-1.929" transform="translate(-19.689 -234.716)" fill="#0074c6"/>
            <path id="패스_1329" data-name="패스 1329" d="M57.579,279.06a.458.458,0,1,0-.436-.457.448.448,0,0,0,.436.457" transform="translate(-53.337 -258.736)" fill="#ffe088"/>
            <path id="패스_1330" data-name="패스 1330" d="M37.89,260.91a1.931,1.931,0,1,0-1.841-1.929,1.889,1.889,0,0,0,1.841,1.929m0-2.386a.458.458,0,1,1-.436.457.448.448,0,0,1,.436-.457" transform="translate(-33.648 -239.114)" fill="#323232"/>
            <path id="패스_1331" data-name="패스 1331" d="M195.755,260.91a1.931,1.931,0,1,0-1.841-1.929,1.889,1.889,0,0,0,1.841,1.929m0-2.386a.458.458,0,1,1-.436.457.448.448,0,0,1,.436-.457" transform="translate(-180.998 -239.114)" fill="#323232"/>
            <path id="패스_1332" data-name="패스 1332" d="M109.727,292.719H112.8a.737.737,0,0,0,0-1.472h-3.072a.737.737,0,0,0,0,1.472" transform="translate(-101.762 -270.923)" fill="#323232"/>
            <path id="패스_1333" data-name="패스 1333" d="M1.391,66.941l-.948.993a.761.761,0,0,0,0,1.041.68.68,0,0,0,.993,0L3.1,67.232H15.9l1.664,1.744a.68.68,0,0,0,.993,0,.761.761,0,0,0,0-1.041l-.948-.993A2.643,2.643,0,0,0,19,64.6V49.066a2.58,2.58,0,0,0-2.515-2.635H2.515A2.58,2.58,0,0,0,0,49.066V64.6a2.643,2.643,0,0,0,1.391,2.344m.014-17.875A1.139,1.139,0,0,1,2.515,47.9h13.97a1.139,1.139,0,0,1,1.11,1.163V59.327H1.405Zm0,11.733h16.19v3.8a1.139,1.139,0,0,1-1.11,1.163H2.515A1.139,1.139,0,0,1,1.405,64.6Z" transform="translate(0 -43.191)" fill="#323232"/>
            <path id="패스_1334" data-name="패스 1334" d="M62.4,1.472h9.376a.72.72,0,0,0,.7-.736.72.72,0,0,0-.7-.736H62.4a.72.72,0,0,0-.7.736.72.72,0,0,0,.7.736" transform="translate(-57.587)" fill="#323232"/>
            <path id="패스_1335" data-name="패스 1335" d="M133.485,68.456V57.441a.712.712,0,1,0-1.405,0V68.456a.712.712,0,1,0,1.405,0" transform="translate(-123.282 -52.665)" fill="#323232"/>
          </g>
        </g>
      </g>
    </g>
  </g>
</svg>
