<svg xmlns="http://www.w3.org/2000/svg" xmlns:xlink="http://www.w3.org/1999/xlink" width="157" height="50" viewBox="0 0 157 50">
  <defs>
    <clipPath id="clip-path">
      <rect id="사각형_485" data-name="사각형 485" width="24" height="22" fill="none"/>
    </clipPath>
  </defs>
  <g id="그룹_738" data-name="그룹 738" transform="translate(-425.361 -366)">
    <rect id="사각형_472" data-name="사각형 472" width="157" height="50" rx="25" transform="translate(425.361 366)" fill="#062350"/>
    <g id="그룹_748" data-name="그룹 748">
      <text id="택시_이용시" data-name="택시 이용시" transform="translate(487.361 398)" fill="#fff" font-size="16" font-family="NotoSansCJKkr-Bold, Noto Sans CJK KR" font-weight="700" letter-spacing="-0.025em"><tspan x="0" y="0">택시 이용시</tspan></text>
      <g id="그룹_742" data-name="그룹 742" transform="translate(437.361 379)">
        <circle id="타원_8" data-name="타원 8" cx="21" cy="21" r="21" transform="translate(-8 -9)" fill="#fff"/>
        <g id="그룹_760" data-name="그룹 760" transform="translate(1 1)">
          <g id="그룹_759" data-name="그룹 759" clip-path="url(#clip-path)">
            <path id="패스_1304" data-name="패스 1304" d="M72.5,324.107a.759.759,0,0,0,.758.759H74.97a.759.759,0,0,0,.758-.759v-.951H72.5Z" transform="translate(-68.227 -304.109)" fill="#848388"/>
            <path id="패스_1305" data-name="패스 1305" d="M78.024,229.993a.818.818,0,1,0-.817-.818.818.818,0,0,0,.817.818" transform="translate(-72.661 -214.897)" fill="#ffe088"/>
            <path id="패스_1306" data-name="패스 1306" d="M280.242,324.107a.759.759,0,0,0,.758.759h1.717a.759.759,0,0,0,.758-.759v-.951h-3.233Z" transform="translate(-263.743 -304.109)" fill="#848388"/>
            <rect id="사각형_484" data-name="사각형 484" width="4.426" height="1.146" transform="translate(9.787 1.243)" fill="#ffe088"/>
            <path id="패스_1307" data-name="패스 1307" d="M303.508,229.993a.818.818,0,1,0-.817-.818.818.818,0,0,0,.817.818" transform="translate(-284.87 -214.897)" fill="#ffe088"/>
            <path id="패스_1308" data-name="패스 1308" d="M75.324,63.719a2.6,2.6,0,0,0-2.542-2.085H62.339A2.6,2.6,0,0,0,59.8,63.719l-.761,3.791H76.085Z" transform="translate(-55.56 -58.001)" fill="#8dc6cf"/>
            <path id="패스_1309" data-name="패스 1309" d="M25.718,184.089V187.8a1.67,1.67,0,0,0,1.667,1.669H45.022A1.67,1.67,0,0,0,46.69,187.8v-3.713a1.67,1.67,0,0,0-1.668-1.669H27.385a1.67,1.67,0,0,0-1.667,1.669m17.123-.205a2.061,2.061,0,1,1-2.059,2.062,2.062,2.062,0,0,1,2.059-2.062m-8.577,2.879h3.878a.622.622,0,0,1,0,1.243H34.265a.622.622,0,0,1,0-1.243m-4.7-2.879a2.061,2.061,0,1,1-2.059,2.062,2.062,2.062,0,0,1,2.059-2.062" transform="translate(-24.204 -171.668)" fill="#999"/>
            <path id="패스_1310" data-name="패스 1310" d="M58.172,211.386a2.061,2.061,0,1,0-2.059-2.061,2.062,2.062,0,0,0,2.059,2.061m0-2.879a.818.818,0,1,1-.817.818.819.819,0,0,1,.817-.818" transform="translate(-52.809 -195.047)" fill="#323232"/>
            <path id="패스_1311" data-name="패스 1311" d="M283.656,211.386a2.061,2.061,0,1,0-2.059-2.061,2.062,2.062,0,0,0,2.059,2.061m0-2.879a.818.818,0,1,1-.817.818.819.819,0,0,1,.817-.818" transform="translate(-265.018 -195.047)" fill="#323232"/>
            <path id="패스_1312" data-name="패스 1312" d="M160.963,257.358h3.878a.622.622,0,0,0,0-1.243h-3.878a.622.622,0,0,0,0,1.243" transform="translate(-150.902 -241.019)" fill="#323232"/>
            <path id="패스_1313" data-name="패스 1313" d="M.621,8.874H2.336L2.17,9.7a2.909,2.909,0,0,0-1.9,2.721v3.713a2.907,2.907,0,0,0,2.754,2.9V20a2,2,0,0,0,2,2H6.743a2,2,0,0,0,2-2v-.951h6.514V20a2,2,0,0,0,2,2h1.717a2,2,0,0,0,2-2v-.966a2.907,2.907,0,0,0,2.754-2.9V12.421A2.909,2.909,0,0,0,21.83,9.7l-.166-.826h1.715a.622.622,0,0,0,0-1.243H21.415l-.433-2.159a3.847,3.847,0,0,0-3.76-3.083H15.455V.622A.621.621,0,0,0,14.834,0H9.166a.621.621,0,0,0-.621.622V2.389H6.778a3.847,3.847,0,0,0-3.76,3.083L2.586,7.631H.621a.622.622,0,0,0,0,1.243M7.5,20a.759.759,0,0,1-.758.759H5.026A.759.759,0,0,1,4.268,20v-.951H7.5Zm12.231,0a.759.759,0,0,1-.758.759H17.257A.759.759,0,0,1,16.5,20v-.951h3.233ZM9.787,1.243h4.426V2.389H9.787ZM4.236,5.718A2.6,2.6,0,0,1,6.778,3.633H17.222a2.6,2.6,0,0,1,2.542,2.085l.76,3.791H3.476ZM3.181,10.752H20.819a1.671,1.671,0,0,1,1.668,1.669v3.713a1.671,1.671,0,0,1-1.668,1.67H3.181a1.67,1.67,0,0,1-1.667-1.67V12.421a1.67,1.67,0,0,1,1.667-1.669" fill="#323232"/>
          </g>
        </g>
      </g>
    </g>
  </g>
</svg>
