<svg xmlns="http://www.w3.org/2000/svg" xmlns:xlink="http://www.w3.org/1999/xlink" width="40" height="40" viewBox="0 0 40 40">
  <defs>
    <clipPath id="clip-path">
      <rect id="사각형_968" data-name="사각형 968" width="40" height="40" fill="none"/>
    </clipPath>
  </defs>
  <g id="그룹_1284" data-name="그룹 1284" clip-path="url(#clip-path)">
    <path id="패스_2231" data-name="패스 2231" d="M20,0A20,20,0,1,0,40,20,20,20,0,0,0,20,0" fill="#30a6df"/>
    <path id="패스_2232" data-name="패스 2232" d="M25.952,13.547c.009.176.013.351.013.53A11.67,11.67,0,0,1,8,23.909a8.721,8.721,0,0,0,.979.056,8.22,8.22,0,0,0,5.095-1.755,4.109,4.109,0,0,1-3.831-2.85,4.224,4.224,0,0,0,.771.074,4.14,4.14,0,0,0,1.08-.144A4.11,4.11,0,0,1,8.8,15.266v-.051a4.092,4.092,0,0,0,1.86.513,4.11,4.11,0,0,1-1.27-5.479,11.644,11.644,0,0,0,8.458,4.288,4.106,4.106,0,0,1,6.991-3.743,8.206,8.206,0,0,0,2.606-1,4.111,4.111,0,0,1-1.8,2.27A8.179,8.179,0,0,0,28,11.424a8.331,8.331,0,0,1-2.048,2.124" transform="translate(2 2.375)" fill="#fff"/>
  </g>
</svg>
