<svg xmlns="http://www.w3.org/2000/svg" width="293" height="215.725" viewBox="0 0 293 215.725">
  <g id="그룹_668" data-name="그룹 668" transform="translate(0 0)">
    <rect id="사각형_415" data-name="사각형 415" width="4.756" height="4.757" transform="translate(229.589 16.184) rotate(-39.286)" fill="#84c1f4"/>
    <rect id="사각형_416" data-name="사각형 416" width="4.833" height="4.833" transform="translate(214.497 27.578) rotate(-39.285)" fill="#c7e6ff"/>
    <rect id="사각형_417" data-name="사각형 417" width="4.756" height="4.757" transform="translate(219.93 18.492) rotate(-39.286)" fill="#5c91c6"/>
    <rect id="사각형_418" data-name="사각형 418" width="4.833" height="4.833" transform="translate(212.668 59.262) rotate(-39.285)" fill="#c7e6ff"/>
    <rect id="사각형_419" data-name="사각형 419" width="4.757" height="4.756" transform="matrix(0.213, -0.977, 0.977, 0.213, 225.203, 73.353)" fill="#84c1f4"/>
    <rect id="사각형_420" data-name="사각형 420" width="4.833" height="4.833" transform="translate(217.046 72.527) rotate(-39.285)" fill="#c7e6ff"/>
    <rect id="사각형_421" data-name="사각형 421" width="4.756" height="4.757" transform="translate(228.74 78.882) rotate(-39.286)" fill="#c7e6ff"/>
    <rect id="사각형_422" data-name="사각형 422" width="4.833" height="4.834" transform="matrix(0.774, -0.633, 0.633, 0.774, 252.942, 3.413)" fill="#c7e6ff"/>
    <rect id="사각형_423" data-name="사각형 423" width="4.833" height="4.833" transform="translate(177.723 4.487) rotate(-39.285)" fill="#c7e6ff"/>
    <rect id="사각형_424" data-name="사각형 424" width="4.756" height="4.757" transform="translate(141.667 5.808) rotate(-39.286)" fill="#84c1f4"/>
    <rect id="사각형_425" data-name="사각형 425" width="4.833" height="4.833" transform="translate(216.448 35.441) rotate(-88.412)" fill="#c7e6ff"/>
    <rect id="사각형_426" data-name="사각형 426" width="4.833" height="4.833" transform="matrix(0.028, -1, 1, 0.028, 221.82, 9.664)" fill="#c7e6ff"/>
    <rect id="사각형_427" data-name="사각형 427" width="4.833" height="4.833" transform="matrix(0.028, -1, 1, 0.028, 200.36, 4.831)" fill="#c7e6ff"/>
    <rect id="사각형_428" data-name="사각형 428" width="4.756" height="4.757" transform="matrix(0.028, -1, 1, 0.028, 257.3, 78.813)" fill="#c7e6ff"/>
    <rect id="사각형_429" data-name="사각형 429" width="4.757" height="4.757" transform="matrix(0.028, -1, 1, 0.028, 229.695, 124.809)" fill="#c7e6ff"/>
    <rect id="사각형_430" data-name="사각형 430" width="4.757" height="4.757" transform="matrix(0.028, -1, 1, 0.028, 252.877, 94.754)" fill="#84c1f4"/>
    <rect id="사각형_431" data-name="사각형 431" width="4.757" height="4.757" transform="matrix(0.028, -1, 1, 0.028, 219.051, 137.689)" fill="#c7e6ff"/>
    <rect id="사각형_432" data-name="사각형 432" width="4.757" height="4.757" transform="matrix(0.028, -1, 1, 0.028, 224.907, 58.499)" fill="#5c91c6"/>
    <rect id="사각형_433" data-name="사각형 433" width="4.756" height="4.756" transform="matrix(0.028, -1, 1, 0.028, 257.104, 34.022)" fill="#84c1f4"/>
    <rect id="사각형_434" data-name="사각형 434" width="4.757" height="4.757" transform="translate(288.113 18.608) rotate(-88.41)" fill="#5c91c6"/>
    <rect id="사각형_435" data-name="사각형 435" width="4.756" height="4.757" transform="translate(225.394 107.158) rotate(-88.41)" fill="#5c91c6"/>
    <rect id="사각형_436" data-name="사각형 436" width="4.833" height="4.834" transform="translate(246.343 52.084) rotate(-88.412)" fill="#c7e6ff"/>
    <rect id="사각형_437" data-name="사각형 437" width="4.757" height="4.756" transform="translate(18.895 48.221)" fill="#5c91c6"/>
    <rect id="사각형_438" data-name="사각형 438" width="4.757" height="4.757" transform="translate(30.258 43.92)" fill="#c7e6ff"/>
    <rect id="사각형_439" data-name="사각형 439" width="4.756" height="4.757" transform="translate(12.905 58.278) rotate(-39.292)" fill="#c7e6ff"/>
    <rect id="사각형_440" data-name="사각형 440" width="4.756" height="4.757" transform="translate(67.342 43.128) rotate(-39.286)" fill="#c7e6ff"/>
    <rect id="사각형_441" data-name="사각형 441" width="4.756" height="4.756" transform="translate(67.87 55.067) rotate(-39.286)" fill="#84c1f4"/>
    <rect id="사각형_442" data-name="사각형 442" width="4.757" height="4.757" transform="translate(54.266 15.646) rotate(-39.286)" fill="#c7e6ff"/>
    <rect id="사각형_443" data-name="사각형 443" width="4.756" height="4.757" transform="translate(77.383 36.258) rotate(-39.292)" fill="#5c91c6"/>
    <rect id="사각형_444" data-name="사각형 444" width="4.756" height="4.757" transform="translate(62.508 73.619) rotate(-39.286)" fill="#c7e6ff"/>
    <rect id="사각형_445" data-name="사각형 445" width="4.756" height="4.757" transform="translate(79.71 5.604) rotate(-39.292)" fill="#84c1f4"/>
    <rect id="사각형_446" data-name="사각형 446" width="4.757" height="4.757" transform="translate(119.853 7.921) rotate(-88.41)" fill="#c7e6ff"/>
    <rect id="사각형_447" data-name="사각형 447" width="4.756" height="4.757" transform="translate(60.601 127.109) rotate(-88.41)" fill="#c7e6ff"/>
    <rect id="사각형_448" data-name="사각형 448" width="4.756" height="4.757" transform="translate(37.921 22.322) rotate(-39.286)" fill="#c7e6ff"/>
    <rect id="사각형_449" data-name="사각형 449" width="4.757" height="4.756" transform="matrix(0.774, -0.633, 0.633, 0.774, 0, 8.887)" fill="#c7e6ff"/>
    <rect id="사각형_450" data-name="사각형 450" width="4.756" height="4.756" transform="matrix(0.774, -0.633, 0.633, 0.774, 72.304, 23.38)" fill="#c7e6ff"/>
    <rect id="사각형_451" data-name="사각형 451" width="4.757" height="4.757" transform="translate(47.258 79.685) rotate(-39.292)" fill="#c7e6ff"/>
    <rect id="사각형_452" data-name="사각형 452" width="4.757" height="4.757" transform="translate(54.624 104.659) rotate(-39.292)" fill="#5c91c6"/>
    <rect id="사각형_453" data-name="사각형 453" width="4.756" height="4.757" transform="translate(35.631 124.638) rotate(-39.292)" fill="#84c1f4"/>
    <g id="그룹_667" data-name="그룹 667" transform="translate(0 0)">
      <g id="그룹_961" data-name="그룹 961">
        <path id="패스_889" data-name="패스 889" d="M204.391,109.213s.413,6.047,1.515,6.322a9.228,9.228,0,0,1-5.471,1.786,8.275,8.275,0,0,1-5.269-1.786c1.1-.275,1.515-6.322,1.515-6.322Z" transform="translate(-109.312 -61.253)" fill="#ffccb0"/>
        <path id="패스_890" data-name="패스 890" d="M202.081,75.457s3.146.756,3.4,5.228c.251,4.519-.629,10.545-6.162,11.8a8.78,8.78,0,0,1-.993.092c-.378,0-1.174-.092-1.174-.092-5.533-1.255-6.23-7.274-6.162-11.8a5.53,5.53,0,0,1,3.4-5.228,13.346,13.346,0,0,1,7.7,0" transform="translate(-106.968 -41.998)" fill="#ffccb0"/>
        <path id="패스_891" data-name="패스 891" d="M200.4,91.081c0,.645-.37,1.168-.826,1.168s-.826-.523-.826-1.168.369-1.169.826-1.169.826.523.826,1.169" transform="translate(-111.317 -50.428)" fill="#fff"/>
        <path id="패스_892" data-name="패스 892" d="M200.446,91.491a.667.667,0,1,1-.642-.848.767.767,0,0,1,.642.848" transform="translate(-111.55 -50.838)" fill="#3f332d"/>
        <path id="패스_893" data-name="패스 893" d="M207.427,91.894v2.474l-.023.7" transform="translate(-116.166 -51.54)" fill="none" stroke="#3f332d" stroke-linecap="round" stroke-linejoin="round" stroke-width="1"/>
        <path id="패스_894" data-name="패스 894" d="M196.089,86.73a4.2,4.2,0,0,1,3.166-.24" transform="translate(-109.829 -48.391)" fill="none" stroke="#3f332d" stroke-linecap="round" stroke-linejoin="round" stroke-width="1"/>
        <path id="패스_895" data-name="패스 895" d="M212.213,91.081c0,.645.37,1.168.826,1.168s.827-.523.827-1.168-.37-1.169-.827-1.169-.826.523-.826,1.169" transform="translate(-118.86 -50.428)" fill="#fff"/>
        <path id="패스_896" data-name="패스 896" d="M212.631,91.491a.667.667,0,1,0,.642-.848.767.767,0,0,0-.642.848" transform="translate(-119.094 -50.838)" fill="#3f332d"/>
        <path id="패스_897" data-name="패스 897" d="M214.592,86.73a4.2,4.2,0,0,0-3.167-.24" transform="translate(-118.419 -48.391)" fill="none" stroke="#3f332d" stroke-linecap="round" stroke-linejoin="round" stroke-width="1"/>
        <path id="패스_898" data-name="패스 898" d="M201.3,103.735s2.312,3.412,5.369,0c0,0-3.573.151-5.369,0" transform="translate(-112.748 -58.181)" fill="#fff"/>
        <path id="패스_899" data-name="패스 899" d="M201.3,103.735s2.312,3.412,5.369,0C206.67,103.735,203.1,103.886,201.3,103.735Z" transform="translate(-112.748 -58.181)" fill="none" stroke="#3f332d" stroke-linecap="round" stroke-linejoin="round" stroke-width="1"/>
        <path id="패스_900" data-name="패스 900" d="M197.366,97.2c0,.626-.755,1.134-1.687,1.134s-1.687-.508-1.687-1.134.755-1.134,1.687-1.134,1.687.508,1.687,1.134" transform="translate(-108.655 -53.88)" fill="#f9b2ac"/>
        <path id="패스_901" data-name="패스 901" d="M216.38,97.2c0,.626-.755,1.134-1.687,1.134s-1.686-.508-1.686-1.134.755-1.134,1.686-1.134,1.687.508,1.687,1.134" transform="translate(-119.305 -53.88)" fill="#f9b2ac"/>
        <path id="패스_902" data-name="패스 902" d="M199.109,112.18a6.268,6.268,0,0,0,3.534,1.328,5.943,5.943,0,0,0,3.809-1.374" transform="translate(-111.52 -62.892)" fill="none" stroke="#3f332d" stroke-linecap="round" stroke-linejoin="round" stroke-width="1"/>
        <path id="패스_903" data-name="패스 903" d="M189.746,91.859s-.964-.733-1.606-.092.413,3.619,1.835,3.069c.964-.87-.229-2.977-.229-2.977" transform="translate(-105.269 -51.321)" fill="#ffccb0"/>
        <path id="패스_904" data-name="패스 904" d="M222.166,91.859s.963-.733,1.606-.092-.413,3.619-1.836,3.069c-.963-.87.231-2.977.231-2.977" transform="translate(-124.095 -51.321)" fill="#ffccb0"/>
        <path id="패스_905" data-name="패스 905" d="M169.809,169.24c-1.606-.366-1.974-2.382-1.974-2.382-.161-.556-4.406-38.85-4.406-38.85s2.865-3.207,13.961-4.4h10.455c11.1,1.191,13.961,4.4,13.961,4.4s-4.244,38.293-4.406,38.85a3.239,3.239,0,0,1-1.845,2.382Z" transform="translate(-91.536 -69.328)" fill="#5c91c6"/>
        <path id="패스_906" data-name="패스 906" d="M175.338,227.517a62.219,62.219,0,0,0-2.02,12.645c-.183,6.047,1.1,90.985,1.1,90.985h8.811s3.3-73.759,3.3-76.325a8.982,8.982,0,0,1,1.651-4.765h.046a8.977,8.977,0,0,1,1.653,4.765c0,2.565,3.3,76.325,3.3,76.325H202s1.285-84.937,1.1-90.985a62.164,62.164,0,0,0-2.019-12.645Z" transform="translate(-97.065 -127.605)" fill="#1c262d"/>
        <path id="패스_907" data-name="패스 907" d="M180.72,466.158V463.5h-7.343v1.283c-2.846.183-3.671,2.2-3.213,2.932s5.874.55,6.976.183a33.114,33.114,0,0,0,3.58-1.741" transform="translate(-95.242 -259.96)"/>
        <path id="패스_908" data-name="패스 908" d="M220.122,466.158V463.5h7.342v1.283c2.846.183,3.671,2.2,3.213,2.932s-5.874.55-6.976.183a33.052,33.052,0,0,1-3.579-1.741" transform="translate(-123.29 -259.96)"/>
        <path id="패스_909" data-name="패스 909" d="M205.439,227.934s-.551,14.11.826,15.119" transform="translate(-115.005 -127.839)" fill="none" stroke="#3f332d" stroke-linecap="round" stroke-linejoin="round" stroke-width="1"/>
        <line id="선_15" data-name="선 15" x2="26.377" transform="translate(77.917 102.019)" fill="none" stroke="#3f332d" stroke-linecap="round" stroke-linejoin="round" stroke-width="1"/>
        <path id="패스_910" data-name="패스 910" d="M175.323,236.414a12.93,12.93,0,0,0,3.959-4.123" transform="translate(-98.198 -130.283)" fill="none" stroke="#3f332d" stroke-linecap="round" stroke-linejoin="round" stroke-width="1"/>
        <path id="패스_911" data-name="패스 911" d="M234.1,236.414a12.934,12.934,0,0,1-3.959-4.123" transform="translate(-128.901 -130.283)" fill="none" stroke="#3f332d" stroke-linecap="round" stroke-linejoin="round" stroke-width="1"/>
        <path id="패스_912" data-name="패스 912" d="M243.822,18.687a.89.89,0,0,0-.96-.4c-.674.174-.686.475-.686.475a.838.838,0,0,0-.871-.128c-.812.347-.738.878-.738.878a1.066,1.066,0,0,0-1.3.452c-.252.431.027,1.1.327,1.613a1.632,1.632,0,0,0-.573.452c-.571.779.727,2.482,1.391,3.265a2.912,2.912,0,0,0,.2.321,3.325,3.325,0,0,0,1.972,1.328l.89,1.927,4.254-1.5-.821-2.473c.7-2.582-2.018-6.351-2.018-6.351a.753.753,0,0,0-1.068.141" transform="translate(-133.795 -10.243)" fill="#ffccb0"/>
        <path id="패스_913" data-name="패스 913" d="M250.117,19.23s1.055,2.82,1.617,2.865" transform="translate(-140.09 -10.785)" fill="none" stroke="#3f332d" stroke-linecap="round" stroke-linejoin="round" stroke-width="1"/>
        <path id="패스_914" data-name="패스 914" d="M246.375,19.4c.19.3,1.231,3.278,1.868,3.5" transform="translate(-137.994 -10.883)" fill="none" stroke="#3f332d" stroke-linecap="round" stroke-linejoin="round" stroke-width="1"/>
        <path id="패스_915" data-name="패스 915" d="M244.448,26.674a8.7,8.7,0,0,0,4.762-2.028" transform="translate(-136.915 -13.823)" fill="none" stroke="#3f332d" stroke-linecap="round" stroke-linejoin="round" stroke-width="1"/>
        <path id="패스_916" data-name="패스 916" d="M242.717,21.113s1.338,3.108,1.946,3.379" transform="translate(-135.945 -11.841)" fill="none" stroke="#3f332d" stroke-linecap="round" stroke-linejoin="round" stroke-width="1"/>
        <path id="패스_917" data-name="패스 917" d="M241.058,24.65s2.364-1.386,2.928-.75-1.771,2.369-1.771,2.369a3.61,3.61,0,0,1,2.847,1.622" transform="translate(-135.016 -13.311)" fill="#ffccb0"/>
        <path id="패스_918" data-name="패스 918" d="M241.058,24.65s2.364-1.386,2.928-.75-1.771,2.369-1.771,2.369a3.61,3.61,0,0,1,2.847,1.622" transform="translate(-135.016 -13.311)" fill="none" stroke="#3f332d" stroke-linecap="round" stroke-linejoin="round" stroke-width="1"/>
        <path id="패스_919" data-name="패스 919" d="M226.851,76.878,237.5,61.009s.622-5.859-.757-20.513l4.326-1.508s8.944,10.734,5.6,29.389c-1.251,6.967-6.889,14.312-10.726,23.56Z" transform="translate(-127.059 -21.867)" fill="#5c91c6"/>
        <path id="패스_920" data-name="패스 920" d="M159.248,18.687a.891.891,0,0,1,.961-.4c.674.174.686.475.686.475a.838.838,0,0,1,.871-.128c.812.347.739.878.739.878a1.065,1.065,0,0,1,1.3.452c.252.431-.026,1.1-.327,1.613a1.634,1.634,0,0,1,.574.452c.57.779-.727,2.482-1.391,3.265a2.98,2.98,0,0,1-.2.321,3.326,3.326,0,0,1-1.973,1.328l-.89,1.927-4.254-1.5.821-2.473c-.7-2.582,2.017-6.351,2.017-6.351a.752.752,0,0,1,1.068.141" transform="translate(-87.006 -10.243)" fill="#ffccb0"/>
        <path id="패스_921" data-name="패스 921" d="M162.164,19.23s-1.055,2.82-1.616,2.865" transform="translate(-89.923 -10.785)" fill="none" stroke="#3f332d" stroke-linecap="round" stroke-linejoin="round" stroke-width="1"/>
        <path id="패스_922" data-name="패스 922" d="M165.586,19.4c-.19.3-1.23,3.278-1.868,3.5" transform="translate(-91.698 -10.883)" fill="none" stroke="#3f332d" stroke-linecap="round" stroke-linejoin="round" stroke-width="1"/>
        <path id="패스_923" data-name="패스 923" d="M163.829,26.674a8.7,8.7,0,0,1-4.762-2.028" transform="translate(-89.093 -13.823)" fill="none" stroke="#3f332d" stroke-linecap="round" stroke-linejoin="round" stroke-width="1"/>
        <path id="패스_924" data-name="패스 924" d="M169.147,21.113s-1.338,3.108-1.946,3.379" transform="translate(-93.649 -11.841)" fill="none" stroke="#3f332d" stroke-linecap="round" stroke-linejoin="round" stroke-width="1"/>
        <path id="패스_925" data-name="패스 925" d="M168.182,24.65s-2.364-1.386-2.928-.75,1.771,2.369,1.771,2.369a3.609,3.609,0,0,0-2.847,1.622" transform="translate(-91.956 -13.311)" fill="#ffccb0"/>
        <path id="패스_926" data-name="패스 926" d="M168.182,24.65s-2.364-1.386-2.928-.75,1.771,2.369,1.771,2.369a3.609,3.609,0,0,0-2.847,1.622" transform="translate(-91.956 -13.311)" fill="none" stroke="#3f332d" stroke-linecap="round" stroke-linejoin="round" stroke-width="1"/>
        <path id="패스_927" data-name="패스 927" d="M161.312,76.878,150.668,61.009s-.622-5.859.757-20.513L147.1,38.988s-8.944,10.734-5.6,29.389c1.25,6.967,6.888,14.312,10.726,23.56Z" transform="translate(-78.835 -21.867)" fill="#5c91c6"/>
        <path id="패스_928" data-name="패스 928" d="M230.214,128.479l-2.379-3.454,3.541,2.618" transform="translate(-127.61 -70.121)" fill="none" stroke="#3f332d" stroke-linecap="round" stroke-linejoin="round" stroke-width="1"/>
        <path id="패스_929" data-name="패스 929" d="M180.141,128.479l2.379-3.454-3.541,2.618" transform="translate(-100.245 -70.121)" fill="none" stroke="#3f332d" stroke-linecap="round" stroke-linejoin="round" stroke-width="1"/>
        <path id="패스_930" data-name="패스 930" d="M203.58,124.9a30.254,30.254,0,0,0-.243,7.367,63.682,63.682,0,0,1,.243,13.683c-.567,4.048-1.216,13.115-.811,16.92.263,2.463.354,6.547,1.165,7.275" transform="translate(-113.5 -70.052)" fill="none" stroke="#3f332d" stroke-linecap="round" stroke-linejoin="round" stroke-width="1"/>
        <path id="패스_931" data-name="패스 931" d="M193.159,121.084l1.785-2.024a17.665,17.665,0,0,0,4.626,1.685s3.4-.956,4.376-1.928l1.866,2.348-2.92,4.777-3.325-4.7s-2.595,4.615-2.677,4.372-3.73-4.534-3.73-4.534" transform="translate(-108.188 -66.64)" fill="#fff"/>
        <path id="패스_932" data-name="패스 932" d="M198.245,67.145a21.583,21.583,0,0,0-4.055-.971,6.39,6.39,0,0,0-5.109,1.3c-3.036,2.249-1.135,1.782-3.649,4.939s.487,4.7.568,5.02,1.46.486,3.488-.243a2.6,2.6,0,0,0,1.866-2.753c-.081-1.539,2.92-1.215,3.163-3.077s2.514-.729,2.514-.729,1.784-.729,2.433.647a14.735,14.735,0,0,1,1.378,4.7c.082,1.376.325,1.619,1.136,1.619s1.577-.829,1.947-1.619c.567-1.215-.234-2.673-.406-4.129-.324-2.753-1.135-5.1-5.271-4.7" transform="translate(-103.298 -37.07)" fill="#3f332d"/>
        <path id="패스_933" data-name="패스 933" d="M153.951,88.643c.325,0,4.109.216,4.109.216l-2.7,1.079" transform="translate(-86.228 -49.716)" fill="none" stroke="#3f332d" stroke-linecap="round" stroke-linejoin="round" stroke-width="1"/>
        <path id="패스_934" data-name="패스 934" d="M255.376,86.677a31.469,31.469,0,0,0-4.326,1.079l1.622,1.62" transform="translate(-140.612 -48.614)" fill="none" stroke="#3f332d" stroke-linecap="round" stroke-linejoin="round" stroke-width="1"/>
        <path id="패스_935" data-name="패스 935" d="M350.8,13.824a.89.89,0,0,0-1-.278c-.648.256-.622.556-.622.556a.838.838,0,0,0-.88-.02c-.763.445-.625.963-.625.963a1.065,1.065,0,0,0-1.236.608c-.2.458.162,1.087.523,1.561a1.626,1.626,0,0,0-.513.52c-.47.843,1.027,2.374,1.782,3.069a3,3,0,0,0,.24.293,3.329,3.329,0,0,0,2.121,1.075l1.12,1.8,4.037-2.012-1.12-2.354c.38-2.648-2.784-6.055-2.784-6.055a.752.752,0,0,0-1.043.271" transform="translate(-193.993 -7.547)" fill="#ffccb0"/>
        <path id="패스_936" data-name="패스 936" d="M356.457,14.293s1.395,2.67,1.957,2.645" transform="translate(-199.651 -8.016)" fill="none" stroke="#3f332d" stroke-linecap="round" stroke-linejoin="round" stroke-width="1"/>
        <path id="패스_937" data-name="패스 937" d="M352.765,14.925c.224.27,1.625,3.1,2.285,3.248" transform="translate(-197.583 -8.371)" fill="none" stroke="#3f332d" stroke-linecap="round" stroke-linejoin="round" stroke-width="1"/>
        <path id="패스_938" data-name="패스 938" d="M352.063,21.631a8.7,8.7,0,0,0,4.477-2.6" transform="translate(-197.19 -10.675)" fill="none" stroke="#3f332d" stroke-linecap="round" stroke-linejoin="round" stroke-width="1"/>
        <path id="패스_939" data-name="패스 939" d="M349.344,17.071s1.71,2.92,2.347,3.115" transform="translate(-195.667 -9.574)" fill="none" stroke="#3f332d" stroke-linecap="round" stroke-linejoin="round" stroke-width="1"/>
        <path id="패스_940" data-name="패스 940" d="M348.276,20.389s2.176-1.666,2.814-1.1-1.466,2.568-1.466,2.568a3.613,3.613,0,0,1,3.025,1.26" transform="translate(-195.068 -10.751)" fill="#ffccb0"/>
        <path id="패스_941" data-name="패스 941" d="M348.276,20.389s2.176-1.666,2.814-1.1-1.466,2.568-1.466,2.568a3.613,3.613,0,0,1,3.025,1.26" transform="translate(-195.068 -10.751)" fill="none" stroke="#3f332d" stroke-linecap="round" stroke-linejoin="round" stroke-width="1"/>
        <path id="패스_942" data-name="패스 942" d="M302.844,76.464s-3.009-2.548-4.321-8.33C296.562,59.489,304.568,59,304.568,59s8.333-3.425,12.091,1.3-1.471,9.623-1.471,9.623" transform="translate(-167.029 -32.419)" fill="#9b6b32"/>
        <path id="패스_943" data-name="패스 943" d="M285.82,222.422a63.145,63.145,0,0,0-2.05,12.835c-.186,6.138,1.118,92.354,1.118,92.354h8.944s4.054-62.628,4.822-72.818c.494-7.478,1.276-8.218,1.276-8.218a6.822,6.822,0,0,1,.656,3.563c0,2.6,3.354,77.473,3.354,77.473h8.944s1.3-86.215,1.118-92.354a63.1,63.1,0,0,0-2.05-12.835Z" transform="translate(-158.929 -124.748)" fill="#4c62a5"/>
        <path id="패스_944" data-name="패스 944" d="M323.05,222.846s.559,14.323-.838,15.346" transform="translate(-180.47 -124.986)" fill="none" stroke="#3f332d" stroke-linecap="round" stroke-linejoin="round" stroke-width="1"/>
        <line id="선_16" data-name="선 16" x2="26.774" transform="translate(126.53 99.813)" fill="none" stroke="#3f332d" stroke-linecap="round" stroke-linejoin="round" stroke-width="1"/>
        <path id="패스_945" data-name="패스 945" d="M285.8,231.453a13.129,13.129,0,0,0,4.018-4.185" transform="translate(-160.079 -127.466)" fill="none" stroke="#3f332d" stroke-linecap="round" stroke-linejoin="round" stroke-width="1"/>
        <path id="패스_946" data-name="패스 946" d="M345.465,231.453a13.129,13.129,0,0,1-4.018-4.185" transform="translate(-191.244 -127.466)" fill="none" stroke="#3f332d" stroke-linecap="round" stroke-linejoin="round" stroke-width="1"/>
        <path id="패스_947" data-name="패스 947" d="M288.681,464.653v-2.7h7.453v1.3c2.888.186,3.726,2.232,3.261,2.976s-5.962.558-7.08.186a33.59,33.59,0,0,1-3.634-1.767" transform="translate(-161.689 -259.093)" fill="#1c262d"/>
        <path id="패스_948" data-name="패스 948" d="M331.276,464.653v-2.7h7.454v1.3c2.888.186,3.726,2.232,3.261,2.976s-5.962.558-7.081.186a33.632,33.632,0,0,1-3.634-1.767" transform="translate(-185.547 -259.093)" fill="#1c262d"/>
        <path id="패스_949" data-name="패스 949" d="M279.207,169.9c.328-10.957.768-19.065.768-19.065-.165-.565-4.17-30.735-4.17-30.735s6.3-3.491,11.257-5.874a6.042,6.042,0,0,1,2.505-2.066h9.912c1.043.112,1.752,1.46,2.615,1.631,8.46,1.679,8.944,4.666,8.944,4.666s-1.921,32.251-2.086,32.816c0,0,.878,11.4,1.1,18.079l-10.866.657-1.1-4.931L296,170.228Z" transform="translate(-154.477 -62.906)" fill="#104f9b"/>
        <path id="패스_950" data-name="패스 950" d="M316.209,96.482s-.541,2.935.515,4.5c0,0-.762,2.828-3.268,3.045s-6.645-3.045-6.645-3.045a38.349,38.349,0,0,0-.218-8.753Z" transform="translate(-171.723 -51.725)" fill="#ffccb0"/>
        <path id="패스_951" data-name="패스 951" d="M316.835,68.076s3.194.767,3.447,5.307c.149,2.663-.1,5.948-1.353,8.287-.763,1.424-.913,2.836-3.268,3.37,0,0-2.259.414-2.642.414s-1.192-.094-1.192-.094c-2.3-.522-4.588-2.641-4.862-3.462a39.419,39.419,0,0,1-1.392-8.515,5.612,5.612,0,0,1,3.446-5.307,13.549,13.549,0,0,1,7.816,0" transform="translate(-171.15 -37.853)" fill="#ffccb0"/>
        <path id="패스_952" data-name="패스 952" d="M324.255,84.76l.735,2.5-.758.725" transform="translate(-181.602 -47.539)" fill="none" stroke="#3f332d" stroke-linecap="round" stroke-linejoin="round" stroke-width="1"/>
        <path id="패스_953" data-name="패스 953" d="M323.487,96.164c-3.023,4.524-5.45,0-5.45,0a13.181,13.181,0,0,1,3.027-.477,4.334,4.334,0,0,1,2.423.477" transform="translate(-178.132 -53.665)" fill="#fff"/>
        <path id="패스_954" data-name="패스 954" d="M323.487,96.164c-3.023,4.524-5.45,0-5.45,0a13.181,13.181,0,0,1,3.027-.477A4.334,4.334,0,0,1,323.487,96.164Z" transform="translate(-178.132 -53.665)" fill="none" stroke="#3f332d" stroke-linecap="round" stroke-linejoin="round" stroke-width="1"/>
        <path id="패스_955" data-name="패스 955" d="M314.043,90.147c0,.635-.766,1.151-1.712,1.151s-1.712-.516-1.712-1.151S311.385,89,312.331,89s1.712.515,1.712,1.151" transform="translate(-173.977 -49.914)" fill="#f9b2ac"/>
        <path id="패스_956" data-name="패스 956" d="M333.342,90.147c0,.635-.766,1.151-1.713,1.151s-1.712-.516-1.712-1.151S330.684,89,331.63,89s1.713.515,1.713,1.151" transform="translate(-184.786 -49.914)" fill="#f9b2ac"/>
        <path id="패스_957" data-name="패스 957" d="M304.312,84.724s-.978-.744-1.63-.093.42,3.673,1.863,3.115c.979-.884-.233-3.023-.233-3.023" transform="translate(-169.422 -47.317)" fill="#ffccb0"/>
        <path id="패스_958" data-name="패스 958" d="M312.747,79.518a4.268,4.268,0,0,1,3.214-.244" transform="translate(-175.169 -44.343)" fill="none" stroke="#3f332d" stroke-linecap="round" stroke-linejoin="round" stroke-width="1"/>
        <path id="패스_959" data-name="패스 959" d="M331.528,79.518a4.268,4.268,0,0,0-3.214-.244" transform="translate(-183.888 -44.343)" fill="none" stroke="#3f332d" stroke-linecap="round" stroke-linejoin="round" stroke-width="1"/>
        <path id="패스_960" data-name="패스 960" d="M323.2,269.094c-.22.438-2.357,3.589-2.357,3.589" transform="translate(-179.706 -150.924)" fill="none" stroke="#3f332d" stroke-linecap="round" stroke-linejoin="round" stroke-width="1"/>
        <path id="패스_961" data-name="패스 961" d="M352.094,145.432s-.823-6.574-1.811-9.2" transform="translate(-196.193 -76.405)" fill="none" stroke="#3f332d" stroke-linecap="round" stroke-linejoin="round" stroke-width="1"/>
        <path id="패스_962" data-name="패스 962" d="M316.153,116.059l-1.716,4.187-3.556-2.408a49.321,49.321,0,0,1-3.622,3.369l-5.866-4.794" transform="translate(-168.809 -65.093)" fill="none" stroke="#3f332d" stroke-linecap="round" stroke-linejoin="round" stroke-width="1"/>
        <path id="패스_963" data-name="패스 963" d="M318.591,121.756l1.117,1.821s-1.852,35.014-1.525,35.123a32.253,32.253,0,0,1,2.614,3.48l2.178-3.914-1.525-34.688.9-2.066-2.086-1.4Z" transform="translate(-178.192 -67.364)" fill="#6f4dff"/>
        <path id="패스_964" data-name="패스 964" d="M315.26,84.425l1.906.653-1.634.326" transform="translate(-176.576 -47.351)" fill="none" stroke="#3f332d" stroke-linecap="round" stroke-linejoin="round" stroke-width="1"/>
        <path id="패스_965" data-name="패스 965" d="M330.349,84.3l-1.471.435,1.743.489" transform="translate(-184.204 -47.282)" fill="none" stroke="#3f332d" stroke-linecap="round" stroke-linejoin="round" stroke-width="1"/>
        <path id="패스_966" data-name="패스 966" d="M311.8,64.729s-.817,1.468,2.451,1.957,5.392,0,5.556,1.468,3.586,4.055,4.9,2.121.817-10.765-12.744-6.2" transform="translate(-174.588 -35.212)" fill="#9b6b32"/>
        <path id="패스_967" data-name="패스 967" d="M309.565,97.3c.109.217.49,2.773,1.144,3.153s2.07,1.631,7.026,1.25" transform="translate(-173.387 -54.573)" fill="none" stroke="#3f332d" stroke-linecap="round" stroke-linejoin="round" stroke-width="1"/>
        <path id="패스_968" data-name="패스 968" d="M283.411,119.541a87.473,87.473,0,0,0,1.951,13.558c1.47,5.709,2.124,47.628,1.47,48.443s-9.477.49-9.477.49-5.228-54.968-3.431-57.741,7.608-4.152,9.486-4.751" transform="translate(-153.213 -67.046)" fill="#eaeaea"/>
        <path id="패스_969" data-name="패스 969" d="M338.01,116.4c.926,1.849,2.9,6.945,2.9,14.775,0,4.244-1.144,47.3-1.144,47.3s4.412.327,5.719-.326,2.191-54.543.654-57.741-2.846-2.976-8.129-4.01" transform="translate(-189.318 -65.284)" fill="#eaeaea"/>
        <path id="패스_970" data-name="패스 970" d="M305.319,141.467a.81.81,0,0,0-.618-.717c-.621-.134-.754.106-.754.106a.762.762,0,0,0-.657-.46c-.8-.049-.962.413-.962.413a.972.972,0,0,0-1.245-.163c-.381.249-.428.906-.4,1.448a1.493,1.493,0,0,0-.653.134c-.783.4.048,3.567.048,3.567l-.466,2.506,4.767.9.523-1.7a6.126,6.126,0,0,0,1.339-5.715.684.684,0,0,0-.927-.321" transform="translate(-167.815 -78.741)" fill="#ffccb0"/>
        <path id="패스_971" data-name="패스 971" d="M271.982,130.163c-3.458,1.726-3.193,21.1-2.741,25.824.569,5.934,4.826,9.623,11.089,8.281,7.048-2.572,6.915-20.874,6.915-20.874l-4.788-.863s-6.112-13.436-10.475-12.368" transform="translate(-150.655 -72.969)" fill="#eaeaea"/>
        <path id="패스_972" data-name="패스 972" d="M286.532,169.779c0-.246,3.533-5.759,5.653-11.142" transform="translate(-160.486 -88.973)" fill="none" stroke="#3f332d" stroke-linecap="round" stroke-linejoin="round" stroke-width="1"/>
        <path id="패스_973" data-name="패스 973" d="M283.538,181.07a4.99,4.99,0,0,1,2.305-.74" transform="translate(-158.809 -101.14)" fill="none" stroke="#3f332d" stroke-linecap="round" stroke-linejoin="round" stroke-width="1"/>
        <path id="패스_974" data-name="패스 974" d="M287.234,140.907a17.2,17.2,0,0,1,1.838,5.2s.055,5.068-.109,6.382a26.264,26.264,0,0,0,.014,3.78" transform="translate(-160.879 -79.029)" fill="none" stroke="#3f332d" stroke-linecap="round" stroke-linejoin="round" stroke-width="1"/>
        <path id="패스_975" data-name="패스 975" d="M303.55,163.719s-3.539-.411-5.1-1.479" transform="translate(-167.159 -90.994)" fill="none" stroke="#3f332d" stroke-linecap="round" stroke-linejoin="round" stroke-width="1"/>
        <path id="패스_976" data-name="패스 976" d="M283.966,178.014c-.329-.11-2.745-1.205-4.172-.11" transform="translate(-156.712 -99.509)" fill="none" stroke="#3f332d" stroke-linecap="round" stroke-linejoin="round" stroke-width="1"/>
        <path id="패스_977" data-name="패스 977" d="M277.374,201.475a8.039,8.039,0,0,0,4.9,1.957c3.758,0,6.535-4.73,6.535-4.73" transform="translate(-155.356 -111.444)" fill="none" stroke="#3f332d" stroke-linecap="round" stroke-linejoin="round" stroke-width="1"/>
        <path id="패스_978" data-name="패스 978" d="M281.831,252.84s7.516.163,9.8-.653" transform="translate(-157.853 -141.442)" fill="none" stroke="#3f332d" stroke-linecap="round" stroke-linejoin="round" stroke-width="1"/>
        <path id="패스_979" data-name="패스 979" d="M342.374,249.334a49.184,49.184,0,0,0,6.046-.489" transform="translate(-191.763 -139.568)" fill="none" stroke="#3f332d" stroke-linecap="round" stroke-linejoin="round" stroke-width="1"/>
        <path id="패스_980" data-name="패스 980" d="M338.01,68.954c1.43.1,10.907-10.888,11.56-13.715.653-5.545-2.536-20.974-2.536-20.974l3.9-2.46s9.64,13.864,9.1,26.7c-.278,6.551-14.807,28.364-14.807,28.364Z" transform="translate(-189.318 -17.839)" fill="#eaeaea"/>
        <path id="패스_981" data-name="패스 981" d="M346.033,119.874c-.762-2.175-4.03-5.981-4.03-5.981s4.575,1.414,5.991,3.588" transform="translate(-191.555 -63.878)" fill="none" stroke="#3f332d" stroke-linecap="round" stroke-linejoin="round" stroke-width="1"/>
        <path id="패스_982" data-name="패스 982" d="M359.46,38.626c.164-.054,3.649-1.2,4.521-2.61" transform="translate(-201.333 -20.2)" fill="none" stroke="#3f332d" stroke-linecap="round" stroke-linejoin="round" stroke-width="1"/>
        <path id="패스_983" data-name="패스 983" d="M405.4,159.532c-1.618-.369-1.988-2.4-1.988-2.4-.163-.561-4.438-39.135-4.438-39.135s2.886-3.231,14.063-4.43h10.531c11.178,1.2,14.064,4.43,14.064,4.43s-4.275,38.574-4.439,39.135a3.263,3.263,0,0,1-1.859,2.4Z" transform="translate(-223.465 -63.696)" fill="#b6e2ff"/>
        <path id="패스_984" data-name="패스 984" d="M410.97,218.237a62.647,62.647,0,0,0-2.034,12.737c-.185,6.092,1.109,91.652,1.109,91.652h8.876s3.328-74.3,3.328-76.884a9.044,9.044,0,0,1,1.664-4.8h.047a9.044,9.044,0,0,1,1.664,4.8c0,2.585,3.329,76.884,3.329,76.884h8.876s1.295-85.56,1.11-91.652a62.633,62.633,0,0,0-2.035-12.737Z" transform="translate(-229.034 -122.401)" fill="#22436b"/>
        <path id="패스_985" data-name="패스 985" d="M416.391,458.628v-2.677h-7.4v1.292c-2.866.185-3.7,2.215-3.236,2.954s5.917.554,7.027.185a33.323,33.323,0,0,0,3.606-1.753" transform="translate(-227.197 -255.725)" fill="#00192d"/>
        <path id="패스_986" data-name="패스 986" d="M456.081,458.628v-2.677h7.4v1.292c2.866.185,3.7,2.215,3.236,2.954s-5.917.554-7.027.185a33.361,33.361,0,0,1-3.606-1.753" transform="translate(-255.45 -255.725)" fill="#00192d"/>
        <path id="패스_987" data-name="패스 987" d="M441.292,218.658s-.555,14.214.832,15.229" transform="translate(-247.105 -122.637)" fill="none" stroke="#3f332d" stroke-linecap="round" stroke-linejoin="round" stroke-width="1"/>
        <line id="선_17" data-name="선 17" x2="26.57" transform="translate(181.578 97.959)" fill="none" stroke="#3f332d" stroke-linecap="round" stroke-linejoin="round" stroke-width="1"/>
        <path id="패스_988" data-name="패스 988" d="M410.955,227.2a13.029,13.029,0,0,0,3.987-4.153" transform="translate(-230.175 -125.097)" fill="none" stroke="#3f332d" stroke-linecap="round" stroke-linejoin="round" stroke-width="1"/>
        <path id="패스_989" data-name="패스 989" d="M470.163,227.2a13.014,13.014,0,0,1-3.988-4.153" transform="translate(-261.103 -125.097)" fill="none" stroke="#3f332d" stroke-linecap="round" stroke-linejoin="round" stroke-width="1"/>
        <path id="패스_990" data-name="패스 990" d="M426.308,72.28a13.376,13.376,0,0,1-2.774-13.568c1.387-4.153,5.824-4.707,8.182-4.568,0,0,2.219-.139,2.913-1.108,0,0,1.109,1.385.277,1.938,0,0,2.357-.138,2.912-1.246,0,0,1.664,2.077.971,3.323,0,0,1.936,1.746,1.664,5.538-.277,3.877.139,8.03-5.27,10.245a10.676,10.676,0,0,1-8.876-.554" transform="translate(-236.79 -29.746)" fill="#3f332d"/>
        <path id="패스_991" data-name="패스 991" d="M440.237,99.065s.416,6.092,1.526,6.369a9.3,9.3,0,0,1-5.511,1.8,8.336,8.336,0,0,1-5.307-1.8c1.11-.277,1.526-6.369,1.526-6.369Z" transform="translate(-241.371 -55.562)" fill="#ffccb0"/>
        <path id="패스_992" data-name="패스 992" d="M437.909,65.063s3.17.761,3.42,5.267c.253,4.552-.633,10.622-6.207,11.887a8.874,8.874,0,0,1-1,.093c-.38,0-1.183-.093-1.183-.093-5.573-1.265-6.275-7.328-6.207-11.887a5.569,5.569,0,0,1,3.42-5.267,13.447,13.447,0,0,1,7.757,0" transform="translate(-239.009 -36.166)" fill="#ffccb0"/>
        <path id="패스_993" data-name="패스 993" d="M436.212,80.8c0,.65-.373,1.177-.832,1.177s-.832-.527-.832-1.177.373-1.177.832-1.177.832.527.832,1.177" transform="translate(-243.389 -44.657)" fill="#fff"/>
        <path id="패스_994" data-name="패스 994" d="M436.262,81.213a.672.672,0,1,1-.647-.854.772.772,0,0,1,.647.854" transform="translate(-243.624 -45.07)" fill="#3f332d"/>
        <path id="패스_995" data-name="패스 995" d="M443.294,81.62v2.492l-.023.7" transform="translate(-248.275 -45.777)" fill="none" stroke="#3f332d" stroke-linecap="round" stroke-linejoin="round" stroke-width="1"/>
        <path id="패스_996" data-name="패스 996" d="M431.873,76.417a4.235,4.235,0,0,1,3.19-.242" transform="translate(-241.891 -42.605)" fill="none" stroke="#3f332d" stroke-linecap="round" stroke-linejoin="round" stroke-width="1"/>
        <path id="패스_997" data-name="패스 997" d="M448.115,80.8c0,.65.373,1.177.833,1.177s.832-.527.832-1.177-.373-1.177-.832-1.177-.833.527-.833,1.177" transform="translate(-250.988 -44.657)" fill="#fff"/>
        <path id="패스_998" data-name="패스 998" d="M448.535,81.213a.672.672,0,1,0,.648-.854.772.772,0,0,0-.648.854" transform="translate(-251.223 -45.07)" fill="#3f332d"/>
        <path id="패스_999" data-name="패스 999" d="M450.511,76.417a4.235,4.235,0,0,0-3.19-.242" transform="translate(-250.543 -42.605)" fill="none" stroke="#3f332d" stroke-linecap="round" stroke-linejoin="round" stroke-width="1"/>
        <path id="패스_1000" data-name="패스 1000" d="M437.123,93.548a5.018,5.018,0,0,0,5.409,0" transform="translate(-244.832 -52.467)" fill="none" stroke="#3f332d" stroke-linecap="round" stroke-linejoin="round" stroke-width="1"/>
        <path id="패스_1001" data-name="패스 1001" d="M433.159,86.966c0,.631-.76,1.142-1.7,1.142s-1.7-.512-1.7-1.142.76-1.142,1.7-1.142,1.7.512,1.7,1.142" transform="translate(-240.709 -48.135)" fill="#f9b2ac"/>
        <path id="패스_1002" data-name="패스 1002" d="M452.311,86.966c0,.631-.76,1.142-1.7,1.142s-1.7-.512-1.7-1.142.761-1.142,1.7-1.142,1.7.512,1.7,1.142" transform="translate(-251.435 -48.135)" fill="#f9b2ac"/>
        <path id="패스_1003" data-name="패스 1003" d="M434.916,102.054a6.315,6.315,0,0,0,3.56,1.338,5.986,5.986,0,0,0,3.836-1.384" transform="translate(-243.595 -57.212)" fill="none" stroke="#3f332d" stroke-linecap="round" stroke-linejoin="round" stroke-width="1"/>
        <path id="패스_1004" data-name="패스 1004" d="M425.483,81.585s-.971-.739-1.618-.092.417,3.646,1.849,3.092c.971-.877-.231-3-.231-3" transform="translate(-237.297 -45.557)" fill="#ffccb0"/>
        <path id="패스_1005" data-name="패스 1005" d="M458.142,81.585s.971-.739,1.618-.092-.416,3.646-1.849,3.092c-.97-.877.232-3,.232-3" transform="translate(-256.262 -45.557)" fill="#ffccb0"/>
        <path id="패스_1006" data-name="패스 1006" d="M432.422,63.313s7.489,3.6,10.748.415c-.26-2.815-2.986-2.917-4.835-2.978-2.787-.092-6.7,1.142-5.913,2.562" transform="translate(-242.141 -34.07)" fill="#3f332d"/>
        <path id="패스_1007" data-name="패스 1007" d="M507.532,3a.9.9,0,0,0-.681-.8c-.685-.151-.833.114-.833.114a.842.842,0,0,0-.724-.512c-.888-.058-1.065.452-1.065.452a1.074,1.074,0,0,0-1.375-.187c-.423.273-.478,1-.443,1.6a1.655,1.655,0,0,0-.722.145c-.868.44-.481,2.56-.242,3.566a2.941,2.941,0,0,0,.034.379,3.343,3.343,0,0,0,1.164,2.091l-.082,2.136,4.507.59.393-2.6c1.811-2,1.091-6.623,1.091-6.623A.758.758,0,0,0,507.532,3" transform="translate(-280.694 -1.013)" fill="#ffccb0"/>
        <path id="패스_1008" data-name="패스 1008" d="M515.507,4.533s-.342,3.013.142,3.309" transform="translate(-288.668 -2.542)" fill="none" stroke="#3f332d" stroke-linecap="round" stroke-linejoin="round" stroke-width="1"/>
        <path id="패스_1009" data-name="패스 1009" d="M512.031,2.981c.035.352-.394,3.5.076,4" transform="translate(-286.705 -1.672)" fill="none" stroke="#3f332d" stroke-linecap="round" stroke-linejoin="round" stroke-width="1"/>
        <path id="패스_1010" data-name="패스 1010" d="M505.986,10.955a8.766,8.766,0,0,0,5.2.348" transform="translate(-283.401 -6.144)" fill="none" stroke="#3f332d" stroke-linecap="round" stroke-linejoin="round" stroke-width="1"/>
        <path id="패스_1011" data-name="패스 1011" d="M508.078,2.845s-.219,3.4.2,3.922" transform="translate(-284.541 -1.596)" fill="none" stroke="#3f332d" stroke-linecap="round" stroke-linejoin="round" stroke-width="1"/>
        <path id="패스_1012" data-name="패스 1012" d="M504.513,6.3s2.757-.167,2.973.66-2.673,1.32-2.673,1.32a3.629,3.629,0,0,1,1.815,2.753" transform="translate(-282.576 -3.525)" fill="#ffccb0"/>
        <path id="패스_1013" data-name="패스 1013" d="M504.513,6.3s2.757-.167,2.973.66-2.673,1.32-2.673,1.32a3.629,3.629,0,0,1,1.815,2.753" transform="translate(-282.576 -3.525)" fill="none" stroke="#3f332d" stroke-linecap="round" stroke-linejoin="round" stroke-width="1"/>
        <path id="패스_1014" data-name="패스 1014" d="M400.853,219.24a.9.9,0,0,0,.851-.611c.207-.669-.045-.838-.045-.838a.841.841,0,0,0,.57-.678c.132-.88-.363-1.1-.363-1.1a1.07,1.07,0,0,0,.3-1.353c-.237-.443-.958-.558-1.559-.574a1.634,1.634,0,0,0-.085-.73c-.367-.9-3.834-.264-3.834-.264l-2.887-1.9-1.049,5.818,1.484,1.2a6.8,6.8,0,0,0,6.173,2.022.755.755,0,0,0,.443-.989" transform="translate(-219.98 -118.45)" fill="#ffccb0"/>
        <path id="패스_1015" data-name="패스 1015" d="M462.861,64.628S472.882,50.166,481.117,25l4.507.59s.6,19.955-13.614,54.208Z" transform="translate(-259.247 -14.022)" fill="#b6e2ff"/>
        <path id="패스_1016" data-name="패스 1016" d="M466.248,118.473l-2.4-3.479,3.567,2.637" transform="translate(-259.802 -64.496)" fill="none" stroke="#3f332d" stroke-linecap="round" stroke-linejoin="round" stroke-width="1"/>
        <path id="패스_1017" data-name="패스 1017" d="M379.354,123.656s-16.045,14.408-15.391,23.053c.349,4.613,12.613,21.206,12.613,21.206l3.486-4.241L376.544,147.8l6.078-8.263s-.218-14.574-3.268-15.878" transform="translate(-203.844 -69.354)" fill="#b6e2ff"/>
        <path id="패스_1018" data-name="패스 1018" d="M403.049,152.264a81.656,81.656,0,0,1,.245-8.237" transform="translate(-225.742 -80.779)" fill="none" stroke="#3f332d" stroke-linecap="round" stroke-linejoin="round" stroke-width="1"/>
        <path id="패스_1019" data-name="패스 1019" d="M380.575,172.252s3.758,2.175,4,2.8a37.646,37.646,0,0,0-6.291-1.414" transform="translate(-211.878 -96.609)" fill="none" stroke="#3f332d" stroke-linecap="round" stroke-linejoin="round" stroke-width="1"/>
        <path id="패스_1020" data-name="패스 1020" d="M446.518,182.773s8.5-9.3,10.13-19.247" transform="translate(-250.094 -91.715)" fill="none" stroke="#3f332d" stroke-linecap="round" stroke-linejoin="round" stroke-width="1"/>
        <line id="선_18" data-name="선 18" x1="2.614" y2="7.829" transform="translate(203.614 65.286)" fill="none" stroke="#3f332d" stroke-linecap="round" stroke-linejoin="round" stroke-width="1"/>
        <path id="패스_1021" data-name="패스 1021" d="M246.84,143.319c2.63-1.061,4.208-6.769.3-9.3s-.827-2.854-1.052-9.542a10.669,10.669,0,0,0-14.332-10.439,11.674,11.674,0,0,0-6.988,10.439c-.226,6.688,2.855,7.013-1.053,9.542s-2.329,8.236.3,9.3" transform="translate(-123.986 -63.617)" fill="#9b6b32"/>
        <path id="패스_1022" data-name="패스 1022" d="M224.781,255.6s-3.921,7.829-3.921,15.169c0,5.734,1.414,83.841,1.414,83.841h8.351s3.131-69.9,3.131-72.335a8.509,8.509,0,0,1,1.566-4.516h.044a8.51,8.51,0,0,1,1.566,4.516c0,2.432,3.132,72.335,3.132,72.335h8.351s.873-77.294,1.044-83.025c.2-6.685-4.253-15.985-4.253-15.985Z" transform="translate(-123.703 -143.355)" fill="#527eaa"/>
        <path id="패스_1023" data-name="패스 1023" d="M228.694,483.58v-2.518h-6.959v1.216c-2.7.174-3.48,2.084-3.045,2.778s5.568.521,6.611.174a31.4,31.4,0,0,0,3.393-1.65" transform="translate(-122.425 -269.809)" fill="#00192d"/>
        <path id="패스_1024" data-name="패스 1024" d="M266.036,483.58v-2.518h6.959v1.216c2.7.174,3.48,2.084,3.045,2.778s-5.567.521-6.611.174a31.439,31.439,0,0,1-3.393-1.65" transform="translate(-149.006 -269.809)" fill="#00192d"/>
        <path id="패스_1025" data-name="패스 1025" d="M252.256,255.969s-.6,14.182.7,15.137" transform="translate(-141.211 -143.563)" fill="none" stroke="#3f332d" stroke-linecap="round" stroke-linejoin="round" stroke-width="1"/>
        <line id="선_19" data-name="선 19" y1="0.054" x2="22.439" transform="translate(100.098 115.45)" fill="none" stroke="#3f332d" stroke-linecap="round" stroke-linejoin="round" stroke-width="1"/>
        <path id="패스_1026" data-name="패스 1026" d="M224.7,266.669c.1,0,3.6-1.55,3.867-3.643" transform="translate(-125.852 -147.521)" fill="none" stroke="#3f332d" stroke-linecap="round" stroke-linejoin="round" stroke-width="1"/>
        <path id="패스_1027" data-name="패스 1027" d="M276.494,266.451a9.078,9.078,0,0,1-3.758-3.425" transform="translate(-152.759 -147.521)" fill="none" stroke="#3f332d" stroke-linecap="round" stroke-linejoin="round" stroke-width="1"/>
        <path id="패스_1028" data-name="패스 1028" d="M244.373,207.393c4.572-33.338,5.339-33.465,5.339-33.465-3.676-3.507-10.123-4.279-10.123-4.279H229.5s-6.447.772-10.123,4.279c0,0,0,.126,4.575,33.465Z" transform="translate(-122.871 -95.15)" fill="#dee3ff"/>
        <path id="패스_1029" data-name="패스 1029" d="M251.129,156s.392,5.731,1.435,5.992l-5.105,6.589L242.387,162c1.043-.261,1.435-5.992,1.435-5.992Z" transform="translate(-135.76 -87.497)" fill="#ffccb0"/>
        <path id="패스_1030" data-name="패스 1030" d="M248.938,124.014s2.982.716,3.218,4.955c.239,4.283-.6,9.993-5.839,11.183a8.325,8.325,0,0,1-.942.087c-.358,0-1.113-.087-1.113-.087-5.244-1.19-5.9-6.894-5.84-11.183a5.24,5.24,0,0,1,3.218-4.955,12.65,12.65,0,0,1,7.3,0" transform="translate(-133.538 -69.248)" fill="#ffccb0"/>
        <path id="패스_1031" data-name="패스 1031" d="M247.343,138.82c0,.612-.351,1.107-.783,1.107s-.783-.5-.783-1.107.35-1.107.783-1.107.783.5.783,1.107" transform="translate(-137.659 -77.238)" fill="#fff"/>
        <path id="패스_1032" data-name="패스 1032" d="M247.389,139.208a.633.633,0,1,1-.609-.8.727.727,0,0,1,.609.8" transform="translate(-137.879 -77.626)" fill="#3f332d"/>
        <path id="패스_1033" data-name="패스 1033" d="M254.006,139.592v2.345l-.022.662" transform="translate(-142.256 -78.292)" fill="none" stroke="#3f332d" stroke-linecap="round" stroke-linejoin="round" stroke-width="1"/>
        <path id="패스_1034" data-name="패스 1034" d="M243.261,134.7a3.982,3.982,0,0,1,3-.228" transform="translate(-136.25 -75.307)" fill="none" stroke="#3f332d" stroke-linecap="round" stroke-linejoin="round" stroke-width="1"/>
        <path id="패스_1035" data-name="패스 1035" d="M258.541,138.82c0,.612.351,1.107.783,1.107s.783-.5.783-1.107-.351-1.107-.783-1.107-.783.5-.783,1.107" transform="translate(-144.808 -77.238)" fill="#fff"/>
        <path id="패스_1036" data-name="패스 1036" d="M258.937,139.208a.632.632,0,1,0,.609-.8.727.727,0,0,0-.609.8" transform="translate(-145.03 -77.626)" fill="#3f332d"/>
        <path id="패스_1037" data-name="패스 1037" d="M260.8,134.7a3.983,3.983,0,0,0-3-.228" transform="translate(-144.39 -75.307)" fill="none" stroke="#3f332d" stroke-linecap="round" stroke-linejoin="round" stroke-width="1"/>
        <path id="패스_1038" data-name="패스 1038" d="M248.2,150.813a4.721,4.721,0,0,0,5.089,0" transform="translate(-139.016 -84.585)" fill="none" stroke="#3f332d" stroke-linecap="round" stroke-linejoin="round" stroke-width="1"/>
        <path id="패스_1039" data-name="패스 1039" d="M244.471,144.621c0,.594-.716,1.075-1.6,1.075s-1.6-.481-1.6-1.075.715-1.075,1.6-1.075,1.6.481,1.6,1.075" transform="translate(-135.137 -80.509)" fill="#f9b2ac"/>
        <path id="패스_1040" data-name="패스 1040" d="M262.49,144.621c0,.594-.715,1.075-1.6,1.075s-1.6-.481-1.6-1.075.715-1.075,1.6-1.075,1.6.481,1.6,1.075" transform="translate(-145.229 -80.509)" fill="#f9b2ac"/>
        <path id="패스_1041" data-name="패스 1041" d="M237.249,139.558s-.914-.695-1.522-.087.391,3.43,1.74,2.909c.914-.825-.218-2.822-.218-2.822" transform="translate(-131.928 -78.084)" fill="#ffccb0"/>
        <path id="패스_1042" data-name="패스 1042" d="M267.975,139.558s.913-.695,1.522-.087-.392,3.43-1.74,2.909c-.913-.825.218-2.822.218-2.822" transform="translate(-149.77 -78.084)" fill="#ffccb0"/>
        <path id="패스_1043" data-name="패스 1043" d="M237.734,180.2a.8.8,0,0,0-.614-.712c-.615-.133-.747.106-.747.106a.757.757,0,0,0-.652-.456c-.8-.048-.955.41-.955.41a.965.965,0,0,0-1.236-.162c-.378.246-.425.9-.391,1.437a1.479,1.479,0,0,0-.648.134c-.777.4.048,3.54.048,3.54l.015,2.733,4.254.65.519-1.69a6.076,6.076,0,0,0,1.329-5.671.68.68,0,0,0-.921-.318" transform="translate(-130.031 -100.467)" fill="#ffccb0"/>
        <path id="패스_1044" data-name="패스 1044" d="M237.569,127.476s5.392-1.876,7.353-5.3c0,0-.245,3.262-1.225,4.077,0,0,4-.815,4.085-3.425,0,0,2.56,4.7,4.112,5.029a11.645,11.645,0,0,0-.109-3.806c-.408-2.039-2.859-5.138-8.006-4.649s-7.353,6.2-6.209,8.074" transform="translate(-132.897 -66.939)" fill="#9b6b32"/>
        <path id="패스_1045" data-name="패스 1045" d="M245.1,158.7a7.84,7.84,0,0,0,3.717,1.284,8.228,8.228,0,0,0,4.064-1.223" transform="translate(-137.278 -89.009)" fill="none" stroke="#3f332d" stroke-linecap="round" stroke-linejoin="round" stroke-width="1"/>
        <path id="패스_1046" data-name="패스 1046" d="M213.513,179.393s-5.024,14.993-4.575,19.682c.564,5.889,4.493,10.276,8.006,9.623s6.862-20.715,6.862-20.715l-4.275-.61Z" transform="translate(-117.01 -100.615)" fill="#dee3ff"/>
        <path id="패스_1047" data-name="패스 1047" d="M217.889,209.674c0-.245,3.623-8.968,6.672-12.11" transform="translate(-122.039 -110.806)" fill="none" stroke="#3f332d" stroke-linecap="round" stroke-linejoin="round" stroke-width="1"/>
        <path id="패스_1048" data-name="패스 1048" d="M234.765,198.954s-.327,17.453-6.291,20.47" transform="translate(-127.968 -111.586)" fill="none" stroke="#3f332d" stroke-linecap="round" stroke-linejoin="round" stroke-width="1"/>
        <path id="패스_1049" data-name="패스 1049" d="M213.988,222.532a4.952,4.952,0,0,1,2.287-.734" transform="translate(-119.854 -124.398)" fill="none" stroke="#3f332d" stroke-linecap="round" stroke-linejoin="round" stroke-width="1"/>
        <path id="패스_1050" data-name="패스 1050" d="M219.684,179.64a17.082,17.082,0,0,1,1.824,5.165,32.115,32.115,0,0,1,.245,5.519c-.245,1.386-.817,4.4-.817,4.649" transform="translate(-123.044 -100.753)" fill="none" stroke="#3f332d" stroke-linecap="round" stroke-linejoin="round" stroke-width="1"/>
        <path id="패스_1051" data-name="패스 1051" d="M261.3,180.2a.8.8,0,0,1,.614-.712c.615-.133.748.106.748.106a.756.756,0,0,1,.652-.456c.8-.048.954.41.954.41a.965.965,0,0,1,1.236-.162c.378.246.425.9.391,1.437a1.478,1.478,0,0,1,.648.134c.777.4-.048,3.54-.048,3.54l-.014,2.733-4.255.65-.519-1.69a6.079,6.079,0,0,1-1.329-5.671.68.68,0,0,1,.921-.318" transform="translate(-145.718 -100.467)" fill="#ffccb0"/>
        <path id="패스_1052" data-name="패스 1052" d="M275.107,179.393s5.024,14.993,4.575,19.682c-.564,5.889-4.493,10.276-8.006,9.623s-6.862-20.715-6.862-20.715l4.275-.61Z" transform="translate(-148.321 -100.615)" fill="#dee3ff"/>
        <path id="패스_1053" data-name="패스 1053" d="M281.2,209.674c0-.245-3.623-8.968-6.672-12.11" transform="translate(-153.764 -110.806)" fill="none" stroke="#3f332d" stroke-linecap="round" stroke-linejoin="round" stroke-width="1"/>
        <path id="패스_1054" data-name="패스 1054" d="M264.812,198.954s.327,17.453,6.291,20.47" transform="translate(-148.32 -111.586)" fill="none" stroke="#3f332d" stroke-linecap="round" stroke-linejoin="round" stroke-width="1"/>
        <path id="패스_1055" data-name="패스 1055" d="M290.686,222.532a4.953,4.953,0,0,0-2.288-.734" transform="translate(-161.531 -124.398)" fill="none" stroke="#3f332d" stroke-linecap="round" stroke-linejoin="round" stroke-width="1"/>
        <path id="패스_1056" data-name="패스 1056" d="M285.568,179.64a17.068,17.068,0,0,0-1.824,5.165s-.055,5.029.109,6.334a31.762,31.762,0,0,1,.164,3.181" transform="translate(-158.919 -100.753)" fill="none" stroke="#3f332d" stroke-linecap="round" stroke-linejoin="round" stroke-width="1"/>
        <path id="패스_1057" data-name="패스 1057" d="M344.829,483.175v-2.518l-5.682.159-1.278,1.057c-2.7.173-3.479,2.084-3.044,2.778s5.567.521,6.611.174a31.36,31.36,0,0,0,3.393-1.65" transform="translate(-187.472 -269.582)"/>
        <path id="패스_1058" data-name="패스 1058" d="M344.475,337.278l-1.3,62.959h0l-1.278,1.219a16.041,16.041,0,0,0,4.055.045c.817-.285,2.9-1.261,2.9-1.261l4.776-61.984Z" transform="translate(-191.492 -189.166)" fill="#ffccb0"/>
        <path id="패스_1059" data-name="패스 1059" d="M390.14,483.175v-2.518l5.682.159,1.277,1.057c2.7.173,3.479,2.084,3.045,2.778s-5.567.521-6.611.174a31.359,31.359,0,0,1-3.393-1.65" transform="translate(-218.516 -269.582)"/>
        <path id="패스_1060" data-name="패스 1060" d="M388.434,337.278l1.3,62.959h0l1.277,1.219a16.042,16.042,0,0,1-4.055.045c-.817-.285-2.9-1.261-2.9-1.261l-4.776-61.984Z" transform="translate(-212.436 -189.166)" fill="#ffccb0"/>
        <path id="패스_1061" data-name="패스 1061" d="M366.343,208.552c1.634-.245,2.369-3.67,1.879-6.606s2.34-11.362,2.614-24.846c-.928-1.767-9.277-3.9-9.277-3.9H351.467a12.883,12.883,0,0,0-8.653,3.287s2.288,23.663,1.634,26.518-.082,4.73,1.47,5.545Z" transform="translate(-192.009 -97.14)" fill="#6593ef"/>
        <path id="패스_1062" data-name="패스 1062" d="M369.132,313.838c.185-15.024.357-41.932.423-44.149.2-6.685-4.253-15.985-4.253-15.985H344.878s-3.921,7.829-3.921,15.169c0,2.245.217,29.561.48,44.965Z" transform="translate(-190.969 -142.293)" fill="#003a8e"/>
        <path id="패스_1063" data-name="패스 1063" d="M316.331,148.209a11.157,11.157,0,0,0,1.307-3.113,1.818,1.818,0,0,0-1.184-1.835,1.073,1.073,0,0,0-.694-.118,2.321,2.321,0,0,0-1.349-1.187A3.252,3.252,0,0,0,311.1,144c-.49,1.142.817,9.052.817,9.052s2.628.236,3.595-.408c-.082-.734-.463-2.16-.463-2.392a2.982,2.982,0,0,0,1.28-2.039" transform="translate(-174.186 -79.613)" fill="#ffccb0"/>
        <path id="패스_1064" data-name="패스 1064" d="M319.229,149.983c-.137.152-.368,1.876.368,1.427a2.435,2.435,0,0,0,1.007-1.549" transform="translate(-178.718 -84.051)" fill="none" stroke="#3f332d" stroke-linecap="round" stroke-linejoin="round" stroke-width="1"/>
        <path id="패스_1065" data-name="패스 1065" d="M315.235,147.256a9.615,9.615,0,0,1,1.811-.992c.49-.2,1.185.707,1.185.707" transform="translate(-176.562 -82.017)" fill="none" stroke="#3f332d" stroke-linecap="round" stroke-linejoin="round" stroke-width="1"/>
        <line id="선_20" data-name="선 20" x1="0.803" y2="0.53" transform="translate(139.599 66.299)" fill="none" stroke="#3f332d" stroke-linecap="round" stroke-linejoin="round" stroke-width="1"/>
        <path id="패스_1066" data-name="패스 1066" d="M317.482,144.424s-.681-.68-1.144-.693-.776.1-2.124.938" transform="translate(-175.99 -80.612)" fill="none" stroke="#3f332d" stroke-linecap="round" stroke-linejoin="round" stroke-width="1"/>
        <path id="패스_1067" data-name="패스 1067" d="M321.858,144.785s.109,2.474.436,2.352.695-.693.695-.693" transform="translate(-180.272 -81.204)" fill="none" stroke="#3f332d" stroke-linecap="round" stroke-linejoin="round" stroke-width="1"/>
        <path id="패스_1068" data-name="패스 1068" d="M319.662,153.482a2.128,2.128,0,0,1,0,2.446" transform="translate(-179.042 -86.082)" fill="none" stroke="#3f332d" stroke-linecap="round" stroke-linejoin="round" stroke-width="1"/>
        <path id="패스_1069" data-name="패스 1069" d="M310.356,163.706c-1.444,1.142-.545,3.1-.354,3.493-1.116.856-2.941,23.121.98,24.589s12.827-2.039,14.379-3.67l1.226-5.546-2.941-11.621-6.658,6.729s-.83-10.548-2.164-10.983a2.463,2.463,0,0,0-.9-3.371,6.733,6.733,0,0,1-3.568.381" transform="translate(-172.841 -91.603)" fill="#6593ef"/>
        <path id="패스_1070" data-name="패스 1070" d="M352.195,172.4s-4.977-.668-8.081,2.675a3.152,3.152,0,0,0,2.614,2.284c2.287.489,4.248-1.142,6.617.571s6.617,2.2,8.578,0,5.959.023,7.157-3.266c-.762-1.794-4.793-2.909-7.389-2.892-4.248.245-9.5.628-9.5.628" transform="translate(-192.737 -96.342)" fill="#fff285"/>
        <path id="패스_1071" data-name="패스 1071" d="M351.7,134.9c-.109.435-4.9,6.742,3.377,12.614,0,0,.432.761,6.318.761,3.812,0,3.813-.544,5.228-1.2s4.9-3.371,4.139-10.874c-.37-3.637-19.062-1.305-19.062-1.305" transform="translate(-196.16 -75.247)" fill="#3f332d"/>
        <path id="패스_1072" data-name="패스 1072" d="M371.226,159.561a27.388,27.388,0,0,0,.909,5.326c.377.975-1.526,2.359-4.658,2.359a7.839,7.839,0,0,1-4.993-1.693c1.043-.26,1.435-5.992,1.435-5.992Z" transform="translate(-203.026 -89.492)" fill="#ffccb0"/>
        <path id="패스_1073" data-name="패스 1073" d="M369.036,127.57s2.982.716,3.218,4.955c.238,4.283-.6,9.993-5.84,11.184a8.352,8.352,0,0,1-.942.087c-.358,0-1.113-.087-1.113-.087-5.244-1.19-5.9-6.895-5.84-11.184a5.24,5.24,0,0,1,3.218-4.955,12.651,12.651,0,0,1,7.3,0" transform="translate(-200.804 -71.243)" fill="#ffccb0"/>
        <path id="패스_1074" data-name="패스 1074" d="M367.44,142.376c0,.612-.351,1.107-.783,1.107s-.783-.5-.783-1.107.35-1.107.783-1.107.783.5.783,1.107" transform="translate(-204.926 -79.232)" fill="#fff"/>
        <path id="패스_1075" data-name="패스 1075" d="M367.486,142.764a.633.633,0,1,1-.609-.8.727.727,0,0,1,.609.8" transform="translate(-205.146 -79.62)" fill="#3f332d"/>
        <path id="패스_1076" data-name="패스 1076" d="M374.1,143.148v2.345l-.022.662" transform="translate(-209.522 -80.286)" fill="none" stroke="#3f332d" stroke-linecap="round" stroke-linejoin="round" stroke-width="1"/>
        <path id="패스_1077" data-name="패스 1077" d="M363.358,138.253a3.985,3.985,0,0,1,3-.228" transform="translate(-203.516 -77.302)" fill="none" stroke="#3f332d" stroke-linecap="round" stroke-linejoin="round" stroke-width="1"/>
        <path id="패스_1078" data-name="패스 1078" d="M378.639,142.376c0,.612.351,1.107.783,1.107s.783-.5.783-1.107-.35-1.107-.783-1.107-.783.5-.783,1.107" transform="translate(-212.075 -79.232)" fill="#fff"/>
        <path id="패스_1079" data-name="패스 1079" d="M379.034,142.764a.632.632,0,1,0,.609-.8.727.727,0,0,0-.609.8" transform="translate(-212.296 -79.62)" fill="#3f332d"/>
        <path id="패스_1080" data-name="패스 1080" d="M380.894,138.253a3.986,3.986,0,0,0-3-.228" transform="translate(-211.657 -77.302)" fill="none" stroke="#3f332d" stroke-linecap="round" stroke-linejoin="round" stroke-width="1"/>
        <path id="패스_1081" data-name="패스 1081" d="M368.3,154.37s2.4,3.28,5.089,0Z" transform="translate(-206.282 -86.58)" fill="#fff"/>
        <path id="패스_1082" data-name="패스 1082" d="M368.3,154.37s2.4,3.28,5.089,0Z" transform="translate(-206.282 -86.58)" fill="none" stroke="#3f332d" stroke-linecap="round" stroke-linejoin="round" stroke-width="1"/>
        <path id="패스_1083" data-name="패스 1083" d="M364.568,148.178c0,.594-.715,1.075-1.6,1.075s-1.6-.481-1.6-1.075.716-1.075,1.6-1.075,1.6.481,1.6,1.075" transform="translate(-202.403 -82.504)" fill="#f9b2ac"/>
        <path id="패스_1084" data-name="패스 1084" d="M382.587,148.178c0,.594-.716,1.075-1.6,1.075s-1.6-.481-1.6-1.075.715-1.075,1.6-1.075,1.6.481,1.6,1.075" transform="translate(-212.495 -82.504)" fill="#f9b2ac"/>
        <path id="패스_1085" data-name="패스 1085" d="M357.347,143.114s-.914-.7-1.522-.087.391,3.43,1.74,2.909c.913-.825-.218-2.822-.218-2.822" transform="translate(-199.194 -80.079)" fill="#ffccb0"/>
        <path id="패스_1086" data-name="패스 1086" d="M388.072,143.114s.913-.7,1.522-.087-.392,3.43-1.74,2.909c-.913-.825.218-2.822.218-2.822" transform="translate(-217.036 -80.079)" fill="#ffccb0"/>
        <path id="패스_1087" data-name="패스 1087" d="M365.192,162.257a7.842,7.842,0,0,0,3.717,1.284,8.228,8.228,0,0,0,4.064-1.223" transform="translate(-204.543 -91.004)" fill="none" stroke="#3f332d" stroke-linecap="round" stroke-linejoin="round" stroke-width="1"/>
        <path id="패스_1088" data-name="패스 1088" d="M362.927,122.407s-12.744,8.808-8.6,15.006c0,0-9.368-4.132-2.615-14.788,4.685-5.872,9.792-4.571,11.329-3.045.974.967-.109,2.827-.109,2.827" transform="translate(-195.62 -66.343)" fill="#3f332d"/>
        <path id="패스_1089" data-name="패스 1089" d="M378.1,124.006s5.664,7.5,2.614,13.81c0,0,4.357-1.522,4.466-4.459,1.783-7.68-4.03-12.722-7.407-12.179s.326,2.827.326,2.827" transform="translate(-210.796 -67.942)" fill="#3f332d"/>
        <path id="패스_1090" data-name="패스 1090" d="M311.8,171.5s3.023.476,4.82-.5" transform="translate(-174.638 -95.908)" fill="none" stroke="#3f332d" stroke-linecap="round" stroke-linejoin="round" stroke-width="1"/>
        <path id="패스_1091" data-name="패스 1091" d="M344.176,196.011c.109.326.191,7.53.626,10.6" transform="translate(-192.772 -109.935)" fill="none" stroke="#3f332d" stroke-linecap="round" stroke-linejoin="round" stroke-width="1"/>
        <path id="패스_1092" data-name="패스 1092" d="M325.356,202.372c.981-1.794,1.021-6.361,1.021-6.361s2.247,5.056,1.757,6.85" transform="translate(-182.231 -109.935)" fill="none" stroke="#3f332d" stroke-linecap="round" stroke-linejoin="round" stroke-width="1"/>
        <path id="패스_1093" data-name="패스 1093" d="M384.288,354.623a183.977,183.977,0,0,0,1.961-20.443" transform="translate(-215.239 -187.429)" fill="none" stroke="#3f332d" stroke-linecap="round" stroke-linejoin="round" stroke-width="1"/>
        <path id="패스_1094" data-name="패스 1094" d="M365.585,346.065c-.218,1.087-6.536,16.311-10.022,17.833" transform="translate(-199.15 -194.094)" fill="none" stroke="#3f332d" stroke-linecap="round" stroke-linejoin="round" stroke-width="1"/>
        <path id="패스_1095" data-name="패스 1095" d="M358.285,205.478a.926.926,0,1,1-.926-.924.925.925,0,0,1,.926.924" transform="translate(-199.637 -114.726)" fill="#fff285"/>
        <path id="패스_1096" data-name="패스 1096" d="M351.352,223.554a.926.926,0,1,1-.926-.924.925.925,0,0,1,.926.924" transform="translate(-195.754 -124.865)" fill="#fff285"/>
        <path id="패스_1097" data-name="패스 1097" d="M362.493,235.687a.926.926,0,1,1-.926-.924.925.925,0,0,1,.926.924" transform="translate(-201.994 -131.669)" fill="#fff285"/>
        <path id="패스_1098" data-name="패스 1098" d="M374.875,221.326a.926.926,0,1,1-.926-.924.925.925,0,0,1,.926.924" transform="translate(-208.929 -123.615)" fill="#fff285"/>
        <path id="패스_1099" data-name="패스 1099" d="M375.866,200.774a.926.926,0,1,1-.926-.924.925.925,0,0,1,.926.924" transform="translate(-209.484 -112.088)" fill="#fff285"/>
        <path id="패스_1100" data-name="패스 1100" d="M394.931,213.03a.926.926,0,1,1-.926-.924.925.925,0,0,1,.926.924" transform="translate(-220.163 -118.962)" fill="#fff285"/>
        <path id="패스_1101" data-name="패스 1101" d="M396.171,195.2a.926.926,0,1,1-.926-.924.925.925,0,0,1,.926.924" transform="translate(-220.857 -108.962)" fill="#fff285"/>
        <path id="패스_1102" data-name="패스 1102" d="M358.16,190.373a.926.926,0,1,1-.926-.924.925.925,0,0,1,.926.924" transform="translate(-199.567 -106.255)" fill="#fff285"/>
        <path id="패스_1103" data-name="패스 1103" d="M338.722,189.135a.926.926,0,1,1-.926-.924.925.925,0,0,1,.926.924" transform="translate(-188.68 -105.56)" fill="#fff285"/>
        <path id="패스_1104" data-name="패스 1104" d="M339.712,209.687a.926.926,0,1,1-.926-.924.925.925,0,0,1,.926.924" transform="translate(-189.235 -117.087)" fill="#fff285"/>
        <path id="패스_1105" data-name="패스 1105" d="M328.818,221.078a.926.926,0,1,1-.926-.924.925.925,0,0,1,.926.924" transform="translate(-183.133 -123.476)" fill="#fff285"/>
        <path id="패스_1106" data-name="패스 1106" d="M312.97,210.925a.926.926,0,1,1-.926-.924.925.925,0,0,1,.926.924" transform="translate(-174.256 -117.781)" fill="#fff285"/>
        <path id="패스_1107" data-name="패스 1107" d="M320.152,198.545a.926.926,0,1,1-.926-.924.925.925,0,0,1,.926.924" transform="translate(-178.279 -110.838)" fill="#fff285"/>
        <path id="패스_1108" data-name="패스 1108" d="M313.713,183.935a.926.926,0,1,1-.926-.924.925.925,0,0,1,.926.924" transform="translate(-174.673 -102.644)" fill="#fff285"/>
        <path id="패스_1109" data-name="패스 1109" d="M321.637,175.516a.926.926,0,1,1-.926-.924.925.925,0,0,1,.926.924" transform="translate(-179.111 -97.922)" fill="#fff285"/>
        <path id="패스_1110" data-name="패스 1110" d="M422.9,148.209a11.15,11.15,0,0,1-1.307-3.113,1.819,1.819,0,0,1,1.185-1.835,1.072,1.072,0,0,1,.694-.118,2.32,2.32,0,0,1,1.348-1.187A3.253,3.253,0,0,1,428.129,144c.49,1.142-.817,9.052-.817,9.052s-2.628.236-3.595-.408c.082-.734.463-2.16.463-2.392a2.984,2.984,0,0,1-1.28-2.039" transform="translate(-236.118 -79.613)" fill="#ffccb0"/>
        <path id="패스_1111" data-name="패스 1111" d="M426.563,149.983c.137.152.368,1.876-.368,1.427a2.435,2.435,0,0,1-1.007-1.549" transform="translate(-238.147 -84.051)" fill="none" stroke="#3f332d" stroke-linecap="round" stroke-linejoin="round" stroke-width="1"/>
        <path id="패스_1112" data-name="패스 1112" d="M428.679,147.256a9.613,9.613,0,0,0-1.811-.992c-.49-.2-1.185.707-1.185.707" transform="translate(-238.424 -82.017)" fill="none" stroke="#3f332d" stroke-linecap="round" stroke-linejoin="round" stroke-width="1"/>
        <line id="선_21" data-name="선 21" x2="0.803" y2="0.53" transform="translate(188.526 66.299)" fill="none" stroke="#3f332d" stroke-linecap="round" stroke-linejoin="round" stroke-width="1"/>
        <path id="패스_1113" data-name="패스 1113" d="M426.086,144.424s.681-.68,1.144-.693.776.1,2.124.938" transform="translate(-238.65 -80.612)" fill="none" stroke="#3f332d" stroke-linecap="round" stroke-linejoin="round" stroke-width="1"/>
        <path id="패스_1114" data-name="패스 1114" d="M424.431,144.785s-.109,2.474-.436,2.352-.695-.693-.695-.693" transform="translate(-237.089 -81.204)" fill="none" stroke="#3f332d" stroke-linecap="round" stroke-linejoin="round" stroke-width="1"/>
        <path id="패스_1115" data-name="패스 1115" d="M427.543,153.482a2.128,2.128,0,0,0,0,2.446" transform="translate(-239.235 -86.082)" fill="none" stroke="#3f332d" stroke-linecap="round" stroke-linejoin="round" stroke-width="1"/>
        <path id="패스_1116" data-name="패스 1116" d="M414.459,163.706c1.443,1.142.545,3.1.354,3.493,1.116.856,2.941,23.121-.981,24.589s-12.826-2.039-14.378-3.67l-1.226-5.546,3.544-11.169,6.055,6.277s.831-10.548,2.165-10.983a2.463,2.463,0,0,1,.9-3.371,6.733,6.733,0,0,0,3.568.381" transform="translate(-223.046 -91.603)" fill="#6593ef"/>
        <path id="패스_1117" data-name="패스 1117" d="M429.791,171.5s-3.023.476-4.82-.5" transform="translate(-238.025 -95.908)" fill="none" stroke="#3f332d" stroke-linecap="round" stroke-linejoin="round" stroke-width="1"/>
        <path id="패스_1118" data-name="패스 1118" d="M418.746,202.372c-.981-1.794-1.021-6.361-1.021-6.361s-2.247,5.056-1.757,6.85" transform="translate(-232.943 -109.935)" fill="none" stroke="#3f332d" stroke-linecap="round" stroke-linejoin="round" stroke-width="1"/>
        <path id="패스_1119" data-name="패스 1119" d="M416.553,221.078a.926.926,0,1,0,.926-.924.925.925,0,0,0-.926.924" transform="translate(-233.31 -123.476)" fill="#fff285"/>
        <path id="패스_1120" data-name="패스 1120" d="M432.4,210.925a.926.926,0,1,0,.926-.924.925.925,0,0,0-.926.924" transform="translate(-242.186 -117.781)" fill="#fff285"/>
        <path id="패스_1121" data-name="패스 1121" d="M425.219,198.545a.926.926,0,1,0,.926-.924.925.925,0,0,0-.926.924" transform="translate(-238.164 -110.838)" fill="#fff285"/>
        <path id="패스_1122" data-name="패스 1122" d="M431.657,183.935a.926.926,0,1,0,.926-.924.925.925,0,0,0-.926.924" transform="translate(-241.77 -102.644)" fill="#fff285"/>
        <path id="패스_1123" data-name="패스 1123" d="M423.733,175.516a.926.926,0,1,0,.926-.924.925.925,0,0,0-.926.924" transform="translate(-237.332 -97.922)" fill="#fff285"/>
        <path id="패스_1124" data-name="패스 1124" d="M390.352,230.488a.926.926,0,1,1-.926-.924.925.925,0,0,1,.926.924" transform="translate(-217.598 -128.754)" fill="#fff285"/>
        <path id="패스_1125" data-name="패스 1125" d="M378.342,243.116a.926.926,0,1,1-.926-.924.925.925,0,0,1,.926.924" transform="translate(-210.871 -135.836)" fill="#fff285"/>
        <path id="패스_1126" data-name="패스 1126" d="M396.789,247.325a.926.926,0,1,1-.926-.924.925.925,0,0,1,.926.924" transform="translate(-221.203 -138.197)" fill="#fff285"/>
        <path id="패스_1127" data-name="패스 1127" d="M355.685,248.068a.926.926,0,1,1-.926-.924.925.925,0,0,1,.926.924" transform="translate(-198.181 -138.613)" fill="#fff285"/>
        <path id="패스_1128" data-name="패스 1128" d="M401.128,187.344a118.645,118.645,0,0,1,.867,14.187" transform="translate(-224.671 -105.074)" fill="none" stroke="#3f332d" stroke-linecap="round" stroke-linejoin="round" stroke-width="1"/>
        <g id="그룹_962" data-name="그룹 962">
          <rect id="사각형_454" data-name="사각형 454" width="293" height="215" transform="translate(0 0.362)" fill="none"/>
        </g>
      </g>
    </g>
  </g>
</svg>
