<svg xmlns="http://www.w3.org/2000/svg" xmlns:xlink="http://www.w3.org/1999/xlink" width="942" height="252" viewBox="0 0 942 252">
  <defs>
    <clipPath id="clip-path">
      <rect id="사각형_671" data-name="사각형 671" width="121" height="86" transform="translate(0 0.001)" fill="none"/>
    </clipPath>
    <clipPath id="clip-path-2">
      <rect id="사각형_672" data-name="사각형 672" width="119" height="107" transform="translate(0 0)" fill="none"/>
    </clipPath>
    <clipPath id="clip-path-3">
      <rect id="사각형_689" data-name="사각형 689" width="96" height="117" transform="translate(0 0)" fill="none"/>
    </clipPath>
    <clipPath id="clip-path-4">
      <rect id="사각형_694" data-name="사각형 694" width="109" height="118" fill="none"/>
    </clipPath>
  </defs>
  <g id="목표" transform="translate(-289 -301)">
    <g id="협력과_연대" data-name="협력과 연대">
      <circle id="타원_1" data-name="타원 1" cx="126" cy="126" r="126" transform="translate(289 301)" fill="#00489e" opacity="0.8"/>
      <g id="벡터_고급_개체" data-name="벡터 고급 개체" transform="translate(354 363)">
        <g id="그룹_710" data-name="그룹 710">
          <g id="그룹_709" data-name="그룹 709" clip-path="url(#clip-path)">
            <path id="패스_730" data-name="패스 730" d="M94.36,56.643,58.213,21.131c-2.385-2.379-5.984-2.664-8.333-.323l-4.49,4.435L35.16,15.222l-23.108,22.7L22.463,48.181a11.446,11.446,0,0,0,2.814,5.781l29.48,28.962a5.951,5.951,0,0,0,3.957,1.559,5.78,5.78,0,0,0,5.847-5.826,5.663,5.663,0,0,0-.409-2.082l.447-.243,1.787,1.778a5.944,5.944,0,0,0,3.956,1.567,5.777,5.777,0,0,0,4.79-9.107L77.9,73.05a5.929,5.929,0,0,0,3.953,1.56,5.779,5.779,0,0,0,5.851-5.828,5.887,5.887,0,0,0-1.543-3.9,5.919,5.919,0,0,0,3.918,1.534,5.785,5.785,0,0,0,5.85-5.828,5.9,5.9,0,0,0-1.57-3.941" fill="#316aaf"/>
            <path id="패스_731" data-name="패스 731" d="M94.36,56.643,58.213,21.131c-2.385-2.379-5.984-2.664-8.333-.323l-4.49,4.435L35.16,15.222l-23.108,22.7L22.463,48.181a11.446,11.446,0,0,0,2.814,5.781l29.48,28.962a5.951,5.951,0,0,0,3.957,1.559,5.78,5.78,0,0,0,5.847-5.826,5.663,5.663,0,0,0-.409-2.082l.447-.243,1.787,1.778a5.944,5.944,0,0,0,3.956,1.567,5.777,5.777,0,0,0,4.79-9.107L77.9,73.05a5.929,5.929,0,0,0,3.953,1.56,5.779,5.779,0,0,0,5.851-5.828,5.887,5.887,0,0,0-1.543-3.9,5.919,5.919,0,0,0,3.918,1.534,5.785,5.785,0,0,0,5.85-5.828A5.9,5.9,0,0,0,94.36,56.643Z" fill="none" stroke="#fff" stroke-miterlimit="10" stroke-width="3.021"/>
            <line id="선_29" data-name="선 29" x1="15.613" y1="15.339" transform="translate(70.549 49.54)" fill="none" stroke="#fff" stroke-miterlimit="10" stroke-width="3.021"/>
            <line id="선_30" data-name="선 30" x1="12.996" y1="12.767" transform="translate(62.135 57.806)" fill="none" stroke="#fff" stroke-miterlimit="10" stroke-width="3.021"/>
            <line id="선_31" data-name="선 31" x2="10.662" y2="10.47" transform="translate(53.936 65.863)" fill="none" stroke="#fff" stroke-miterlimit="10" stroke-width="3.021"/>
            <path id="패스_732" data-name="패스 732" d="M2.155,30.362l25.45-25L36.4,14l-25.45,25Z" fill="#316aaf"/>
            <path id="패스_733" data-name="패스 733" d="M2.155,30.362l25.45-25L36.4,14l-25.45,25Z" fill="none" stroke="#fff" stroke-miterlimit="10" stroke-width="3.021"/>
            <path id="패스_734" data-name="패스 734" d="M29.239,15.113a1.982,1.982,0,0,1-2.765,0,1.9,1.9,0,0,1,0-2.72,1.986,1.986,0,0,1,2.765,0,1.9,1.9,0,0,1,0,2.72" fill="#fff"/>
            <path id="패스_735" data-name="패스 735" d="M29.239,15.113a1.982,1.982,0,0,1-2.765,0,1.9,1.9,0,0,1,0-2.72,1.986,1.986,0,0,1,2.765,0A1.9,1.9,0,0,1,29.239,15.113Z" fill="none" stroke="#fff" stroke-miterlimit="10" stroke-width="2.014"/>
            <path id="패스_736" data-name="패스 736" d="M54.328,27.227l-.4.392.4-.392Z" fill="#fff"/>
            <path id="패스_737" data-name="패스 737" d="M54.328,27.227l-.4.392.4-.392Z" fill="none" stroke="#fff" stroke-miterlimit="10" stroke-width="3.021"/>
            <rect id="사각형_669" data-name="사각형 669" width="1.973" height="0.005" transform="translate(52.356 27.222)" fill="#fff"/>
            <rect id="사각형_670" data-name="사각형 670" width="1.973" height="0.005" transform="translate(52.356 27.222)" fill="none" stroke="#fff" stroke-miterlimit="10" stroke-width="3.021"/>
            <path id="패스_738" data-name="패스 738" d="M86.522,12.373,76.692,22.03l-4.427-4.418a6.522,6.522,0,0,0-4.448-1.674l-23.72,0a5.645,5.645,0,1,0,0,11.288l8.258,0h1.975l0,0h0l10.006,0,27.174,26.7L95.924,49.6a12.507,12.507,0,0,0,2.984-5.386l10.011-9.834Z" fill="#316aaf"/>
            <path id="패스_739" data-name="패스 739" d="M86.522,12.373,76.692,22.03l-4.427-4.418a6.522,6.522,0,0,0-4.448-1.674l-23.72,0a5.645,5.645,0,1,0,0,11.288l8.258,0h1.975l0,0h0l10.006,0,27.174,26.7L95.924,49.6a12.507,12.507,0,0,0,2.984-5.386l10.011-9.834Z" fill="none" stroke="#fff" stroke-miterlimit="10" stroke-width="3.021"/>
            <path id="패스_740" data-name="패스 740" d="M110.1,35.533,84.83,10.706l8.745-8.589,25.27,24.823Z" fill="#316aaf"/>
            <path id="패스_741" data-name="패스 741" d="M110.1,35.533,84.83,10.706l8.745-8.589,25.27,24.823Z" fill="none" stroke="#fff" stroke-miterlimit="10" stroke-width="3.021"/>
            <path id="패스_742" data-name="패스 742" d="M94.879,11.7a1.973,1.973,0,0,1-2.763,0,1.9,1.9,0,0,1,0-2.716,1.982,1.982,0,0,1,2.763,0,1.9,1.9,0,0,1,0,2.716" fill="#fff"/>
            <path id="패스_743" data-name="패스 743" d="M94.879,11.7a1.973,1.973,0,0,1-2.763,0,1.9,1.9,0,0,1,0-2.716,1.982,1.982,0,0,1,2.763,0A1.9,1.9,0,0,1,94.879,11.7Z" fill="none" stroke="#fff" stroke-miterlimit="10" stroke-width="2.014"/>
            <path id="패스_744" data-name="패스 744" d="M48.448,60.031a5.881,5.881,0,0,0-3.84,1.6,5.691,5.691,0,0,0,1.629-3.776,5.148,5.148,0,0,0-5.4-5.3,5.858,5.858,0,0,0-3.812,1.579,5.68,5.68,0,0,0,1.61-3.751,5.154,5.154,0,0,0-5.393-5.3A5.891,5.891,0,0,0,29.4,46.694a5.675,5.675,0,0,0,1.637-3.781,5.154,5.154,0,0,0-5.394-5.3,5.919,5.919,0,0,0-4.089,1.842l-4.144,4.076-2.251,2.214a4.378,4.378,0,0,0-.176,6.241L39.2,75.787a4.561,4.561,0,0,0,6.351-.171L47.808,73.4l4-3.924a5.715,5.715,0,0,0,2.032-4.15,5.144,5.144,0,0,0-5.392-5.295" fill="#316aaf"/>
            <path id="패스_745" data-name="패스 745" d="M48.448,60.031a5.881,5.881,0,0,0-3.84,1.6,5.691,5.691,0,0,0,1.629-3.776,5.148,5.148,0,0,0-5.4-5.3,5.858,5.858,0,0,0-3.812,1.579,5.68,5.68,0,0,0,1.61-3.751,5.154,5.154,0,0,0-5.393-5.3A5.891,5.891,0,0,0,29.4,46.694a5.675,5.675,0,0,0,1.637-3.781,5.154,5.154,0,0,0-5.394-5.3,5.919,5.919,0,0,0-4.089,1.842l-4.144,4.076-2.251,2.214a4.378,4.378,0,0,0-.176,6.241L39.2,75.787a4.561,4.561,0,0,0,6.351-.171L47.808,73.4l4-3.924a5.715,5.715,0,0,0,2.032-4.15A5.144,5.144,0,0,0,48.448,60.031Z" fill="none" stroke="#fff" stroke-miterlimit="10" stroke-width="3.021"/>
            <line id="선_32" data-name="선 32" x1="5.213" y2="5.121" transform="translate(39.394 61.636)" fill="#316aaf"/>
            <line id="선_33" data-name="선 33" x1="5.213" y2="5.121" transform="translate(39.394 61.636)" fill="none" stroke="#fff" stroke-miterlimit="10" stroke-width="3.021"/>
            <line id="선_34" data-name="선 34" x1="5.28" y2="5.185" transform="translate(31.749 54.14)" fill="#316aaf"/>
            <line id="선_35" data-name="선 35" x1="5.28" y2="5.185" transform="translate(31.749 54.14)" fill="none" stroke="#fff" stroke-miterlimit="10" stroke-width="3.021"/>
            <line id="선_36" data-name="선 36" x1="5.253" y2="5.159" transform="translate(24.145 46.694)" fill="#316aaf"/>
            <line id="선_37" data-name="선 37" x1="5.253" y2="5.159" transform="translate(24.145 46.694)" fill="none" stroke="#fff" stroke-miterlimit="10" stroke-width="3.021"/>
          </g>
        </g>
      </g>
      <text id="협력과_연대-2" data-name="협력과 연대" transform="translate(415.962 499.573)" fill="#fff" font-size="24" font-family="NotoSansCJKkr-Medium, Noto Sans CJK KR" font-weight="500" letter-spacing="-0.025em"><tspan x="-56.4" y="0">협력과 연대</tspan></text>
    </g>
    <g id="참여와_권리" data-name="참여와 권리">
      <circle id="타원_1_복사" data-name="타원 1 복사" cx="126" cy="126" r="126" transform="translate(519 301)" fill="#0085cf" opacity="0.8"/>
      <g id="벡터_고급_개체-2" data-name="벡터 고급 개체" transform="translate(584 353)">
        <g id="그룹_712" data-name="그룹 712">
          <g id="그룹_711" data-name="그룹 711" clip-path="url(#clip-path-2)">
            <path id="패스_746" data-name="패스 746" d="M67.971,14.126A8.779,8.779,0,0,1,59.5,23.136a8.782,8.782,0,0,1-8.475-9.011v-3.6A8.78,8.78,0,0,1,59.5,1.51a8.777,8.777,0,0,1,8.471,9.011Z" fill="#319bd6"/>
            <path id="패스_747" data-name="패스 747" d="M67.971,14.126A8.779,8.779,0,0,1,59.5,23.136a8.782,8.782,0,0,1-8.475-9.011v-3.6A8.78,8.78,0,0,1,59.5,1.51a8.777,8.777,0,0,1,8.471,9.011Z" fill="none" stroke="#fff" stroke-miterlimit="10" stroke-width="3.015"/>
            <path id="패스_748" data-name="패스 748" d="M69.668,55.579h8.473V37.555c0-4.957-4.577-9.011-10.17-9.011H51.025c-5.591,0-10.167,4.054-10.167,9.011V55.579h8.473" fill="#319bd6"/>
            <path id="패스_749" data-name="패스 749" d="M69.668,55.579h8.473V37.555c0-4.957-4.577-9.011-10.17-9.011H51.025c-5.591,0-10.167,4.054-10.167,9.011V55.579h8.473" fill="none" stroke="#fff" stroke-miterlimit="10" stroke-width="3.015"/>
            <path id="패스_750" data-name="패스 750" d="M90.569,43.1H28.431L1.5,97.171v8.319H117.5V97.171Z" fill="#319bd6"/>
            <path id="패스_751" data-name="패스 751" d="M90.569,43.1H28.431L1.5,97.171v8.319H117.5V97.171Z" fill="none" stroke="#fff" stroke-miterlimit="10" stroke-width="3.015"/>
            <path id="패스_752" data-name="패스 752" d="M18.976,30.742c0,4.951-3.73,9-8.285,9s-8.286-4.048-8.286-9v-3.6c0-4.949,3.726-9,8.286-9s8.285,4.05,8.285,9Z" fill="#319bd6"/>
            <path id="패스_753" data-name="패스 753" d="M18.976,30.742c0,4.951-3.73,9-8.285,9s-8.286-4.048-8.286-9v-3.6c0-4.949,3.726-9,8.286-9s8.285,4.05,8.285,9Z" fill="none" stroke="#fff" stroke-miterlimit="10" stroke-width="3.015"/>
            <path id="패스_754" data-name="패스 754" d="M27.785,61.936S16.124,47.48,16.052,47.409l-.433-.4a4.5,4.5,0,0,0-2.767-.974H6.366a5.166,5.166,0,0,0-4.862,5.4V83.824c0,2.293,2.083,4.719,3.909,5.5l12.948-26,5.526,6.529h14.9V61.936Z" fill="#319bd6"/>
            <path id="패스_755" data-name="패스 755" d="M27.785,61.936S16.124,47.48,16.052,47.409l-.433-.4a4.5,4.5,0,0,0-2.767-.974H6.366a5.166,5.166,0,0,0-4.862,5.4V83.824c0,2.293,2.083,4.719,3.909,5.5l12.948-26,5.526,6.529h14.9V61.936Z" fill="none" stroke="#fff" stroke-miterlimit="10" stroke-width="3.015"/>
            <line id="선_38" data-name="선 38" x2="3.73" y2="4.395" transform="translate(14.632 58.924)" fill="#319bd6"/>
            <line id="선_39" data-name="선 39" x2="3.73" y2="4.395" transform="translate(14.632 58.924)" fill="none" stroke="#fff" stroke-miterlimit="10" stroke-width="2.01"/>
            <path id="패스_756" data-name="패스 756" d="M100.024,30.742c0,4.951,3.73,9,8.285,9s8.286-4.048,8.286-9v-3.6c0-4.949-3.726-9-8.286-9s-8.285,4.05-8.285,9Z" fill="#319bd6"/>
            <path id="패스_757" data-name="패스 757" d="M100.024,30.742c0,4.951,3.73,9,8.285,9s8.286-4.048,8.286-9v-3.6c0-4.949-3.726-9-8.286-9s-8.285,4.05-8.285,9Z" fill="none" stroke="#fff" stroke-miterlimit="10" stroke-width="3.015"/>
            <path id="패스_758" data-name="패스 758" d="M91.215,61.936s11.661-14.456,11.735-14.526l.432-.4a4.5,4.5,0,0,1,2.767-.974h6.486a5.166,5.166,0,0,1,4.862,5.4V83.824c0,2.293-2.083,4.719-3.909,5.5l-12.948-26-5.526,6.529h-14.9V61.936Z" fill="#319bd6"/>
            <path id="패스_759" data-name="패스 759" d="M91.215,61.936s11.661-14.456,11.735-14.526l.432-.4a4.5,4.5,0,0,1,2.767-.974h6.486a5.166,5.166,0,0,1,4.862,5.4V83.824c0,2.293-2.083,4.719-3.909,5.5l-12.948-26-5.526,6.529h-14.9V61.936Z" fill="none" stroke="#fff" stroke-miterlimit="10" stroke-width="3.015"/>
            <line id="선_40" data-name="선 40" x1="3.73" y2="4.395" transform="translate(100.639 58.924)" fill="#319bd6"/>
            <line id="선_41" data-name="선 41" x1="3.73" y2="4.395" transform="translate(100.639 58.924)" fill="none" stroke="#fff" stroke-miterlimit="10" stroke-width="3.015"/>
          </g>
        </g>
      </g>
      <text id="참여와_권리-2" data-name="참여와 권리" transform="translate(645.962 499.573)" fill="#fff" font-size="24" font-family="NotoSansCJKkr-Medium, Noto Sans CJK KR" font-weight="500" letter-spacing="-0.025em"><tspan x="-56.4" y="0">참여와 권리</tspan></text>
    </g>
    <g id="미래지향">
      <circle id="타원_1_복사-2" data-name="타원 1 복사" cx="126" cy="126" r="126" transform="translate(749 301)" fill="#4259e7" opacity="0.902"/>
      <g id="벡터_고급_개체-3" data-name="벡터 고급 개체" transform="translate(828 348)">
        <g id="그룹_714" data-name="그룹 714">
          <g id="그룹_713" data-name="그룹 713" clip-path="url(#clip-path-3)">
            <path id="패스_760" data-name="패스 760" d="M94.5,68.777A46.5,46.5,0,1,1,48,22.063,46.608,46.608,0,0,1,94.5,68.777" fill="#5368e8"/>
            <ellipse id="타원_5" data-name="타원 5" cx="46.498" cy="46.714" rx="46.498" ry="46.714" transform="translate(1.502 22.063)" fill="none" stroke="#fff" stroke-miterlimit="10" stroke-width="3.012"/>
            <path id="패스_761" data-name="패스 761" d="M23.382,68.777c0,25.8,11.027,46.714,24.618,46.714S72.615,94.575,72.615,68.777Z" fill="#5368e8"/>
            <path id="패스_762" data-name="패스 762" d="M23.382,68.777c0,25.8,11.027,46.714,24.618,46.714S72.615,94.575,72.615,68.777Z" fill="none" stroke="#fff" stroke-miterlimit="10" stroke-width="3.012"/>
            <line id="선_42" data-name="선 42" x1="81.954" transform="translate(7.024 90.868)" fill="none" stroke="#fff" stroke-miterlimit="10" stroke-width="3.005"/>
            <line id="선_43" data-name="선 43" y1="46.714" transform="translate(48 68.777)" fill="none" stroke="#fff" stroke-miterlimit="10" stroke-width="3.019"/>
            <line id="선_44" data-name="선 44" x2="92.996" transform="translate(1.502 68.777)" fill="none" stroke="#fff" stroke-miterlimit="10" stroke-width="3.005"/>
            <rect id="사각형_673" data-name="사각형 673" width="22.318" height="56.056" transform="translate(51.72 12.72)" fill="#5368e8"/>
            <rect id="사각형_674" data-name="사각형 674" width="22.318" height="56.056" transform="translate(51.72 12.72)" fill="none" stroke="#fff" stroke-miterlimit="10" stroke-width="3.012"/>
            <rect id="사각형_675" data-name="사각형 675" width="3.72" height="3.737" transform="translate(64.739 38.881)" fill="#5368e8"/>
            <rect id="사각형_676" data-name="사각형 676" width="3.72" height="3.737" transform="translate(64.739 38.881)" fill="none" stroke="#fff" stroke-miterlimit="10" stroke-width="3.012"/>
            <rect id="사각형_677" data-name="사각형 677" width="3.72" height="3.737" transform="translate(64.739 20.194)" fill="#5368e8"/>
            <rect id="사각형_678" data-name="사각형 678" width="3.72" height="3.737" transform="translate(64.739 20.194)" fill="none" stroke="#fff" stroke-miterlimit="10" stroke-width="3.012"/>
            <rect id="사각형_679" data-name="사각형 679" width="3.72" height="3.737" transform="translate(64.739 29.538)" fill="#5368e8"/>
            <rect id="사각형_680" data-name="사각형 680" width="3.72" height="3.737" transform="translate(64.739 29.538)" fill="none" stroke="#fff" stroke-miterlimit="10" stroke-width="3.012"/>
            <rect id="사각형_681" data-name="사각형 681" width="3.72" height="3.737" transform="translate(64.739 48.223)" fill="#5368e8"/>
            <rect id="사각형_682" data-name="사각형 682" width="3.72" height="3.737" transform="translate(64.739 48.223)" fill="none" stroke="#fff" stroke-miterlimit="10" stroke-width="3.012"/>
            <rect id="사각형_683" data-name="사각형 683" width="3.72" height="3.737" transform="translate(64.739 57.566)" fill="#5368e8"/>
            <rect id="사각형_684" data-name="사각형 684" width="3.72" height="3.737" transform="translate(64.739 57.566)" fill="none" stroke="#fff" stroke-miterlimit="10" stroke-width="3.012"/>
            <path id="패스_763" data-name="패스 763" d="M40.56,68.777H14.522V14.589L36.841,1.51h3.72Z" fill="#5368e8"/>
            <path id="패스_764" data-name="패스 764" d="M40.56,68.777H14.522V14.589L36.841,1.51h3.72Z" fill="none" stroke="#fff" stroke-miterlimit="10" stroke-width="3.012"/>
            <line id="선_45" data-name="선 45" x2="7.439" transform="translate(18.241 35.143)" fill="none" stroke="#fff" stroke-miterlimit="10" stroke-width="3.005"/>
            <line id="선_46" data-name="선 46" x2="7.439" transform="translate(18.241 27.669)" fill="none" stroke="#fff" stroke-miterlimit="10" stroke-width="3.005"/>
            <line id="선_47" data-name="선 47" x2="7.439" transform="translate(18.241 42.617)" fill="none" stroke="#fff" stroke-miterlimit="10" stroke-width="3.005"/>
            <line id="선_48" data-name="선 48" x2="7.439" transform="translate(18.241 50.091)" fill="none" stroke="#fff" stroke-miterlimit="10" stroke-width="3.005"/>
            <line id="선_49" data-name="선 49" x2="7.439" transform="translate(18.241 57.566)" fill="none" stroke="#fff" stroke-miterlimit="10" stroke-width="3.005"/>
            <rect id="사각형_685" data-name="사각형 685" width="26.038" height="41.108" transform="translate(34.981 27.669)" fill="#5368e8"/>
            <rect id="사각형_686" data-name="사각형 686" width="26.038" height="41.108" transform="translate(34.981 27.669)" fill="none" stroke="#fff" stroke-miterlimit="10" stroke-width="3.012"/>
            <line id="선_50" data-name="선 50" x2="14.879" transform="translate(40.56 51.96)" fill="none" stroke="#fff" stroke-miterlimit="10" stroke-width="3.005"/>
            <line id="선_51" data-name="선 51" x2="14.879" transform="translate(40.56 44.486)" fill="none" stroke="#fff" stroke-miterlimit="10" stroke-width="3.005"/>
            <line id="선_52" data-name="선 52" x2="14.879" transform="translate(40.56 59.434)" fill="none" stroke="#fff" stroke-miterlimit="10" stroke-width="3.005"/>
            <line id="선_53" data-name="선 53" x2="14.879" transform="translate(40.56 37.012)" fill="none" stroke="#fff" stroke-miterlimit="10" stroke-width="3.005"/>
            <rect id="사각형_687" data-name="사각형 687" width="14.879" height="7.474" transform="translate(40.561 20.194)" fill="#5368e8"/>
            <rect id="사각형_688" data-name="사각형 688" width="14.879" height="7.474" transform="translate(40.561 20.194)" fill="none" stroke="#fff" stroke-miterlimit="10" stroke-width="3.012"/>
          </g>
        </g>
      </g>
      <text id="미래지향-2" data-name="미래지향" transform="translate(875.962 499.573)" fill="#fff" font-size="24" font-family="NotoSansCJKkr-Medium, Noto Sans CJK KR" font-weight="500" letter-spacing="-0.025em"><tspan x="-43.26" y="0">미래지향</tspan></text>
    </g>
    <g id="포용과_상생" data-name="포용과 상생">
      <circle id="타원_1_복사-3" data-name="타원 1 복사" cx="126" cy="126" r="126" transform="translate(979 301)" fill="#59c4ff" opacity="0.902"/>
      <g id="벡터_고급_개체-4" data-name="벡터 고급 개체" transform="translate(1051 347)">
        <g id="그룹_716" data-name="그룹 716">
          <g id="그룹_715" data-name="그룹 715" clip-path="url(#clip-path-4)">
            <path id="패스_765" data-name="패스 765" d="M56.768,68.248,64.6,61.036,40.877,35.95c-3.126-2.827-5.968-4.443-9.861-4.7H13.308c-6.492,0-11.8,4.669-11.8,10.378V78.986H34.95V45.776Z" fill="#68c9fe"/>
            <path id="패스_766" data-name="패스 766" d="M56.768,68.248,64.6,61.036,40.877,35.95c-3.126-2.827-5.968-4.443-9.861-4.7H13.308c-6.492,0-11.8,4.669-11.8,10.378V78.986H34.95V45.776Z" fill="none" stroke="#fff" stroke-miterlimit="10" stroke-width="3.017"/>
            <rect id="사각형_690" data-name="사각형 690" width="23.609" height="37.501" transform="translate(11.342 78.986)" fill="#68c9fe"/>
            <rect id="사각형_691" data-name="사각형 691" width="23.609" height="37.501" transform="translate(11.342 78.986)" fill="none" stroke="#fff" stroke-miterlimit="10" stroke-width="3.017"/>
            <path id="패스_767" data-name="패스 767" d="M34.95,116.487V45.776L56.768,68.248,64.6,61.036,40.877,35.95c-3.126-2.827-5.968-4.443-9.861-4.7H13.308c-6.492,0-11.8,4.669-11.8,10.378V78.986h9.837v37.5" fill="#68c9fe"/>
            <path id="패스_768" data-name="패스 768" d="M34.95,116.487V45.776L56.768,68.248,64.6,61.036,40.877,35.95c-3.126-2.827-5.968-4.443-9.861-4.7H13.308c-6.492,0-11.8,4.669-11.8,10.378V78.986h9.837v37.5" fill="none" stroke="#fff" stroke-miterlimit="10" stroke-width="3.017"/>
            <line id="선_54" data-name="선 54" y2="36.987" transform="translate(11.341 41.999)" fill="none" stroke="#fff" stroke-miterlimit="10" stroke-width="3.025"/>
            <line id="선_55" data-name="선 55" y1="37.501" transform="translate(23.146 78.986)" fill="none" stroke="#fff" stroke-miterlimit="10" stroke-width="3.025"/>
            <path id="패스_769" data-name="패스 769" d="M33.053,15.389a9.859,9.859,0,1,1-19.718,0V11.424a9.859,9.859,0,1,1,19.718,0Z" fill="#68c9fe"/>
            <path id="패스_770" data-name="패스 770" d="M33.053,15.389a9.859,9.859,0,1,1-19.718,0V11.424a9.859,9.859,0,1,1,19.718,0Z" fill="none" stroke="#fff" stroke-miterlimit="10" stroke-width="3.017"/>
            <path id="패스_771" data-name="패스 771" d="M52.232,68.248,44.4,61.036,68.123,35.95c3.126-2.827,5.968-4.443,9.861-4.7H95.692c6.492,0,11.8,4.669,11.8,10.378V78.986H74.05V45.776Z" fill="#68c9fe"/>
            <path id="패스_772" data-name="패스 772" d="M52.232,68.248,44.4,61.036,68.123,35.95c3.126-2.827,5.968-4.443,9.861-4.7H95.692c6.492,0,11.8,4.669,11.8,10.378V78.986H74.05V45.776Z" fill="none" stroke="#fff" stroke-miterlimit="10" stroke-width="3.017"/>
            <rect id="사각형_692" data-name="사각형 692" width="23.609" height="37.501" transform="translate(74.05 78.986)" fill="#68c9fe"/>
            <rect id="사각형_693" data-name="사각형 693" width="23.609" height="37.501" transform="translate(74.05 78.986)" fill="none" stroke="#fff" stroke-miterlimit="10" stroke-width="3.017"/>
            <path id="패스_773" data-name="패스 773" d="M74.05,116.487V45.776L52.232,68.248,44.4,61.036,68.123,35.95c3.126-2.827,5.968-4.443,9.861-4.7H95.692c6.492,0,11.8,4.669,11.8,10.378V78.986H97.658v37.5" fill="#68c9fe"/>
            <path id="패스_774" data-name="패스 774" d="M74.05,116.487V45.776L52.232,68.248,44.4,61.036,68.123,35.95c3.126-2.827,5.968-4.443,9.861-4.7H95.692c6.492,0,11.8,4.669,11.8,10.378V78.986H97.658v37.5" fill="none" stroke="#fff" stroke-miterlimit="10" stroke-width="3.017"/>
            <line id="선_56" data-name="선 56" y2="36.987" transform="translate(97.659 41.999)" fill="none" stroke="#fff" stroke-miterlimit="10" stroke-width="3.025"/>
            <line id="선_57" data-name="선 57" y1="37.501" transform="translate(85.854 78.986)" fill="none" stroke="#fff" stroke-miterlimit="10" stroke-width="3.025"/>
            <path id="패스_775" data-name="패스 775" d="M75.947,15.389a9.859,9.859,0,1,0,19.718,0V11.424a9.859,9.859,0,1,0-19.718,0Z" fill="#68c9fe"/>
            <path id="패스_776" data-name="패스 776" d="M75.947,15.389a9.859,9.859,0,1,0,19.718,0V11.424a9.859,9.859,0,1,0-19.718,0Z" fill="none" stroke="#fff" stroke-miterlimit="10" stroke-width="3.017"/>
          </g>
        </g>
      </g>
      <text id="포용과_상생-2" data-name="포용과 상생" transform="translate(1105.962 500.573)" fill="#fff" font-size="24" font-family="NotoSansCJKkr-Medium, Noto Sans CJK KR" font-weight="500" letter-spacing="-0.025em"><tspan x="-56.4" y="0">포용과 상생</tspan></text>
    </g>
  </g>
</svg>
